<svg width="104" height="104" viewBox="0 0 104 104" fill="none" xmlns="http://www.w3.org/2000/svg">
<path d="M88.0895 69.0611C90.8193 60.5701 90.5726 50.1012 87.5416 41.7289C85.4504 35.9662 80.6653 28.4595 73.4128 30.067C67.0611 31.484 64.4177 39.1141 64.5176 44.8917C64.6398 51.3812 66.5065 58.2522 69.871 63.8286C71.5278 66.5772 73.7658 69.2748 76.7408 70.6859C79.864 72.1733 83.1579 71.874 86.2379 70.4318C87.9136 69.6497 86.3965 67.2205 84.7364 67.9859C73.6922 73.131 68.2974 54.9403 67.5251 47.3381C67.0319 42.4474 67.7393 36.0773 72.5946 33.4126C78.1182 30.3704 82.838 37.3448 84.463 41.6651C87.5723 49.9539 88.0157 59.9793 85.3016 68.4537C84.7406 70.188 87.5295 70.8278 88.0895 69.0611Z" fill="#7DCAC9"/>
<path d="M85.9013 68.4845C82.4013 62.718 80.7838 56.0496 78.9793 49.6138C78.4863 47.8321 75.7273 48.6649 76.2359 50.4299C78.1122 57.0901 79.8506 63.9976 83.4704 69.9707C84.4102 71.5439 86.8735 70.0566 85.9013 68.4845Z" fill="#7DCAC9"/>
<path d="M66.4655 76.082C62.0593 72.9191 57.5601 69.8887 52.8748 67.1233C47.5293 63.958 41.559 60.4887 35.3275 59.5376C33.131 59.2028 30.6859 59.1998 28.8009 60.5391C26.7258 62.014 26.1598 64.6229 26.2191 67.0338C26.3052 70.8201 27.4014 74.801 29.7299 77.8035C32.3962 81.2485 36.2094 83.5721 40.2541 85.0139C48.9163 88.0897 60.9955 87.5589 66.3793 79.0156C67.3669 77.462 64.8155 76.1346 63.8435 77.6715C59.6481 84.3471 50.0424 84.7505 43.2012 82.9444C39.4295 81.9473 35.7452 80.1216 33.0335 77.2933C30.5897 74.748 29.449 71.4162 29.1299 67.945C29.0297 66.8146 28.9922 65.6176 29.3304 64.5219C29.5356 63.8352 29.9536 63.2228 30.3494 62.9349C31.5995 62.0044 33.481 62.1064 35.1912 62.4243C40.7443 63.4294 45.9877 66.436 50.8033 69.2296C53.6404 70.888 56.4157 72.6456 59.1441 74.4532C60.2027 75.1643 61.2613 75.8754 62.3209 76.6189C62.7683 76.9447 63.2146 77.2381 63.662 77.5639C64.0594 77.8427 64.3577 78.0599 64.5068 78.1685C65.9971 79.2221 67.9725 77.1512 66.4655 76.082Z" fill="#7DCAC9"/>
<path d="M64.2556 77.3994C58.0857 76.3493 52.2343 74.0906 46.2843 72.3048C44.519 71.7781 43.8777 74.5675 45.643 75.0942C51.593 76.8801 57.4444 79.1387 63.6143 80.1889C65.4215 80.5037 66.0785 77.6976 64.2556 77.3994Z" fill="#7DCAC9"/>
<path d="M55.0664 47.1037C53.8952 39.6923 52.3929 31.5304 47.5417 25.5318C44.5771 21.8695 40.1704 18.1723 35.4144 17.2875C33.3787 16.9152 31.2495 17.1774 29.6754 18.6201C27.8653 20.2809 27.3953 22.8544 27.2741 25.19C26.9792 31.2879 30.8436 36.7999 35.2545 40.6265C40.0813 44.8123 46.3868 48.1252 52.8619 48.5827C54.6955 48.7024 54.5896 45.8396 52.7728 45.7356C48.0508 45.4165 43.3631 43.0885 39.5544 40.3923C35.4307 37.4633 31.5785 33.3759 30.3998 28.3128C29.6525 25.1304 29.9919 19.4197 34.4966 20.0372C38.4315 20.5595 42.125 23.7127 44.6916 26.5618C49.6081 32.0564 51.0917 40.1379 52.2027 47.1788C52.4859 48.9833 55.3496 48.9082 55.0664 47.1037Z" fill="#7DCAC9"/>
<path d="M53.3457 44.9239C49.442 41.2592 45.9633 37.2085 42.0595 33.5438C40.7249 32.291 38.7495 34.3618 40.1008 35.6304C44.0046 39.2951 47.4832 43.3458 51.387 47.0104C52.7383 48.279 54.6971 46.1925 53.3457 44.9239Z" fill="#7DCAC9"/>
</svg>
