<svg width="149" height="149" viewBox="0 0 149 149" fill="none" xmlns="http://www.w3.org/2000/svg">
<path d="M125.109 87.8423C118.887 85.7006 111.175 81.8867 111.105 74.2581C111.065 69.0814 114.035 64.3067 115.462 59.4497C118.205 50.1057 114.661 39.872 108.691 32.5724C102.564 25.0711 93.5835 19.7752 84.0047 18.1823C79.3001 17.3925 74.4365 17.5287 69.8233 18.7565C65.1912 19.9848 60.7617 22.278 56.6663 24.7392C47.5538 30.2359 39.4582 37.5985 32.9266 45.9919C26.5127 54.2406 21.3246 63.8223 19.3936 74.1836C18.5096 78.9669 18.3093 83.9728 19.1647 88.7853C20.2009 94.5693 23.0461 99.901 26.7763 104.387C34.4122 113.56 45.8152 119.69 57.3626 122.329C68.881 124.941 80.722 121.951 89.0736 113.462C93.4362 109.028 96.3479 103.579 99.1743 98.1041C100.61 95.333 102.312 92.3749 105.457 91.3537C108.554 90.3434 111.743 91.3319 114.61 92.5656C117.078 93.6428 119.422 94.9871 121.889 96.0456C122.327 96.2384 122.746 96.1029 123.015 95.6996C124.207 93.8479 125.63 92.1767 126.372 90.0668C126.717 89.0597 125.098 88.6884 124.754 89.6955C124.082 91.634 122.646 93.221 121.553 94.9286C121.935 94.813 122.298 94.6981 122.68 94.5826C118.079 92.6148 113.53 89.2733 108.324 89.2889C101.85 89.3167 99.1826 94.467 96.5886 99.5585C93.8168 104.975 90.4934 110.184 85.8551 114.213C81.4271 118.057 75.9428 120.581 70.1308 121.34C58.2263 122.903 45.4833 117.793 36.0356 110.783C31.2059 107.197 26.9323 102.766 24.032 97.4732C21.3209 92.5225 20.1735 87.0897 20.2885 81.457C20.491 71.1132 24.6619 61.1598 30.2294 52.5904C36.0662 43.6176 43.7317 35.7237 52.427 29.5073C60.2126 23.9495 69.2136 19.0954 79.0233 19.356C88.7953 19.6177 98.3168 24.1822 105.131 31.1071C111.741 37.8412 116.362 47.9748 114.209 57.5443C113.112 62.4378 110.385 66.857 109.601 71.8439C108.756 77.2838 111.343 82.1727 115.791 85.273C118.5 87.1602 121.584 88.3963 124.69 89.4532C125.754 89.814 126.116 88.1861 125.109 87.8423Z" fill="#D1D1D1"/>
<path d="M119.376 88.4196C115.849 86.8216 112.171 85.5198 108.794 83.607C107.149 82.6821 105.592 81.5852 104.253 80.2371C102.758 78.7059 101.759 76.8207 100.751 74.9451C97.6051 69.0028 95.9319 62.3839 92.3973 56.6418C85.7943 45.9418 73.4167 39.2975 61.0605 38.1408C54.1615 37.4961 47.1862 38.6206 40.9686 41.732C40.0064 42.2138 40.8869 43.6236 41.84 43.1515C53.0822 37.5399 66.7535 38.9837 77.5225 44.9743C83.2514 48.1655 88.2141 52.6967 91.5126 58.3992C94.8008 64.0739 96.4402 70.5153 99.5805 76.2699C101.515 79.8169 103.78 82.5264 107.267 84.6518C110.83 86.8124 114.811 88.1798 118.595 89.8917C119.567 90.3306 120.358 88.8675 119.376 88.4196Z" fill="#D1D1D1"/>
<path d="M100.553 83.6156C81.4402 80.6538 61.057 80.3449 43.4851 71.3759C38.3855 68.7756 33.742 65.4371 29.7607 61.3352C29.0225 60.5693 27.8857 61.7802 28.6239 62.5461C43.0136 77.3302 64.2618 80.6563 83.8187 83.0871C89.2811 83.7682 94.7508 84.3832 100.19 85.2248C101.229 85.3984 101.601 83.7796 100.553 83.6156Z" fill="#D1D1D1"/>
<path d="M91.0317 73.3468C79.1512 58.5673 59.8628 50.9029 41.3232 49.4452C40.2585 49.3569 40.3199 51.0183 41.3749 51.0975C59.2551 52.501 78.1512 59.943 89.6112 74.2003C90.267 75.0346 91.6875 74.1811 91.0317 73.3468Z" fill="#D1D1D1"/>
<path d="M74.7355 69.7125C67.0337 68.6424 59.8338 65.2914 53.3682 61.0806C52.476 60.4982 51.6951 61.9703 52.5873 62.5527C59.1583 66.8259 66.5295 70.2466 74.3633 71.3314C75.411 71.4765 75.8019 69.8571 74.7355 69.7125Z" fill="#D1D1D1"/>
<path d="M94.3841 90.381C86.1345 92.8242 77.6455 94.8239 68.9927 94.5923C59.7281 94.3331 51.1913 91.2033 43.0165 87.0283C37.3151 84.1182 31.5114 80.6381 28.1129 75.0422C27.5578 74.1201 26.1379 74.9923 26.693 75.9144C29.6453 80.7634 34.3274 84.1382 39.1967 86.8869C43.7307 89.4301 48.492 91.731 53.4217 93.4064C61.7619 96.2606 70.521 96.8836 79.2304 95.6192C84.5343 94.8393 89.7272 93.5179 94.8574 91.9917C95.8813 91.6772 95.4085 90.0852 94.3841 90.381Z" fill="#D1D1D1"/>
<path d="M91.7049 96.9602C85.7304 103.635 77.882 108.386 69.033 109.994C58.9689 111.809 48.7566 109.493 40.5588 103.383C35.6129 99.6878 31.4006 95.1139 26.9173 90.887C26.1428 90.1599 24.9963 91.3617 25.7805 92.0979C34.1178 99.961 42.0004 108.91 53.7394 111.364C62.7541 113.248 72.1901 112.083 80.4038 107.893C85.1581 105.467 89.3653 102.072 92.9249 98.1054C93.6324 97.2934 92.4222 96.1573 91.7049 96.9602Z" fill="#D1D1D1"/>
<path d="M65.51 101.93C59.6229 102.09 53.7001 100.812 49.025 97.0615C48.1959 96.3925 47.0591 97.6035 47.8882 98.2725C52.9108 102.313 59.2058 103.776 65.5527 103.592C66.6326 103.567 66.5803 101.896 65.51 101.93Z" fill="#D1D1D1"/>
<path d="M80.4193 87.9879C73.246 87.8877 66.1853 86.5809 59.2266 84.9326C58.1851 84.6839 57.8129 86.3027 58.8544 86.5515C65.9457 88.2331 73.1572 89.5539 80.462 89.6499C81.543 89.6625 81.4913 88.0101 80.4193 87.9879Z" fill="#D1D1D1"/>
<path d="M43.9195 79.5468C40.2393 77.8598 36.6069 76.1995 33.879 73.1101C33.1681 72.3151 32.0313 73.5261 32.7422 74.321C35.5676 77.5201 39.3531 79.2695 43.1574 81.0184C44.1109 81.4578 44.9014 79.9948 43.9195 79.5468Z" fill="#D1D1D1"/>
<path d="M41.754 60.5111C38.3068 59.061 35.0367 57.2669 31.5803 55.8265C30.5996 55.4161 29.8187 56.8882 30.7995 57.2986C34.2467 58.7487 37.5168 60.5428 40.9731 61.9832C41.963 62.3839 42.7445 60.9306 41.754 60.5111Z" fill="#D1D1D1"/>
<path d="M107.206 67.3897C105.307 59.5563 103.957 51.2731 98.9123 44.7146C93.603 37.8169 85.7124 32.8152 77.2933 30.7436C72.3971 29.537 67.314 29.2667 62.2994 29.6803C61.2309 29.7707 61.2826 31.4231 62.3511 31.3326C73.6833 30.3982 84.3503 33.4319 92.995 40.9093C96.9165 44.299 99.893 48.4236 101.727 53.2801C103.5 57.9881 104.418 62.9865 105.614 67.8633C105.872 68.9076 107.454 68.4249 107.206 67.3897Z" fill="#D1D1D1"/>
<path d="M107.687 45.2436C105.527 41.3936 103.375 37.4777 100.451 34.1314C97.4684 30.7118 93.709 28.2943 89.3725 26.9571C88.3571 26.6418 87.9849 28.2606 89.0003 28.5759C93.2041 29.8798 96.748 32.3135 99.5877 35.6719C102.271 38.8286 104.247 42.5246 106.267 46.1158C106.795 47.0482 108.205 46.1856 107.687 45.2436Z" fill="#D1D1D1"/>
</svg>
