<svg width="104" height="104" viewBox="0 0 104 104" fill="none" xmlns="http://www.w3.org/2000/svg">
<path d="M88.0905 69.0616C90.8203 60.5705 90.5735 50.1016 87.5425 41.7294C85.4514 35.9666 80.6663 28.46 73.4138 30.0675C67.0621 31.4844 64.4187 39.1146 64.5186 44.8922C64.6408 51.3816 66.5075 58.2527 69.872 63.8291C71.5287 66.5777 73.7668 69.2753 76.7418 70.6864C79.865 72.1737 83.1589 71.8745 86.2389 70.4323C87.9146 69.6502 86.3974 67.221 84.7374 67.9864C73.6932 73.1315 68.2984 54.9408 67.526 47.3386C67.0329 42.4479 67.7403 36.0778 72.5956 33.4131C78.1191 30.3709 82.839 37.3453 84.464 41.6656C87.5733 49.9544 88.0167 59.9798 85.3026 68.4542C84.7415 70.1885 87.5305 70.8283 88.0905 69.0616Z" fill="#E1D4DB"/>
<path d="M85.9028 68.485C82.4028 62.7185 80.7853 56.0501 78.9807 49.6143C78.4878 47.8326 75.7287 48.6654 76.2374 50.4304C78.1137 57.0906 79.852 63.9981 83.4718 69.9712C84.4117 71.5444 86.8749 70.0571 85.9028 68.485Z" fill="#E1D4DB"/>
<path d="M66.4665 76.0824C62.0603 72.9195 57.561 69.8891 52.8758 67.1238C47.5303 63.9584 41.56 60.4891 35.3285 59.5381C33.132 59.2033 30.6868 59.2003 28.8018 60.5396C26.7268 62.0145 26.1608 64.6234 26.22 67.0342C26.3062 70.8206 27.4024 74.8015 29.7309 77.8039C32.3972 81.249 36.2104 83.5725 40.2551 85.0143C48.9173 88.0901 60.9965 87.5594 66.3802 79.0161C67.3679 77.4625 64.8165 76.135 63.8445 77.6719C59.6491 84.3476 50.0434 84.7509 43.2021 82.9449C39.4304 81.9478 35.7462 80.1221 33.0344 77.2938C30.5906 74.7484 29.45 71.4167 29.1308 67.9454C29.0307 66.8151 28.9932 65.618 29.3313 64.5223C29.5365 63.8357 29.9546 63.2232 30.3504 62.9353C31.6004 62.0049 33.482 62.1068 35.1921 62.4248C40.7453 63.4298 45.9886 66.4365 50.8043 69.2301C53.6413 70.8885 56.4167 72.646 59.1451 74.4536C60.2037 75.1648 61.2622 75.8759 62.3218 76.6194C62.7692 76.9451 63.2156 77.2386 63.663 77.5644C64.0604 77.8432 64.3586 78.0604 64.5078 78.169C65.9981 79.2226 67.9735 77.1517 66.4665 76.0824Z" fill="#E1D4DB"/>
<path d="M64.2571 77.4C58.0872 76.3498 52.2358 74.0912 46.2858 72.3053C44.5205 71.7786 43.8791 74.5681 45.6444 75.0947C51.5944 76.8806 57.4459 79.1392 63.6157 80.1894C65.423 80.5042 66.08 77.6981 64.2571 77.4Z" fill="#E1D4DB"/>
<path d="M55.0669 47.1042C53.8957 39.6928 52.3934 31.5309 47.5422 25.5323C44.5776 21.87 40.1708 18.1728 35.4149 17.288C33.3792 16.9157 31.25 17.1779 29.6759 18.6206C27.8657 20.2814 27.3958 22.8549 27.2746 25.1905C26.9797 31.2884 30.8441 36.8003 35.255 40.627C40.0818 44.8128 46.3873 48.1257 52.8624 48.5832C54.6959 48.7029 54.5901 45.8401 52.7733 45.7361C48.0513 45.417 43.3635 43.0889 39.5548 40.3928C35.4312 37.4638 31.579 33.3764 30.4003 28.3132C29.653 25.1309 29.9924 19.4202 34.4971 20.0377C38.432 20.56 42.1255 23.7132 44.6921 26.5623C49.6085 32.0569 51.0922 40.1384 52.2032 47.1792C52.4864 48.9838 55.3501 48.9087 55.0669 47.1042Z" fill="#E1D4DB"/>
<path d="M53.3467 44.9244C49.4429 41.2597 45.9643 37.209 42.0605 33.5443C40.7259 32.2914 38.7505 34.3623 40.1018 35.6309C44.0055 39.2956 47.4842 43.3462 51.388 47.0109C52.7393 48.2795 54.698 46.1929 53.3467 44.9244Z" fill="#E1D4DB"/>
</svg>
