<svg width="468" height="208" viewBox="0 0 468 208" fill="none" xmlns="http://www.w3.org/2000/svg">
<path d="M7.6666 422.504C53.7527 411.95 98.4662 393.216 130.412 356.987C170.354 311.696 186.733 252.111 212.573 198.779C219.854 183.724 228.2 169.398 237.357 155.407C243.524 145.968 251.383 133.405 262.558 129.541C261.63 128.896 260.701 128.25 259.813 127.586C259.567 133.022 255.772 137.41 252.319 141.323C248.929 145.158 245.495 148.843 242.432 152.967C234.943 163.088 228.619 174.21 223.031 185.504C215.082 201.551 207.882 218.546 203.05 235.815C200.588 244.617 198.534 253.939 199.616 263.083C199.747 264.17 200.874 264.822 201.899 264.666C213.64 263.055 225.176 259.928 236.665 257.017C250.402 253.533 264.076 249.858 277.901 246.675C283.591 245.367 289.288 244.129 295.063 243.221C298.747 242.644 302.885 241.833 306.627 242.449C307.345 242.581 308.376 242.863 308.471 242.965C308.596 243.078 308.518 242.748 308.446 243.123C308.424 243.182 308.061 244.521 307.944 244.746C307.105 246.11 302.364 247.468 300.204 248.075C285.125 252.3 269.432 254.49 254.116 257.556C243.625 259.664 233.179 261.922 222.781 264.5C217.307 265.854 211.86 267.319 206.449 268.864C204.878 269.321 202.809 269.592 201.441 270.492C199.88 271.555 198.5 273.656 197.321 275.129C185.834 289.195 177.847 306.065 169.483 322.059C160.164 339.909 149.671 356.789 135.709 371.411C119.325 388.519 99.8782 402.549 78.4132 412.481C57.4018 422.179 35.041 428.496 13.3508 436.335C14.2015 436.65 15.0816 436.977 15.9323 437.292C13.1652 432.514 10.6745 426.902 11.3452 421.221C11.6393 418.717 7.72941 418.374 7.43534 420.877C6.73324 427.183 9.2772 433.552 12.3608 438.916C12.9311 439.898 13.859 440.275 14.9423 439.873C35.088 432.6 55.7425 426.656 75.3976 418.096C95.3345 409.407 113.498 397.581 129.532 382.856C145.187 368.526 157.97 351.591 168.089 332.931C177.14 316.254 185.108 298.807 196.052 283.234C198.362 279.97 201.211 274.895 204.998 273.318C210.312 271.134 216.468 270.099 222.033 268.678C232.852 265.955 243.778 263.573 254.726 261.4C270.621 258.214 287.073 256.138 302.605 251.41C305.428 250.546 309.832 249.466 311.338 246.573C312.26 244.805 312.906 242.163 311.381 240.426C309.58 238.352 306.104 238.369 303.616 238.419C298.839 238.524 294.097 239.346 289.432 240.23C262.181 245.337 235.779 254.277 208.561 259.565C206.119 260.033 203.658 260.461 201.19 260.819C201.964 261.34 202.698 261.88 203.472 262.402C202.495 253.966 204.458 245.248 206.717 237.174C209.291 227.979 212.668 219.047 216.298 210.243C224.324 190.841 233.423 171.602 246.015 154.73C252.047 146.649 263.219 138.831 263.712 127.959C263.796 126.382 262.35 125.512 260.967 126.004C251.545 129.278 244.553 138.511 238.927 146.308C231.202 156.978 224.256 168.338 217.936 179.898C203.55 206.288 192.682 234.351 180.878 261.966C168.794 290.248 155.382 317.703 137.109 342.519C122.71 362.104 104.235 378.37 83.1897 390.501C59.5578 404.119 33.4584 412.601 6.98645 418.668C4.55157 419.206 5.19146 423.061 7.6666 422.504Z" fill="#DBD0D3"/>
<path d="M223.346 257.843C222.608 242.461 230.608 227.807 240.714 216.746C251.148 205.338 265.305 195.947 280.715 193.351C288.903 191.964 296.907 193.055 304.55 196.29C314.349 200.458 323.046 205.892 334.106 204.498C343.972 203.264 353.264 199.439 362.96 197.405C370.371 195.864 378.116 195.854 385.484 197.58C398.981 200.773 410.853 210.064 414.708 223.787C419.278 240.085 413.47 258.635 398.497 267.255C391.627 271.207 383.851 273.282 376.099 274.663C368.098 276.086 359.767 276.147 352.125 279.21C337.907 284.894 331.935 299.028 320.788 308.396C305.134 321.554 280.668 320.86 262.574 313.953C252.985 310.298 243.555 304.324 237.894 295.56C232.271 286.877 230.434 276.348 225.466 267.338C224.244 265.143 220.672 266.767 221.924 268.972C226.539 277.316 228.479 286.845 233.145 295.14C237.848 303.515 245.202 309.691 253.596 314.142C270.247 322.96 290.955 325.242 308.924 319.341C317.047 316.69 323.673 311.776 329.328 305.431C334.53 299.588 338.832 292.841 344.974 287.882C352.634 281.71 361.453 280.691 370.836 279.412C379.204 278.259 387.64 276.563 395.413 273.146C411.632 266.026 420.434 251.099 420.03 233.464C419.677 218.393 411.504 205.247 398.268 198.197C383.223 190.176 367.262 191.831 351.469 196.361C345.948 197.933 340.395 199.593 334.711 200.434C328.042 201.413 322.13 199.992 316.034 197.263C306.894 193.206 298.314 188.719 288.052 188.768C272.146 188.835 256.9 196.751 245.089 207.012C233.124 217.417 223.184 231.453 220.194 247.261C219.482 250.984 219.305 254.703 219.483 258.454C219.621 261.051 223.488 260.34 223.346 257.843Z" fill="#DBD0D3"/>
<path d="M244.31 255.027C249.265 235.894 266.813 222.399 281.08 210.101C282.988 208.464 280.519 205.404 278.6 207.071C263.853 219.762 245.78 233.865 240.643 253.668C240.015 256.081 243.671 257.47 244.31 255.027Z" fill="#DBD0D3"/>
<path d="M309.773 244.854C337.203 236.832 367.217 242.094 393.515 229.565C395.791 228.466 394.17 224.917 391.894 226.016C365.947 238.408 336.182 233.104 309.092 241.018C306.713 241.677 307.342 245.561 309.773 244.854Z" fill="#DBD0D3"/>
<path d="M312.469 240.461C316.271 224.082 334.762 219.111 348.976 215.871C351.422 215.304 350.782 211.449 348.307 212.005C332.775 215.561 312.93 221.303 308.802 239.102C308.233 241.537 311.889 242.926 312.469 240.461Z" fill="#DBD0D3"/>
<path d="M202.629 214.355C196.692 209.039 193.696 200.827 191.706 193.323C189.679 185.738 188.468 177.752 188.342 169.901C188.179 161.968 188.811 153.962 190.052 146.114C191.245 138.483 193.086 130.456 197.41 123.919C201.107 118.355 205.561 114.982 212.264 114.451C218.52 113.956 224.9 114.746 231.029 113.065C242.667 109.842 248.315 99.3734 252.927 89.0906C258.57 76.4765 264.216 63.7633 278.276 58.9584C291.863 54.347 307.31 56.421 319.484 63.8141C331.27 70.9961 340.905 83.98 341.186 98.254C341.417 109.695 332.848 116.97 324.985 123.871C316.172 131.625 308.369 140.256 308.8 152.777C309.082 160.117 311.824 166.761 314.424 173.52C315.442 176.175 316.641 179.332 315.523 182.168C313.856 186.306 308.568 188.601 304.883 190.35C302.618 191.42 304.228 194.998 306.504 193.899C312.081 191.276 319.351 187.505 319.879 180.499C320.3 174.592 316.468 168.817 314.754 163.358C312.601 156.564 311.674 149.253 314.441 142.507C316.615 137.183 320.74 132.984 324.922 129.174C332.977 121.842 342.646 114.84 344.694 103.373C347.097 89.9597 339.44 75.5987 329.9 66.7701C319.324 56.9547 304.675 51.8267 290.287 52.6575C275.254 53.5173 263.095 60.6677 255.757 73.8931C249.696 84.8448 246.542 100.827 234.762 107.314C223.245 113.63 208.543 106.305 198.505 116.285C192.435 122.31 189.393 130.427 187.527 138.613C185.309 148.376 184.386 158.519 184.448 168.524C184.507 177.457 185.772 186.467 188.19 195.068C190.5 203.327 193.877 211.68 200.373 217.471C202.224 219.229 204.483 216.013 202.629 214.355Z" fill="#DBD0D3"/>
<path d="M301.296 87.5896C302.155 121.372 276.75 155.436 241.924 157.937C239.422 158.115 240.091 161.981 242.593 161.803C278.998 159.184 306.12 123.277 305.188 87.893C305.134 85.4277 301.235 85.0545 301.296 87.5896Z" fill="#DBD0D3"/>
<path d="M281.18 85.962C276.637 100.558 269.386 114.452 260.173 126.614C258.658 128.632 261.818 130.908 263.363 128.902C272.802 116.489 280.254 102.234 284.887 87.3025C285.573 84.9106 281.906 83.5515 281.18 85.962Z" fill="#DBD0D3"/>
<path d="M228.259 121.887C225.669 127.526 225.22 133.958 225.623 140.071C226.005 145.974 227.328 152.125 230.21 157.314C231.432 159.508 234.974 157.873 233.752 155.679C231.095 150.875 229.919 145.314 229.503 139.867C229.071 134.28 229.58 128.406 231.926 123.246C232.986 120.926 229.308 119.596 228.259 121.887Z" fill="#DBD0D3"/>
<path d="M202.595 135.856C201.297 145.391 201.256 155.224 202.632 164.745C203.933 173.836 206.621 183.508 213.02 190.369C214.739 192.212 217.767 189.716 216.047 187.873C209.935 181.32 207.589 172.076 206.402 163.395C205.166 154.395 205.286 145.161 206.487 136.16C206.839 133.677 202.929 133.334 202.595 135.856Z" fill="#DBD0D3"/>
<path d="M291.003 168.926C282.743 176.718 271.977 181.638 261.008 184.138C250.737 186.461 239.418 187.023 229.513 183.05C227.188 182.121 225.824 185.803 228.149 186.732C238.688 190.973 250.777 190.496 261.706 188.014C273.324 185.386 284.752 180.209 293.513 171.966C295.314 170.256 292.845 167.197 291.003 168.926Z" fill="#DBD0D3"/>
<path d="M267.631 166.628C261.022 171.046 257.31 177.91 253.785 184.811C253.296 185.769 254.047 186.985 254.927 187.311C256.012 187.713 256.974 187.098 257.422 186.159C260.66 179.855 264.08 173.687 270.082 169.647C270.963 169.069 270.993 167.64 270.375 166.875C269.663 166.008 268.523 166.021 267.631 166.628Z" fill="#DBD0D3"/>
<path d="M281.314 113.145C281.311 121.886 280.454 130.68 281.392 139.402C281.662 141.914 285.518 141.233 285.248 138.721C284.358 130.318 285.213 121.892 285.206 113.448C285.203 112.375 284.552 111.431 283.427 111.315C282.449 111.254 281.312 112.072 281.314 113.145Z" fill="#DBD0D3"/>
<path d="M260.42 92.6389C262.317 101.114 264.215 109.588 266.112 118.063C266.671 120.515 270.516 119.863 269.968 117.382C268.071 108.907 266.173 100.432 264.276 91.9578C263.746 89.5169 259.872 90.1578 260.42 92.6389Z" fill="#DBD0D3"/>
</svg>
