<svg width="125" height="129" viewBox="0 0 125 129" fill="none" xmlns="http://www.w3.org/2000/svg">
<path d="M81.9532 80.2855C87.7047 72.1359 92.8824 62.4138 93.2897 52.2673C93.6823 42.6435 88.5424 34.6662 80.0074 30.3103C72.24 26.3441 63.0915 25.075 54.4403 24.7474C44.7696 24.382 34.7731 25.2447 25.4613 28.0649C18.873 30.0732 11.8451 33.155 8.75026 39.7234C6.03762 45.4563 7.13117 52.0453 9.17145 57.7719C11.6508 64.7548 15.6758 71.1561 20.0393 77.106C24.1138 82.7003 28.6038 88.4359 33.8049 93.0229C40.4951 98.927 49.1771 102.123 58.0528 99.5534C68.2785 96.5932 75.0818 88.3892 82.0378 80.8935C82.971 79.8849 81.5632 78.2607 80.6144 79.2769C74.7091 85.6494 69.0821 92.5928 60.934 96.2206C53.9132 99.3562 46.339 98.8282 39.824 94.8244C33.8995 91.1628 29.3317 85.4652 25.0302 80.077C20.8506 74.8203 16.9612 69.2503 13.92 63.2478C11.157 57.8161 8.7376 51.5487 9.40115 45.3253C10.0984 38.8944 14.6835 34.712 20.3824 32.1825C28.2585 28.6682 37.1793 27.3369 45.7013 26.9256C54.5249 26.501 63.6521 27.0549 72.1272 29.5496C81.5646 32.32 90.0521 38.4747 91.0477 48.8921C92.0847 59.6712 86.173 70.5339 80.1534 79.0816C79.3495 80.2372 81.1419 81.4257 81.9532 80.2855Z" fill="#D3CBCF"/>
<path d="M82.0457 80.9088C83.7802 78.9368 85.8991 77.1212 88.5412 76.6163C90.7262 76.2005 92.9363 76.7844 94.9019 77.7358C99.4932 79.9659 103.19 83.7969 107.096 86.9911C109.121 88.6579 111.233 90.2638 113.684 91.303C113.832 90.6197 113.973 89.921 114.114 89.2222C103.35 87.404 89.466 89.4167 82.5568 79.1131C81.7916 77.9776 80.1727 79.3968 80.9224 80.5398C88.2257 91.4151 102.611 89.4442 113.946 91.3663C115.226 91.5826 115.436 89.7233 114.391 89.2779C109.696 87.2701 106.004 83.1316 102.105 79.9912C98.3359 76.9594 93.6888 73.7063 88.5552 74.4327C85.3496 74.8877 82.6942 76.9457 80.6068 79.2998C79.7041 80.3316 81.1119 81.9558 82.0457 80.9088Z" fill="#D3CBCF"/>
<path d="M81.3267 82.0421C86.7816 87.861 91.0815 95.6559 89.4406 103.864C90.0007 103.591 90.5608 103.318 91.1209 103.045C87.4639 100.875 84.9184 97.075 83.2622 93.2425C81.606 89.4099 80.5708 84.7973 81.9474 80.7084C82.3826 79.3889 80.3516 78.6985 79.9165 80.0181C78.3946 84.5596 79.401 89.5872 81.19 93.8897C82.9796 98.1537 85.8585 102.44 89.9299 104.829C90.6814 105.264 91.4448 104.816 91.6103 104.01C93.3588 95.2715 88.7666 86.798 82.9767 80.6078C82.0086 79.6094 80.3742 81.0361 81.3267 82.0421Z" fill="#D3CBCF"/>
<path d="M82.0649 80.04C86.8341 67.9393 101.315 62.9243 112.809 68.4535C112.686 67.8452 112.563 67.237 112.463 66.6366C110.31 68.698 108.378 70.9762 106.217 73.0222C104.182 74.969 101.828 77.0137 98.9256 77.34C97.5401 77.4998 97.9446 79.5939 99.3221 79.4572C105.514 78.7686 109.768 72.2081 113.902 68.2456C114.528 67.6347 114.285 66.7796 113.555 66.4287C100.963 60.3846 85.2261 66.2599 80.0571 79.3575C79.5296 80.6456 81.5605 81.336 82.0649 80.04Z" fill="#D3CBCF"/>
<path d="M85.9375 48.4808C84.4537 47.3328 82.5877 47.0203 80.792 46.6545C80.5376 46.6066 80.1878 46.758 80 46.9259C79.8123 47.0938 79.6461 47.3848 79.6424 47.6539C79.6308 47.946 79.6964 48.2386 79.91 48.44C80.1157 48.6643 80.3465 48.7428 80.6395 48.7909C80.5778 48.7828 80.3389 48.7274 80.6395 48.7909C80.7012 48.799 80.7704 48.8226 80.8322 48.8307C80.94 48.8545 81.0635 48.8707 81.1713 48.8945C81.3871 48.9421 81.6184 48.9821 81.8417 49.0451C82.2345 49.14 82.6274 49.2349 83.0122 49.3529C83.1893 49.4002 83.3584 49.4706 83.5274 49.5409C83.6042 49.5799 83.6965 49.6112 83.7733 49.6502C83.8194 49.6659 83.8656 49.6816 83.8962 49.7049C84.0728 49.7906 83.6428 49.5801 83.8194 49.6659C84.157 49.845 84.4635 50.0393 84.762 50.2566C85.1979 50.5979 85.9808 50.4264 86.2655 49.9439C86.5583 49.4384 86.4195 48.8377 85.9375 48.4808Z" fill="#D3CBCF"/>
<path d="M76.0737 66.9591C75.0486 66.7523 74.0723 66.3689 73.1276 65.9319C73.074 65.9008 73.0278 65.8851 72.9741 65.854C73.1046 65.9241 73.0509 65.893 72.951 65.8462C72.8281 65.7915 72.7208 65.7293 72.5979 65.6746C72.3676 65.5577 72.1298 65.4254 71.9151 65.3009C71.4395 65.0363 70.9564 64.7562 70.4733 64.4762C69.9902 64.1961 69.2862 64.2528 68.9698 64.7889C68.6776 65.2559 68.7375 65.9714 69.2743 66.2826C71.1991 67.3874 73.1697 68.5464 75.3738 68.9996C75.6743 69.0632 75.9137 69.0802 76.1937 68.9437C76.4271 68.8299 76.6701 68.5778 76.743 68.3323C76.8812 67.8257 76.6517 67.0784 76.0737 66.9591Z" fill="#D3CBCF"/>
<path d="M60.1302 87.1039C59.9139 87.0948 59.6976 87.0856 59.4814 87.0765C59.381 87.0681 59.2807 87.0597 59.1728 87.0359C59.1111 87.0278 59.0649 87.0121 59.0032 87.004C58.9645 87.0038 58.7874 86.9564 58.9801 86.9962C59.1728 87.0359 58.9957 86.9886 58.957 86.9883C58.8953 86.9802 58.8492 86.9645 58.7874 86.9564C58.6796 86.9326 58.5642 86.8934 58.4563 86.8696C58.2561 86.8144 58.064 86.7362 57.8718 86.658C57.772 86.6112 57.6797 86.5799 57.5798 86.533C57.4263 86.4551 57.5798 86.533 57.6491 86.5566C57.5954 86.5255 57.5492 86.5098 57.4956 86.4787C57.3114 86.3775 57.1198 86.2608 56.9282 86.1442C56.7365 86.0276 56.553 85.8879 56.3769 85.7637C56.2776 85.6785 56.1858 85.6086 56.0865 85.5234C56.0177 85.4614 55.9114 85.3223 56.094 85.5388C56.0483 85.4847 55.9947 85.4536 55.949 85.3994C55.7353 85.1981 55.5131 85.0582 55.2196 85.0485C54.9572 85.0237 54.6234 85.129 54.4276 85.3199C54.0516 85.6941 53.8872 86.4235 54.3221 86.8416C55.1542 87.6007 56.0577 88.2297 57.1027 88.675C58.0017 89.0578 58.9806 89.249 59.9466 89.2555C60.5106 89.267 61.0878 88.8711 61.1192 88.2639C61.1345 87.7028 60.7328 87.1157 60.1302 87.1039Z" fill="#D3CBCF"/>
<path d="M68.8284 52.3709C67.1377 51.6674 65.3853 50.9559 63.5076 50.9355C62.9436 50.924 62.3664 51.3199 62.335 51.9271C62.3122 52.4728 62.7214 53.0753 63.324 53.0871C63.7646 53.0824 64.1966 53.1391 64.6361 53.2113C64.6747 53.2116 64.7209 53.2273 64.7671 53.2429C64.4816 53.2103 64.6592 53.2192 64.7209 53.2273C64.8288 53.2511 64.9367 53.2749 65.0445 53.2987C65.2603 53.3462 65.468 53.4169 65.6682 53.472C66.507 53.7314 67.3062 54.0675 68.1054 54.4035C68.6202 54.63 69.3284 54.2657 69.4746 53.7362C69.668 53.1454 69.3893 52.613 68.8284 52.3709Z" fill="#D3CBCF"/>
<path d="M57.8544 68.9275C56.2513 68.6014 54.7227 67.9144 53.2166 67.2737C52.6863 67.0549 51.9937 67.4116 51.8474 67.9411C51.6695 68.5242 51.9558 69.0721 52.5092 69.2988C54.0077 69.9241 55.5364 70.611 57.147 70.9526C57.4475 71.0161 57.6869 71.0331 57.9669 70.8966C58.2003 70.7828 58.4433 70.5308 58.5161 70.2852C58.597 70.0166 58.6012 69.7091 58.4653 69.4698C58.3525 69.2384 58.1318 68.9832 57.8544 68.9275Z" fill="#D3CBCF"/>
<path d="M61.2005 38.0638C58.3566 37.4833 55.5866 36.5803 52.7428 35.9998C52.1878 35.8884 51.544 36.0685 51.3736 36.6671C51.2123 37.1658 51.4418 37.9132 52.0354 38.0248C54.8792 38.6054 57.6492 39.5083 60.4931 40.0889C61.048 40.2003 61.6919 40.0201 61.8622 39.4215C62.008 38.9304 61.7785 38.1831 61.2005 38.0638Z" fill="#D3CBCF"/>
<path d="M49.9493 54.5652C48.4617 54.2783 46.9312 54.2987 45.4435 54.0118C45.1891 53.964 44.8393 54.1154 44.6516 54.2833C44.4638 54.4511 44.2976 54.7422 44.294 55.0113C44.2823 55.3034 44.3479 55.596 44.5616 55.7973C44.7672 56.0217 44.998 56.1002 45.2911 56.1483C46.7787 56.4352 48.3092 56.4148 49.7969 56.7016C50.0512 56.7495 50.4011 56.5981 50.5888 56.4302C50.7765 56.2623 50.9428 55.9713 50.9464 55.7022C50.9581 55.4101 50.8924 55.1175 50.6788 54.9161C50.4576 54.6993 50.2423 54.6133 49.9493 54.5652Z" fill="#D3CBCF"/>
<path d="M41.4789 77.0052C39.5771 75.9082 37.5804 74.972 35.7735 73.7142C35.3065 73.3881 34.5703 73.5369 34.27 74.027C33.9617 74.54 34.0613 75.1789 34.5745 75.5207C36.3969 76.7709 38.378 77.7147 40.2798 78.8117C40.7629 79.0917 41.467 79.035 41.7833 78.4989C42.0525 78.024 41.9926 77.3086 41.4789 77.0052Z" fill="#D3CBCF"/>
<path d="M41.0324 44.2475C39.0901 43.8576 37.2529 43.1301 35.3031 42.7248C35.0026 42.6612 34.7632 42.6442 34.4832 42.7807C34.2498 42.8945 34.0068 43.1466 33.934 43.3921C33.7727 43.8908 34.0022 44.6382 34.5957 44.7498C36.538 45.1397 38.3752 45.8672 40.325 46.2726C40.6255 46.3361 40.8649 46.3531 41.1449 46.2166C41.3783 46.1029 41.6213 45.8508 41.6941 45.6052C41.8399 45.1141 41.6104 44.3667 41.0324 44.2475Z" fill="#D3CBCF"/>
<path d="M34.6892 62.4426C32.845 61.6613 31.0002 60.9183 29.1083 60.2366C28.5775 60.0562 27.8934 60.3514 27.7391 60.9039C27.5693 61.4641 27.8395 62.0579 28.4009 62.2617C30.2853 62.928 32.1376 63.6863 33.9818 64.4677C34.5121 64.6866 35.2047 64.3299 35.351 63.8003C35.5289 63.2172 35.2426 62.6694 34.6892 62.4426Z" fill="#D3CBCF"/>
<path d="M23.2341 45.9343C21.5896 45.2466 19.9681 44.5667 18.3391 43.8713C17.8088 43.6524 17.1162 44.0091 16.9699 44.5387C16.7921 45.1218 17.0783 45.6697 17.6317 45.8964C19.2607 46.5917 20.8977 47.264 22.5267 47.9594C23.057 48.1783 23.7497 47.8216 23.8959 47.292C24.0813 46.7243 23.795 46.1765 23.2341 45.9343Z" fill="#D3CBCF"/>
<path d="M29.0954 35.4401C28.6549 35.4448 28.2228 35.388 27.7833 35.3159C27.7447 35.3156 27.6985 35.2999 27.6524 35.2842C27.9379 35.3169 27.7602 35.308 27.6985 35.2999C27.5906 35.2761 27.4828 35.2523 27.3749 35.2285C27.1591 35.1809 26.9514 35.1103 26.7513 35.0551C25.9124 34.7957 25.1132 34.4597 24.314 34.1237C23.7837 33.9048 23.0911 34.2615 22.9448 34.791C22.7669 35.3741 23.0532 35.922 23.6066 36.1487C25.2973 36.8522 27.0497 37.5637 28.9274 37.5841C29.4914 37.5956 30.0686 37.1997 30.1 36.5925C30.0997 36.0389 29.6905 35.4364 29.0954 35.4401Z" fill="#D3CBCF"/>
<path d="M22.3804 61.7207C21.8024 61.6015 21.233 61.4208 20.6957 61.148C20.7724 61.187 20.8648 61.2184 20.949 61.2728C20.2888 60.9454 19.6763 60.5183 19.103 60.0531C18.9119 59.8981 18.5571 59.8418 18.3092 59.8863C18.0458 59.9383 17.7496 60.1209 17.6075 60.3429C17.473 60.5803 17.3765 60.8565 17.4346 61.1337C17.5002 61.4263 17.6597 61.635 17.8889 61.8287C19.013 62.7129 20.2551 63.444 21.6655 63.7304C21.9661 63.7939 22.2054 63.8109 22.4855 63.6744C22.7188 63.5607 22.9618 63.3086 23.0347 63.063C23.1156 62.7945 23.1197 62.4869 22.9839 62.2477C22.8786 62.0317 22.6579 61.7764 22.3804 61.7207Z" fill="#D3CBCF"/>
<path d="M47.7697 91.3337C45.9255 90.5523 44.1692 89.5563 42.1888 89.1277C41.8883 89.0641 41.6489 89.0471 41.3689 89.1836C41.1355 89.2974 40.8925 89.5495 40.8196 89.795C40.6584 90.2937 40.8879 91.0411 41.4814 91.1527C43.4698 91.5583 45.2181 92.5774 47.0623 93.3588C47.5771 93.5852 48.2852 93.221 48.4315 92.6914C48.6249 92.1007 48.3306 91.5758 47.7697 91.3337Z" fill="#D3CBCF"/>
<path d="M75.8221 35.787C74.5338 35.0402 73.0964 34.4614 71.6168 34.1516C71.3163 34.088 71.0769 34.071 70.7969 34.2075C70.5635 34.3213 70.3205 34.5734 70.2477 34.8189C70.1667 35.0875 70.1626 35.395 70.2985 35.6343C70.4268 35.8581 70.6475 36.1133 70.9094 36.1766C72.0654 36.4151 73.1727 36.8301 74.2167 37.3523C74.1399 37.3134 74.0476 37.282 73.9633 37.2276C74.1861 37.3291 74.3933 37.4381 74.608 37.5626C74.8533 37.7103 75.1152 37.7736 75.4017 37.7294C75.6652 37.6774 75.9613 37.4949 76.1034 37.2729C76.3957 36.8058 76.3358 36.0903 75.8221 35.787Z" fill="#D3CBCF"/>
<path d="M82.8946 80.4376C86.2265 81.5058 89.6056 82.5128 92.833 83.8802C93.3633 84.0991 94.0328 83.7346 94.2021 83.2129C94.4031 82.6376 94.0707 82.0741 93.5404 81.8552C90.2974 80.4954 86.9414 79.4962 83.5864 78.4201C83.0401 78.2472 82.4102 78.5351 82.2173 79.0874C82.0399 79.6321 82.3327 80.2723 82.8946 80.4376Z" fill="#D3CBCF"/>
</svg>
