<svg width="119" height="29" viewBox="0 0 119 29" fill="none" xmlns="http://www.w3.org/2000/svg">
<path d="M23.5566 2.33789C23.9199 1.5293 24.1777 1.125 24.3301 1.125H24.418C24.5938 1.125 24.9512 1.3125 25.4902 1.6875C26.0293 2.0625 26.2988 2.41406 26.2988 2.74219C26.2988 3.19922 24.7988 6.73828 21.7988 13.3594C18.7988 19.9805 17.0762 23.6953 16.6309 24.5039C16.1973 25.3008 15.8984 25.834 15.7344 26.1035C15.5703 26.373 15.3477 26.6719 15.0664 27C14.5625 27.6211 13.9355 27.9316 13.1855 27.9316C12.8809 27.9316 12.6113 27.9668 12.377 28.0371C12.1426 28.1191 12.002 28.1602 11.9551 28.1602C11.5801 28.1602 11.3926 28.0723 11.3926 27.8965C11.3926 27.8613 11.4395 27.7148 11.5332 27.457C11.6387 27.2109 12.9805 24.3691 15.5586 18.9316C12.8047 18.8262 10.3848 18.7441 8.29883 18.6855C6.29492 21.2051 4.47852 23.8418 2.84961 26.5957C2.65039 26.9824 2.46289 27.252 2.28711 27.4043C2.11133 27.5684 1.87109 27.6504 1.56641 27.6504C1.26172 27.6504 0.933594 27.4922 0.582031 27.1758C0.230469 26.8711 0.0546875 26.5137 0.0546875 26.1035C0.0546875 24.9316 1.56641 22.4238 4.58984 18.5801C3.17188 18.5801 2.26953 18.6152 1.88281 18.6855C1.50781 18.7559 1.26758 18.791 1.16211 18.791C0.845703 18.791 0.6875 18.5273 0.6875 18C0.6875 17.4609 0.998047 16.9922 1.61914 16.5938C2.25195 16.1836 3.0957 15.9785 4.15039 15.9785C4.23242 15.9785 4.37891 15.9727 4.58984 15.9609C5.31641 15.9258 6.06055 15.8965 6.82227 15.873C9.37695 12.873 12.0488 10.0898 14.8379 7.52344C17.627 4.95703 20.041 3.1582 22.0801 2.12695C22.4082 1.96289 22.666 1.88672 22.8535 1.89844C23.0527 1.89844 23.2871 2.04492 23.5566 2.33789ZM22.3262 4.81641C18.0488 8.0625 14.1406 11.748 10.6016 15.873C12.6758 15.9199 14.7734 16.0078 16.8945 16.1367C19.0273 11.6484 20.8379 7.875 22.3262 4.81641ZM35.7207 1.91602C33.248 5.63086 30.8398 9.51562 28.4961 13.5703C29.0352 13.2891 29.6387 13.0898 30.3066 12.9727C30.9863 12.8438 31.4609 12.7793 31.7305 12.7793C32.0117 12.7793 32.252 12.791 32.4512 12.8145C32.6504 12.8262 32.9023 12.8906 33.207 13.0078C33.5234 13.1133 33.793 13.2656 34.0156 13.4648C34.5547 13.9453 34.8242 14.625 34.8242 15.5039C34.8242 16.3828 34.584 17.3496 34.1035 18.4043C33.6348 19.4473 32.9902 20.4961 32.1699 21.5508C31.3613 22.6055 30.4707 23.5898 29.498 24.5039C28.5371 25.4062 27.5 26.1445 26.3867 26.7188C25.2734 27.293 24.2363 27.5801 23.2754 27.5801C22.8301 27.5801 22.3145 27.293 21.7285 26.7188C21.1543 26.1445 20.8672 25.3887 20.8672 24.4512C20.8672 23.5137 21.2715 22.0605 22.0801 20.0918C22.8887 18.123 23.8672 16.125 25.0156 14.0977C26.1758 12.0586 27.3535 10.0723 28.5488 8.13867C29.7559 6.20508 30.7812 4.62305 31.625 3.39258C32.4688 2.16211 32.9844 1.45313 33.1719 1.26562C33.3594 1.07812 33.6992 0.919922 34.1914 0.791016C34.6953 0.662109 35.1289 0.603516 35.4922 0.615234C35.8555 0.615234 36.0371 0.779297 36.0371 1.10742C36.0371 1.31836 35.9316 1.58789 35.7207 1.91602ZM30.9746 18.791C31.4551 17.9473 31.6953 17.1797 31.6953 16.4883C31.6953 15.7969 31.4727 15.4512 31.0273 15.4512C30.5938 15.4512 29.9199 15.6445 29.0059 16.0312C28.1035 16.4062 27.5879 16.5938 27.459 16.5938C27.3301 16.5938 27.1602 16.4883 26.9492 16.2773C24.6641 20.3906 23.5215 23.0156 23.5215 24.1523C23.5215 24.6797 23.6914 24.9434 24.0312 24.9434C24.8398 24.9434 26.0059 24.2695 27.5293 22.9219C29.0527 21.5625 30.2012 20.1855 30.9746 18.791ZM46.6191 13.6055C46.9707 13.6055 47.3281 13.7637 47.6914 14.0801C48.0664 14.3965 48.2539 14.8828 48.2539 15.5391C48.2539 16.1836 48.0254 17.0273 47.5684 18.0703C47.1113 19.1016 46.4844 20.1562 45.6875 21.2344C44.8906 22.3008 44.0117 23.3086 43.0508 24.2578C42.1016 25.1953 41.0703 25.9688 39.957 26.5781C38.8555 27.1758 37.8535 27.4746 36.9512 27.4746C36.0488 27.4746 35.3223 27.1934 34.7715 26.6309C34.2324 26.0566 33.9629 25.2656 33.9629 24.2578C33.9629 23.2383 34.209 22.1133 34.7012 20.8828C35.2051 19.6523 35.8496 18.5684 36.6348 17.6309C37.4199 16.6816 38.2695 15.832 39.1836 15.082C41.0938 13.5469 42.7695 12.7793 44.2109 12.7793C44.8555 12.7793 45.3418 12.9375 45.6699 13.2539C45.7871 13.3594 45.8457 13.4531 45.8457 13.5352V13.6406C46.0098 13.6172 46.2676 13.6055 46.6191 13.6055ZM44.8438 15.9434H44.7207C44.3105 15.9434 44.1055 15.6445 44.1055 15.0469C43.25 15.3281 42.3535 15.8203 41.416 16.5234C40.4785 17.2266 39.6406 18.0586 38.9023 19.0195C37.4023 20.9414 36.6406 22.5645 36.6172 23.8887C36.6172 24.5449 36.8574 24.873 37.3379 24.873C37.8184 24.873 38.5332 24.5566 39.4824 23.9238C40.4316 23.291 41.3691 22.3887 42.2949 21.2168C43.2324 20.0449 43.9297 19.0312 44.3867 18.1758C44.8555 17.3086 45.0898 16.7227 45.0898 16.418C45.0898 16.1016 45.0078 15.9434 44.8438 15.9434ZM62.7559 21.4805C62.9785 21.4805 63.1133 21.6504 63.1602 21.9902C63.207 22.3301 63.2305 22.6816 63.2305 23.0449C63.2305 23.4082 63.1953 23.6602 63.125 23.8008C62.7852 24.457 62.041 25.2598 60.8926 26.209C59.7441 27.1465 58.6543 27.6152 57.623 27.6152C56.9902 27.6152 56.4043 27.4219 55.8652 27.0352C55.3262 26.6602 55.0566 25.998 55.0566 25.0488C55.0566 24.0996 55.3086 23.168 55.8125 22.2539C52.9062 25.8984 50.627 27.7207 48.9746 27.7207C48.3184 27.7207 47.7852 27.4863 47.375 27.0176C46.9766 26.5488 46.7773 26.0684 46.7773 25.5762C46.7773 25.0723 46.8477 24.5566 46.9883 24.0293C47.1289 23.4902 47.2754 23.0098 47.4277 22.5879C47.5918 22.166 47.8262 21.6445 48.1309 21.0234C48.4473 20.4023 48.6816 19.9512 48.834 19.6699C48.9863 19.3887 49.2266 18.9668 49.5547 18.4043C49.8945 17.8301 50.334 17.0625 50.873 16.1016C51.4238 15.1406 51.875 14.4316 52.2266 13.9746C52.5898 13.5059 52.9414 13.2715 53.2812 13.2715C53.6211 13.2598 53.9199 13.3945 54.1777 13.6758C54.4355 13.957 54.5645 14.1855 54.5645 14.3613C54.5645 14.5371 54.1719 15.3281 53.3867 16.7344C51.0664 20.9297 49.9062 23.373 49.9062 24.0645C49.9062 24.2402 49.9707 24.3281 50.0996 24.3281C50.6621 24.3281 52.0625 23.1094 54.3008 20.6719C56.5391 18.2344 57.834 16.6758 58.1855 15.9961C58.5371 15.3047 58.877 14.7246 59.2051 14.2559C59.5449 13.7871 59.7969 13.5 59.9609 13.3945C60.4648 13.0664 61.1152 12.8906 61.9121 12.8672C62.041 12.8672 62.1406 12.873 62.2109 12.8848C62.2812 12.8965 62.3633 12.9961 62.457 13.1836C62.5508 13.3711 62.5977 13.5176 62.5977 13.623C62.4922 13.9512 62.0234 14.8242 61.1914 16.2422C60.3711 17.6602 59.9141 18.4629 59.8203 18.6504C58.4375 21.5098 57.7461 23.373 57.7461 24.2402C57.7461 24.7324 57.9336 24.9785 58.3086 24.9785C58.9883 24.8848 59.8086 24.3398 60.7695 23.3438C61.1211 22.9805 61.4668 22.6113 61.8066 22.2363C62.1582 21.8613 62.375 21.6445 62.457 21.5859C62.5391 21.5156 62.6387 21.4805 62.7559 21.4805ZM74.1992 4.35938L74.9199 4.53516C75.0254 4.53516 75.1191 4.58789 75.2012 4.69336C75.2832 4.79883 75.3242 4.89844 75.3242 4.99219C75.3242 5.08594 75.2012 5.33789 74.9551 5.74805C74.709 6.1582 74.416 6.62695 74.0762 7.1543C73.748 7.66992 73.5723 7.95117 73.5488 7.99805C74.4629 7.92773 75.1074 7.89258 75.4824 7.89258C75.8691 7.89258 76.1328 7.92188 76.2734 7.98047C76.4141 8.02734 76.5723 8.17383 76.748 8.41992C76.9355 8.6543 77.1055 8.83594 77.2578 8.96484C77.4102 9.08203 77.4863 9.26367 77.4863 9.50977C77.4863 9.75586 77.334 9.9668 77.0293 10.1426C76.7363 10.3066 76.4199 10.4062 76.0801 10.4414C73.3613 10.7109 71.8613 10.8516 71.5801 10.8633C70.6309 12.3164 69.3008 14.584 67.5898 17.666C65.8906 20.7363 64.9883 22.6582 64.8828 23.4316C64.8359 23.7832 64.8125 24.0703 64.8125 24.293C64.8125 24.75 65.0527 24.9785 65.5332 24.9785C66.0137 24.9785 66.5469 24.7969 67.1328 24.4336C67.7188 24.0586 68.2578 23.6543 68.75 23.2207C70.0625 22.0488 70.7656 21.4629 70.8594 21.4629C71.1641 21.4629 71.3164 21.9902 71.3164 23.0449C71.3164 23.6191 71.0527 24.1348 70.5254 24.5918C69.3418 25.6113 68.3457 26.3789 67.5371 26.8945C66.7285 27.4102 65.9199 27.668 65.1113 27.668C64.9355 27.668 64.7715 27.6504 64.6191 27.6152C63.6816 27.4395 62.9902 27.0996 62.5449 26.5957C62.1113 26.0801 61.8945 25.3887 61.8945 24.5215C61.9062 23.6543 62.1641 22.6055 62.668 21.375C63.1836 20.1328 63.8281 18.8145 64.6016 17.4199C65.8672 15.1465 67.1328 13.0137 68.3984 11.0215L67.7305 11.1094C66.3711 11.2617 65.5801 11.3379 65.3574 11.3379H65.1992C64.8594 11.3379 64.5312 11.2734 64.2148 11.1445C63.8984 11.0039 63.7402 10.834 63.7402 10.6348C63.7402 10.4355 63.8223 10.2422 63.9863 10.0547C64.1621 9.86719 64.2676 9.7207 64.3027 9.61523C64.3848 9.35742 64.6895 9.07031 65.2168 8.75391C65.7559 8.4375 66.1602 8.27344 66.4297 8.26172C66.6992 8.23828 66.957 8.2207 67.2031 8.20898C67.4609 8.19727 67.7422 8.18555 68.0469 8.17383C68.3633 8.16211 68.6035 8.15039 68.7676 8.13867L70.3496 8.06836C71.334 6.5918 72.0078 5.64258 72.3711 5.2207C72.7461 4.79883 72.9629 4.57031 73.0215 4.53516C73.0801 4.48828 73.1973 4.46484 73.373 4.46484L74.1992 4.35938ZM103.959 17.2793C104.275 17.2793 104.434 17.6953 104.434 18.5273C104.434 19.3594 104.381 19.916 104.275 20.1973C103.924 21.0996 103.104 22.1133 101.814 23.2383C100.537 24.3516 99.1309 25.3008 97.5957 26.0859C96.0723 26.8594 94.8184 27.2461 93.834 27.2461C93.3652 27.2461 92.9668 27.0645 92.6387 26.7012C92.3223 26.3379 92.1641 25.8633 92.1641 25.2773C92.1641 24.2344 92.7617 22.6406 93.957 20.4961C95.1523 18.3516 96.5996 16.1133 98.2988 13.7812C95.4746 17.0625 93.4707 19.2773 92.2871 20.4258C91.1152 21.5742 90.0664 22.5586 89.1406 23.3789C88.2148 24.1875 87.3828 24.8379 86.6445 25.3301C84.8867 26.4902 83.4922 27.0703 82.4609 27.0703C81.4297 27.0703 80.6973 26.7891 80.2637 26.2266C79.8301 25.6523 79.6133 25.0195 79.6133 24.3281C79.6133 22.3008 80.7969 19.4531 83.1641 15.7852C85.543 12.1055 87.7285 9.09961 89.7207 6.76758C88.0332 8.25586 86.8672 9 86.2227 9C85.5898 9 85.1152 8.80664 84.7988 8.41992C84.4824 8.02148 84.3242 7.57617 84.3242 7.08398C84.3242 6.58008 84.5586 6.11133 85.0273 5.67773C85.4961 5.23242 85.8359 5.00977 86.0469 5.00977C86.2695 5.00977 86.3809 5.02734 86.3809 5.0625C86.3809 5.09766 86.293 5.22656 86.1172 5.44922C85.9414 5.66016 85.8535 5.80664 85.8535 5.88867C85.8535 5.9707 85.9297 6.01172 86.082 6.01172C86.5391 6.01172 87.5352 5.54883 89.0703 4.62305C90.6055 3.69727 91.918 2.79492 93.0078 1.91602C93.3008 1.66992 93.6348 1.54688 94.0098 1.54688C94.3965 1.54688 94.7656 1.64062 95.1172 1.82812C95.1406 1.76953 95.2402 1.78125 95.416 1.86328C95.5918 1.94531 95.7676 2.07422 95.9434 2.25C96.1191 2.42578 96.207 2.58984 96.207 2.74219C96.207 2.89453 96.1602 3.03516 96.0664 3.16406C91.1914 9.46875 88.127 13.5762 86.873 15.4863C84.3301 19.3652 83.0586 21.8848 83.0586 23.0449C83.0586 23.4551 83.2285 23.6602 83.5684 23.6602C83.9199 23.6602 84.8984 23.0039 86.5039 21.6914C90.9102 18.1055 97.0859 11.7773 105.031 2.70703C105.348 2.34375 105.646 2.17383 105.928 2.19727H106.086C106.133 2.19727 106.262 2.17969 106.473 2.14453C106.695 2.09766 107.053 2.07422 107.545 2.07422C108.717 2.07422 109.303 2.29102 109.303 2.72461C109.303 2.91211 109.127 3.24023 108.775 3.70898C108.436 4.17773 107.721 5.18555 106.631 6.73242C105.541 8.2793 104.182 10.2422 102.553 12.6211C100.936 15 99.5352 17.1855 98.3516 19.1777C97.1797 21.1699 96.5938 22.4355 96.5938 22.9746C96.5938 22.9863 96.6113 22.9922 96.6465 22.9922C96.6934 22.9922 96.8809 22.9102 97.209 22.7461C98.2168 22.2188 99.3945 21.3809 100.742 20.2324C102.102 19.084 102.957 18.3047 103.309 17.8945C103.672 17.4844 103.889 17.2793 103.959 17.2793ZM105.91 23.4844L105.893 23.7656C105.893 24.0586 106.004 24.3105 106.227 24.5215C106.449 24.7324 106.654 24.8379 106.842 24.8379C108.248 24.8379 109.49 24.627 110.568 24.2051C111.658 23.7832 112.203 23.3613 112.203 22.9395C112.203 22.7402 112.004 22.5703 111.605 22.4297C111.219 22.2773 110.557 22.0957 109.619 21.8848C108.693 21.6621 108.02 21.4922 107.598 21.375C107.176 21.2461 106.842 21.1289 106.596 21.0234C106.35 20.918 106.098 20.7715 105.84 20.584C105.289 20.1973 105.014 19.623 105.014 18.8613C105.014 18.0879 105.295 17.3262 105.857 16.5762C106.432 15.8145 107.146 15.1641 108.002 14.625C108.857 14.0859 109.777 13.6113 110.762 13.2012C112.707 12.3926 114.342 11.9883 115.666 11.9883C116.967 11.9883 117.77 12.2695 118.074 12.832C118.168 13.0312 118.215 13.2539 118.215 13.5V13.623C118.215 14.2441 118.08 14.7305 117.811 15.082C117.553 15.4336 117.137 15.75 116.562 16.0312C116 16.3125 115.549 16.4531 115.209 16.4531C114.881 16.4531 114.67 16.4297 114.576 16.3828C114.494 16.3359 114.424 16.2773 114.365 16.207C114.307 16.125 114.23 16.0664 114.137 16.0312C114.055 15.9961 114.014 15.9082 114.014 15.7676C114.014 15.627 114.072 15.4863 114.189 15.3457C114.307 15.1934 114.389 15.0352 114.436 14.8711C113.662 14.9062 112.854 15.0879 112.01 15.416C111.166 15.7324 110.439 16.0898 109.83 16.4883C109.232 16.8867 108.734 17.2676 108.336 17.6309C107.938 17.9941 107.738 18.2637 107.738 18.4395C107.738 18.6035 108.008 18.7383 108.547 18.8438C110.973 19.3242 112.566 19.7402 113.328 20.0918C114.09 20.4434 114.617 20.8418 114.91 21.2871C115.203 21.7324 115.35 22.1367 115.35 22.5C115.35 23.25 115.051 23.959 114.453 24.627C113.855 25.2949 113.117 25.8398 112.238 26.2617C110.352 27.1875 108.705 27.6504 107.299 27.6504C105.904 27.6504 104.938 27.4336 104.398 27C103.871 26.5781 103.607 26.0742 103.607 25.4883C103.607 24.9023 103.754 24.3633 104.047 23.8711C104.352 23.3672 104.738 23.1152 105.207 23.1152C105.676 23.1152 105.91 23.2383 105.91 23.4844Z" fill="#7EB693"/>
</svg>
