<svg width="66" height="28" viewBox="0 0 66 28" fill="none" xmlns="http://www.w3.org/2000/svg">
<path d="M4.36914 21.4102L4.28125 21.7793C4.28125 21.8496 4.31055 21.9141 4.36914 21.9727C4.43945 22.0312 4.52148 22.0605 4.61523 22.0605C4.70898 22.0605 4.78516 22.0137 4.84375 21.9199C6.58984 19.5996 8.03711 17.5605 9.18555 15.8027C10.334 14.0332 11.1719 12.7324 11.6992 11.9004C12.2383 11.0684 12.666 10.4062 12.9824 9.91406C13.8262 8.625 14.6641 7.4707 15.4961 6.45117C12.332 7.24805 9.85352 7.64648 8.06055 7.64648C6.26758 7.64648 4.97852 7.53516 4.19336 7.3125C3.4082 7.07812 2.89258 6.82031 2.64648 6.53906C2.40039 6.24609 2.27734 5.95313 2.27734 5.66016C2.27734 5.35547 2.28906 5.0625 2.3125 4.78125C2.35938 4.19531 2.71094 3.71484 3.36719 3.33984C4.03516 2.96484 4.58594 2.77734 5.01953 2.77734C5.45312 2.77734 5.66992 2.8418 5.66992 2.9707C5.66992 3.09961 5.57031 3.27539 5.37109 3.49805C5.18359 3.70898 5.08984 3.85547 5.08984 3.9375C5.08984 4.3125 6.44336 4.5 9.15039 4.5C11.8574 4.5 14.9688 4.14258 18.4844 3.42773C20.5 1.78711 22.2402 0.966797 23.7051 0.966797C24.6777 0.966797 25.3223 1.24219 25.6387 1.79297C25.8496 2.12109 25.9551 2.44922 25.9551 2.77734C25.9551 3.10547 25.7617 3.43359 25.375 3.76172C25 4.08984 24.4902 4.37109 23.8457 4.60547C22.6738 5.02734 21.291 5.36133 19.6973 5.60742C19.0293 6.46289 18.0801 7.79297 16.8496 9.59766C15.6309 11.4023 14.7988 12.6211 14.3535 13.2539C13.9082 13.8867 13.1875 15.0117 12.1914 16.6289C11.207 18.2461 10.3516 19.6465 9.625 20.8301C8.89844 22.002 8.125 23.1621 7.30469 24.3105C5.62891 26.6777 4.13477 27.8613 2.82227 27.8613C2.27148 27.8613 1.79688 27.7148 1.39844 27.4219C1 27.1289 0.800781 26.6543 0.800781 25.998C0.800781 25.3301 1.16406 24.5039 1.89062 23.5195C2.62891 22.5234 3.16797 21.8848 3.50781 21.6035C3.84766 21.3223 4.07617 21.1816 4.19336 21.1816C4.31055 21.1816 4.36914 21.2578 4.36914 21.4102ZM28.6094 13.8516C28.6094 14.625 28.293 15.3047 27.6602 15.8906C27.0391 16.4766 26.3301 16.7695 25.5332 16.7695C25.2754 16.7695 25.1055 16.7109 25.0234 16.5938C24.9414 16.4648 24.9004 16.3008 24.9004 16.1016C24.9004 15.9023 24.9238 15.709 24.9707 15.5215C24.5488 15.6621 24.0801 15.8789 23.5645 16.1719C23.0488 16.4648 22.416 16.8984 21.666 17.4727C20.916 18.0469 20.541 18.4746 20.541 18.7559C20.541 18.8496 20.6758 18.8965 20.9453 18.8965C21.2266 18.8965 21.6543 18.8027 22.2285 18.6152C22.8027 18.416 23.2012 18.3164 23.4238 18.3164C23.6582 18.3164 23.8105 18.3281 23.8809 18.3516C24.0332 18.4336 24.1973 18.6152 24.373 18.8965C24.5488 19.166 24.6367 19.3828 24.6367 19.5469C24.6367 19.6992 24.4844 19.9043 24.1797 20.1621C23.875 20.4199 23.5293 20.6191 23.1426 20.7598C22.7559 20.8887 22.498 20.9883 22.3691 21.0586C19.8965 22.4414 18.6602 23.3906 18.6602 23.9062C18.6602 24.8203 19.4395 25.2773 20.998 25.2773C21.9941 25.2773 22.9961 24.9609 24.0039 24.3281C24.8594 23.7891 25.627 23.2441 26.3066 22.6934C26.998 22.1309 27.4316 21.7852 27.6074 21.6562C27.7949 21.5273 27.9355 21.4629 28.0293 21.4629C28.334 21.4629 28.4863 21.8027 28.4863 22.4824C28.4863 23.1621 28.4453 23.6133 28.3633 23.8359C28.2812 24.0469 28.0469 24.3105 27.6602 24.627C25.1523 26.666 22.7793 27.6855 20.541 27.6855C19.3457 27.6855 18.3906 27.5215 17.6758 27.1934C16.3633 26.5957 15.707 25.6816 15.707 24.4512C15.707 22.834 16.8262 21.6094 19.0645 20.7773C18.6191 20.5781 18.332 20.3262 18.2031 20.0215C18.0742 19.7051 18.0098 19.207 18.0098 18.5273C18.0098 17.8359 18.3262 17.1094 18.959 16.3477C19.6035 15.5742 20.3887 14.9414 21.3145 14.4492C23.377 13.3359 25.2168 12.7793 26.834 12.7793C27.2207 12.7793 27.6133 12.873 28.0117 13.0605C28.4102 13.248 28.6094 13.5117 28.6094 13.8516ZM41.3535 13.6406C42.2441 13.6406 42.6895 13.9453 42.6895 14.5547C42.6895 14.8828 42.6133 15.123 42.4609 15.2754C42.3086 15.4277 41.9805 15.9375 41.4766 16.8047C40.9844 17.6602 40.4336 18.7617 39.8242 20.1094C39.2266 21.4453 38.8398 22.5879 38.6641 23.5371C38.6289 23.6543 38.6113 23.8184 38.6113 24.0293C38.6113 24.6738 38.7871 24.9961 39.1387 24.9961C39.4902 24.9961 39.9062 24.832 40.3867 24.5039C40.8672 24.1641 41.2949 23.8066 41.6699 23.4316C42.0449 23.0449 42.4082 22.6523 42.7598 22.2539C43.123 21.8555 43.3398 21.627 43.4102 21.5684C43.4805 21.5098 43.5859 21.4805 43.7266 21.4805C43.9492 21.4805 44.084 21.6504 44.1309 21.9902C44.1777 22.3301 44.2012 22.6816 44.2012 23.0449C44.2012 23.4082 44.166 23.6602 44.0957 23.8008C43.7559 24.4688 43.0059 25.2715 41.8457 26.209C40.6973 27.1465 39.6484 27.6152 38.6992 27.6152C37.7617 27.6152 37.0703 27.3281 36.625 26.7539C36.1797 26.1797 35.957 25.5469 35.957 24.8555C35.957 24.1523 36.0742 23.5371 36.3086 23.0098C35.3359 24.2754 34.2168 25.3477 32.9512 26.2266C31.6973 27.1055 30.6719 27.5449 29.875 27.5449C29.0781 27.5449 28.4277 27.3047 27.9238 26.8242C27.2793 26.2266 26.957 25.4004 26.957 24.3457C26.957 23.2793 27.1914 22.2129 27.6602 21.1465C28.1406 20.0684 28.7676 19.0898 29.541 18.2109C30.3145 17.3203 31.1641 16.5117 32.0898 15.7852C34.0352 14.2617 35.8281 13.5 37.4688 13.5C38.1016 13.5 38.6172 13.6055 39.0156 13.8164C39.4141 14.0273 39.666 14.291 39.7715 14.6074C40.0527 14.1855 40.2871 13.9219 40.4746 13.8164C40.6738 13.6992 40.9668 13.6406 41.3535 13.6406ZM39.0156 15.5918C37.0117 15.5918 34.9375 16.7051 32.793 18.9316C32.0312 19.7285 31.3281 20.6836 30.6836 21.7969C30.0508 22.9102 29.7344 23.6719 29.7344 24.082C29.7344 24.4922 29.8516 24.6973 30.0859 24.6973C30.4141 24.6973 31.3281 24.0527 32.8281 22.7637C34.3281 21.4629 35.3242 20.5078 35.8164 19.8984C36.3555 19.2188 37.4219 17.7832 39.0156 15.5918ZM42.6016 27.1055L41.7402 27.0703H41.4238C41.3066 27.0352 41.1836 26.9648 41.0547 26.8594C40.9141 26.7539 40.8086 26.6777 40.7383 26.6309C40.668 26.584 40.6328 26.502 40.6328 26.3848C40.6328 26.2559 40.6797 26.0391 40.7734 25.7344C43.0586 20.707 45.2676 16.6875 47.4004 13.6758C47.6348 13.3477 48.0098 13.1016 48.5254 12.9375C49.0527 12.7617 49.5625 12.6738 50.0547 12.6738C50.3477 12.6738 50.4941 12.9023 50.4941 13.3594C50.4941 13.4883 50.4473 13.6641 50.3535 13.8867C50.2598 14.0977 50.0254 14.4492 49.6504 14.9414C49.2754 15.4336 48.8301 15.9961 48.3145 16.6289C47.7988 17.2617 47.5059 17.625 47.4355 17.7188C49.041 16.0547 50.4883 14.8184 51.7773 14.0098C53.0781 13.1895 54.0156 12.7793 54.5898 12.7793C55.1758 12.7793 55.6211 12.9492 55.9258 13.2891C56.2422 13.6172 56.4004 13.9746 56.4004 14.3613C56.4004 14.7363 56.3711 15.0527 56.3125 15.3105C56.2656 15.5566 56.1719 15.8203 56.0312 16.1016C55.8906 16.3711 55.7676 16.6055 55.6621 16.8047C55.5684 16.9922 55.4043 17.2441 55.1699 17.5605C54.9355 17.8652 54.7715 18.0762 54.6777 18.1934C54.5957 18.3105 54.4141 18.5332 54.1328 18.8613C53.8633 19.1895 53.7168 19.3711 53.6934 19.4062C54.0215 19.0781 54.4785 18.5918 55.0645 17.9473C55.6504 17.3027 56.1426 16.7637 56.541 16.3301C56.9512 15.8965 57.4609 15.4102 58.0703 14.8711C58.6797 14.3203 59.248 13.875 59.7754 13.5352C61.041 12.7383 62.3242 12.3398 63.625 12.3398C64.0703 12.3398 64.4453 12.4805 64.75 12.7617C65.0547 13.043 65.207 13.3828 65.207 13.7812C65.207 14.168 64.7324 15.1055 63.7832 16.5938C62.834 18.0703 61.8848 19.5586 60.9355 21.0586C59.998 22.5469 59.5293 23.4844 59.5293 23.8711C59.5293 24.4102 59.6289 24.7324 59.8281 24.8379C60.0273 24.9316 60.2676 24.9668 60.5488 24.9434C60.8301 24.9199 61.2227 24.7383 61.7266 24.3984C62.2422 24.0586 62.6992 23.707 63.0977 23.3438C63.7422 22.7578 64.3398 22.1895 64.8906 21.6387C65.0078 21.5332 65.1367 21.4805 65.2773 21.4805C65.5 21.4805 65.6348 21.6504 65.6816 21.9902C65.7285 22.3301 65.752 22.6816 65.752 23.0449C65.752 23.4082 65.7168 23.6602 65.6465 23.8008C65.3066 24.457 64.5566 25.2598 63.3965 26.209C62.2363 27.1582 61.123 27.6328 60.0566 27.6328C59.9277 27.6328 59.834 27.627 59.7754 27.6152C58.5684 27.498 57.7305 27.1699 57.2617 26.6309C56.8047 26.0801 56.5762 25.4297 56.5762 24.6797C56.5762 23.9297 56.8281 23.0215 57.332 21.9551C57.8477 20.8887 58.4102 19.9219 59.0195 19.0547C59.6289 18.1875 60.1855 17.4082 60.6895 16.7168C61.2051 16.0137 61.4629 15.6328 61.4629 15.5742C61.4629 15.5156 61.416 15.4863 61.3223 15.4863C60.959 15.4863 60.1504 16.0723 58.8965 17.2441C56.752 19.248 54.9004 21.1816 53.3418 23.0449C52.9316 23.5371 51.959 24.7852 50.4238 26.7891C50.248 27.0234 49.9668 27.1406 49.5801 27.1406C49.2051 27.1406 48.8125 27.0703 48.4023 26.9297C47.9922 26.7773 47.7871 26.584 47.7871 26.3496C47.7871 26.2324 48.7188 24.5918 50.582 21.4277C52.4453 18.252 53.377 16.5234 53.377 16.2422C53.377 15.9492 53.2012 15.8027 52.8496 15.8027C52.5098 15.8027 51.8008 16.3184 50.7227 17.3496C47.7578 20.1855 45.4609 23.0039 43.832 25.8047C43.7266 25.9688 43.5215 26.2266 43.2168 26.5781C42.9121 26.9297 42.707 27.1055 42.6016 27.1055Z" fill="#7EB693"/>
</svg>
