<svg width="212" height="38" viewBox="0 0 212 38" fill="none" xmlns="http://www.w3.org/2000/svg">
<path d="M32.6816 2.67188C32.5527 2.67188 32.4883 2.58398 32.4883 2.4082C32.4883 2.23242 32.5352 2.12109 32.6289 2.07422C32.7344 2.01563 32.9043 1.92773 33.1387 1.81055C33.3848 1.68164 33.5547 1.59961 33.6484 1.56445C33.7422 1.51758 33.8887 1.44727 34.0879 1.35352C34.2871 1.25977 34.4453 1.19531 34.5625 1.16016C34.6914 1.125 34.8438 1.07812 35.0195 1.01953C35.3125 0.9375 35.6758 0.896484 36.1094 0.896484C36.5547 0.896484 37.0059 1.04883 37.4629 1.35352C37.9316 1.6582 38.166 2.05664 38.166 2.54883C38.166 3.56836 37.7207 4.92188 36.8301 6.60938C35.9395 8.28516 34.7969 10.0312 33.4023 11.8477C32.0078 13.6641 30.4434 15.5098 28.709 17.3848C26.9746 19.2598 25.2812 20.9355 23.6289 22.4121C21.9766 23.8887 20.418 25.0957 18.9531 26.0332C17.5 26.9707 16.3809 27.4395 15.5957 27.4395C13.9316 27.4395 13.0996 26.6836 13.0996 25.1719C13.0996 23.0508 14.3008 19.9863 16.7031 15.9785C12.0273 21.5098 8.11328 25.0781 4.96094 26.6836C4.14062 27.1055 3.51367 27.3164 3.08008 27.3164C2.64648 27.3164 2.11328 27.0527 1.48047 26.5254C0.859375 25.9863 0.548828 25.459 0.548828 24.9434C0.548828 22.0254 2.57617 17.9414 6.63086 12.6914C8.17773 10.6875 10.1055 8.44922 12.4141 5.97656C10.3984 7.72266 8.86328 8.5957 7.80859 8.5957C7.24609 8.5957 6.83008 8.32031 6.56055 7.76953C6.31445 7.37109 6.19141 6.99609 6.19141 6.64453C6.19141 6.28125 6.42578 5.88867 6.89453 5.4668C7.36328 5.04492 7.63867 4.83398 7.7207 4.83398C7.80273 4.83398 7.87891 4.86328 7.94922 4.92188C8.01953 4.98047 8.05469 5.0332 8.05469 5.08008C7.89062 5.25586 7.80859 5.37305 7.80859 5.43164C7.80859 5.47852 7.87891 5.50195 8.01953 5.50195C8.16016 5.50195 9.33203 4.83398 11.5352 3.49805C13.7383 2.15039 14.9453 1.47656 15.1562 1.47656C15.7656 1.47656 16.3516 1.64648 16.9141 1.98633C17.4766 2.31445 17.7578 2.5957 17.7578 2.83008C17.7578 3.05273 17.6406 3.35156 17.4062 3.72656C17.1719 4.10156 15.7773 5.94141 13.2227 9.24609C10.668 12.5391 8.81055 15.0352 7.65039 16.7344C6.49023 18.4219 5.64062 19.8105 5.10156 20.9004C4.5625 21.9785 4.29297 22.6348 4.29297 22.8691C4.29297 23.1035 4.32812 23.2207 4.39844 23.2207C4.89062 23.2207 6.64844 21.7383 9.67188 18.7734C12.707 15.7969 15.5957 12.8613 18.3379 9.9668C21.0801 7.06055 22.5684 5.44922 22.8027 5.13281C23.0488 4.81641 23.3125 4.59375 23.5938 4.46484C23.875 4.32422 24.2969 4.25391 24.8594 4.25391C26.4297 4.25391 27.2148 4.55273 27.2148 5.15039C27.2148 5.39648 26.8691 5.91797 26.1777 6.71484C25.498 7.51172 25.0176 8.0918 24.7363 8.45508C23.2715 10.3184 21.6367 12.9434 19.832 16.3301C18.0391 19.7168 17.1426 21.8848 17.1426 22.834C17.1426 23.0918 17.2246 23.2207 17.3887 23.2207C17.5645 23.2207 18.0684 22.8926 18.9004 22.2363C19.7441 21.5684 20.8516 20.5781 22.2227 19.2656C23.5938 17.9414 25.1523 16.3066 26.8984 14.3613C28.6445 12.416 30.3086 10.2598 31.8906 7.89258C33.4844 5.51367 34.2812 4.01953 34.2812 3.41016C34.2812 2.80078 34.0469 2.49609 33.5781 2.49609L32.6816 2.67188ZM46.832 21.8145C46.9141 22.3535 46.9551 22.7812 46.9551 23.0977C46.9551 23.4023 46.8965 23.6719 46.7793 23.9062C46.6738 24.1289 46.4277 24.4512 46.041 24.873C45.666 25.2832 45.2148 25.6992 44.6875 26.1211C43.3984 27.1406 42.0801 27.6504 40.7324 27.6504C38.7988 27.6504 37.832 26.7949 37.832 25.084C37.832 23.5957 39.127 20.6309 41.7168 16.1895C41.8105 16.0254 41.875 15.9082 41.9102 15.8379C41.0078 16.4707 39.2793 18.1992 36.7246 21.0234C34.1816 23.8359 32.4883 25.8281 31.6445 27C31.5742 27.1055 31.3984 27.2227 31.1172 27.3516C30.8359 27.4805 30.6133 27.5449 30.4492 27.5449C30.2969 27.5449 30.1328 27.4922 29.957 27.3867C29.7695 27.293 29.6523 27.2461 29.6055 27.2461C29.4531 27.2461 29.377 27.1934 29.377 27.0879C29.377 26.9941 29.5879 26.4609 30.0098 25.4883C30.4199 24.5039 30.9648 23.2852 31.6445 21.832C33.5078 17.8242 36.2793 12.6094 39.959 6.1875C41.248 3.9375 42.2559 2.34375 42.9824 1.40625C43.498 0.738281 44.3652 0.404297 45.584 0.404297C45.8418 0.404297 45.9883 0.480469 46.0234 0.632812C46.0586 0.785156 46.0762 0.949219 46.0762 1.125C46.0762 1.30078 46.041 1.47656 45.9707 1.65234L44.0898 4.58789C40.3633 10.4004 37.5566 15.2168 35.6699 19.0371C37.498 16.8105 39.2734 15.0938 40.9961 13.8867C42.0625 13.125 42.8594 12.7441 43.3867 12.7441C43.9258 12.7441 44.4121 12.832 44.8457 13.0078C45.2793 13.1719 45.4961 13.5762 45.4961 14.2207C45.4961 14.4551 45.1152 15.3223 44.3535 16.8223C42.0684 21.3223 40.9258 23.8242 40.9258 24.3281C40.9258 24.8203 41.1309 25.0664 41.541 25.0664C42.1387 25.0664 43.0586 24.4863 44.3008 23.3262C45.2383 22.4473 45.8301 21.8848 46.0762 21.6387C46.2168 21.5332 46.3457 21.4805 46.4629 21.4805C46.6855 21.4805 46.8086 21.5918 46.832 21.8145ZM50.8574 32.8359C50.7988 32.8945 50.6172 33.1875 50.3125 33.7148C50.0195 34.2539 49.7031 34.793 49.3633 35.332C49.0234 35.8828 48.6016 36.4043 48.0977 36.8965C47.6055 37.3887 47.1895 37.6523 46.8496 37.6875C46.5215 37.7344 46.3105 37.7578 46.2168 37.7578C45.1387 37.7578 44.5996 37.2129 44.5996 36.123C44.5996 34.8457 45.2617 33.3516 46.5859 31.6406C47.0898 30.9961 47.7227 30.2988 48.4844 29.5488C49.2461 28.8105 49.6621 28.3887 49.7324 28.2832C49.8027 28.1895 50.6816 26.5488 52.3691 23.3613C51.2441 24.5918 50.2012 25.5938 49.2402 26.3672C48.2793 27.1289 47.3535 27.5566 46.4629 27.6504H46.3398C45.8828 27.6504 45.4316 27.498 44.9863 27.1934C44.541 26.9004 44.3184 26.3789 44.3184 25.6289C44.3184 24.5156 44.6172 23.4375 45.2148 22.3945C45.4258 22.0312 45.7891 21.416 46.3047 20.5488C46.832 19.6816 47.3184 18.8438 47.7637 18.0352C48.1855 17.3906 48.6191 16.6406 49.0645 15.7852C49.5098 14.9297 49.8496 14.3203 50.084 13.957C50.3184 13.582 50.541 13.3945 50.752 13.3945C50.9629 13.3945 51.2324 13.5293 51.5605 13.7988C51.9004 14.0566 52.0703 14.3672 52.0703 14.7305C52.0703 15.0938 51.3027 16.6699 49.7676 19.459C48.2324 22.248 47.4648 23.8359 47.4648 24.2227C47.4648 24.3164 47.5117 24.3633 47.6055 24.3633C47.9219 24.3633 48.6191 23.918 49.6973 23.0273C50.7871 22.125 51.9883 20.9707 53.3008 19.5645C54.7656 18.0059 55.9141 16.582 56.7461 15.293C56.8516 15.1289 56.9336 15.0059 56.9922 14.9238C57.0625 14.8301 57.1445 14.7129 57.2383 14.5723C57.3438 14.4199 57.4258 14.3027 57.4844 14.2207C57.5547 14.1387 57.6309 14.0449 57.7129 13.9395C57.8066 13.8223 57.8887 13.7344 57.959 13.6758C58.0293 13.6172 58.1055 13.5586 58.1875 13.5C58.3164 13.3828 58.457 13.3242 58.6094 13.3242C58.7734 13.3242 59.0137 13.3594 59.3301 13.4297C59.6582 13.5 59.8516 13.5762 59.9102 13.6582C59.9805 13.7402 60.0508 13.8164 60.1211 13.8867C60.2383 14.0156 60.2969 14.1387 60.2969 14.2559C60.2969 14.3613 60.25 14.5078 60.1562 14.6953C60.0625 14.8711 59.5176 15.7969 58.5215 17.4727C55.5918 22.418 53.5762 26.0273 52.4746 28.3008C54.2559 26.8008 56.7637 24.5801 59.998 21.6387C60.127 21.5332 60.2559 21.4805 60.3848 21.4805C60.748 21.4805 60.9297 22.0371 60.9297 23.1504C60.9297 23.4785 60.8711 23.6953 60.7539 23.8008C57.25 26.4961 53.9512 29.5078 50.8574 32.8359ZM86.3477 16.752C86.6289 16.752 86.7695 16.9805 86.7695 17.4375C86.7695 17.8828 86.6699 18.6562 86.4707 19.7578C86.3184 20.4961 85.4746 21.5508 83.9395 22.9219C82.0879 24.5625 80.0547 25.7344 77.8398 26.4375C76.5039 26.8594 75.1973 27.0703 73.9199 27.0703C72.6543 27.0703 71.4941 26.5371 70.4395 25.4707C69.3965 24.3926 68.875 23.1211 68.875 21.6562C68.875 20.1797 69.168 18.6562 69.7539 17.0859C70.3516 15.5039 71.1484 13.998 72.1445 12.5684C73.1523 11.127 74.3359 9.74414 75.6953 8.41992C77.0664 7.0957 78.4902 5.94727 79.9668 4.97461C81.4434 4.00195 82.9902 3.22852 84.6074 2.6543C86.2246 2.08008 87.7598 1.79297 89.2129 1.79297C90.3613 1.79297 91.3398 2.20898 92.1484 3.04102C92.5703 3.48633 92.7812 4.04883 92.7812 4.72852C92.7812 5.39648 92.4531 6.24609 91.7969 7.27734C91.1406 8.29688 90.3613 9.22852 89.459 10.0723C88.5684 10.916 87.6426 11.6309 86.6816 12.2168C85.7324 12.8027 84.9707 13.0957 84.3965 13.0957C83.8223 13.0957 83.3301 12.9199 82.9199 12.5684C82.5098 12.2051 82.3047 11.8828 82.3047 11.6016C82.3047 11.3203 82.3633 11.0098 82.4805 10.6699C82.6094 10.3301 82.7676 10.1602 82.9551 10.1602C82.9082 10.2188 82.8848 10.2773 82.8848 10.3359C82.8848 10.4766 83.084 10.5469 83.4824 10.5469C83.8926 10.5469 84.5723 10.1895 85.5215 9.47461C86.4707 8.75977 87.3262 7.95703 88.0879 7.06641C88.8613 6.17578 89.248 5.50781 89.248 5.0625C89.248 4.75781 89.043 4.60547 88.6328 4.60547C87.5312 4.60547 86.0078 5.12109 84.0625 6.15234C82.1289 7.17188 80.2773 8.49023 78.5078 10.1074C76.7383 11.7246 75.1973 13.6465 73.8848 15.873C72.584 18.0879 71.9336 20.0801 71.9336 21.8496C71.9336 22.5879 72.127 23.1797 72.5137 23.625C72.9121 24.0703 73.5156 24.293 74.3242 24.293C75.1445 24.293 76.1113 24.0586 77.2246 23.5898C78.3379 23.1211 79.3926 22.5469 80.3887 21.8672C81.3965 21.1875 82.3457 20.4902 83.2363 19.7754C84.127 19.0605 84.8359 18.4336 85.3633 17.8945C85.9023 17.3555 86.1777 17.0332 86.1895 16.9277C86.2012 16.8105 86.2539 16.752 86.3477 16.752ZM103.012 21.8145C103.094 22.3535 103.135 22.7812 103.135 23.0977C103.135 23.4023 103.076 23.6719 102.959 23.9062C102.854 24.1289 102.607 24.4512 102.221 24.873C101.846 25.2832 101.395 25.6992 100.867 26.1211C99.5781 27.1406 98.2598 27.6504 96.9121 27.6504C94.9785 27.6504 94.0117 26.7949 94.0117 25.084C94.0117 23.5957 95.3066 20.6309 97.8965 16.1895C97.9902 16.0254 98.0547 15.9082 98.0898 15.8379C97.1875 16.4707 95.459 18.1992 92.9043 21.0234C90.3613 23.8359 88.668 25.8281 87.8242 27C87.7539 27.1055 87.5781 27.2227 87.2969 27.3516C87.0156 27.4805 86.793 27.5449 86.6289 27.5449C86.4766 27.5449 86.3125 27.4922 86.1367 27.3867C85.9492 27.293 85.832 27.2461 85.7852 27.2461C85.6328 27.2461 85.5566 27.1934 85.5566 27.0879C85.5566 26.9941 85.7676 26.4609 86.1895 25.4883C86.5996 24.5039 87.1445 23.2852 87.8242 21.832C89.6875 17.8242 92.459 12.6094 96.1387 6.1875C97.4277 3.9375 98.4355 2.34375 99.1621 1.40625C99.6777 0.738281 100.545 0.404297 101.764 0.404297C102.021 0.404297 102.168 0.480469 102.203 0.632812C102.238 0.785156 102.256 0.949219 102.256 1.125C102.256 1.30078 102.221 1.47656 102.15 1.65234L100.27 4.58789C96.543 10.4004 93.7363 15.2168 91.8496 19.0371C93.6777 16.8105 95.4531 15.0938 97.1758 13.8867C98.2422 13.125 99.0391 12.7441 99.5664 12.7441C100.105 12.7441 100.592 12.832 101.025 13.0078C101.459 13.1719 101.676 13.5762 101.676 14.2207C101.676 14.4551 101.295 15.3223 100.533 16.8223C98.248 21.3223 97.1055 23.8242 97.1055 24.3281C97.1055 24.8203 97.3105 25.0664 97.7207 25.0664C98.3184 25.0664 99.2383 24.4863 100.48 23.3262C101.418 22.4473 102.01 21.8848 102.256 21.6387C102.396 21.5332 102.525 21.4805 102.643 21.4805C102.865 21.4805 102.988 21.5918 103.012 21.8145ZM113.646 13.6055C113.998 13.6055 114.355 13.7637 114.719 14.0801C115.094 14.3965 115.281 14.8828 115.281 15.5391C115.281 16.1836 115.053 17.0273 114.596 18.0703C114.139 19.1016 113.512 20.1562 112.715 21.2344C111.918 22.3008 111.039 23.3086 110.078 24.2578C109.129 25.1953 108.098 25.9688 106.984 26.5781C105.883 27.1758 104.881 27.4746 103.979 27.4746C103.076 27.4746 102.35 27.1934 101.799 26.6309C101.26 26.0566 100.99 25.2656 100.99 24.2578C100.99 23.2383 101.236 22.1133 101.729 20.8828C102.232 19.6523 102.877 18.5684 103.662 17.6309C104.447 16.6816 105.297 15.832 106.211 15.082C108.121 13.5469 109.797 12.7793 111.238 12.7793C111.883 12.7793 112.369 12.9375 112.697 13.2539C112.814 13.3594 112.873 13.4531 112.873 13.5352V13.6406C113.037 13.6172 113.295 13.6055 113.646 13.6055ZM111.871 15.9434H111.748C111.338 15.9434 111.133 15.6445 111.133 15.0469C110.277 15.3281 109.381 15.8203 108.443 16.5234C107.506 17.2266 106.668 18.0586 105.93 19.0195C104.43 20.9414 103.668 22.5645 103.645 23.8887C103.645 24.5449 103.885 24.873 104.365 24.873C104.846 24.873 105.561 24.5566 106.51 23.9238C107.459 23.291 108.396 22.3887 109.322 21.2168C110.26 20.0449 110.957 19.0312 111.414 18.1758C111.883 17.3086 112.117 16.7227 112.117 16.418C112.117 16.1016 112.035 15.9434 111.871 15.9434ZM126.83 13.6055C127.182 13.6055 127.539 13.7637 127.902 14.0801C128.277 14.3965 128.465 14.8828 128.465 15.5391C128.465 16.1836 128.236 17.0273 127.779 18.0703C127.322 19.1016 126.695 20.1562 125.898 21.2344C125.102 22.3008 124.223 23.3086 123.262 24.2578C122.312 25.1953 121.281 25.9688 120.168 26.5781C119.066 27.1758 118.064 27.4746 117.162 27.4746C116.26 27.4746 115.533 27.1934 114.982 26.6309C114.443 26.0566 114.174 25.2656 114.174 24.2578C114.174 23.2383 114.42 22.1133 114.912 20.8828C115.416 19.6523 116.061 18.5684 116.846 17.6309C117.631 16.6816 118.48 15.832 119.395 15.082C121.305 13.5469 122.98 12.7793 124.422 12.7793C125.066 12.7793 125.553 12.9375 125.881 13.2539C125.998 13.3594 126.057 13.4531 126.057 13.5352V13.6406C126.221 13.6172 126.479 13.6055 126.83 13.6055ZM125.055 15.9434H124.932C124.521 15.9434 124.316 15.6445 124.316 15.0469C123.461 15.3281 122.564 15.8203 121.627 16.5234C120.689 17.2266 119.852 18.0586 119.113 19.0195C117.613 20.9414 116.852 22.5645 116.828 23.8887C116.828 24.5449 117.068 24.873 117.549 24.873C118.029 24.873 118.744 24.5566 119.693 23.9238C120.643 23.291 121.58 22.3887 122.506 21.2168C123.443 20.0449 124.141 19.0312 124.598 18.1758C125.066 17.3086 125.301 16.7227 125.301 16.418C125.301 16.1016 125.219 15.9434 125.055 15.9434ZM130.012 23.4844L129.994 23.7656C129.994 24.0586 130.105 24.3105 130.328 24.5215C130.551 24.7324 130.756 24.8379 130.943 24.8379C132.35 24.8379 133.592 24.627 134.67 24.2051C135.76 23.7832 136.305 23.3613 136.305 22.9395C136.305 22.7402 136.105 22.5703 135.707 22.4297C135.32 22.2773 134.658 22.0957 133.721 21.8848C132.795 21.6621 132.121 21.4922 131.699 21.375C131.277 21.2461 130.943 21.1289 130.697 21.0234C130.451 20.918 130.199 20.7715 129.941 20.584C129.391 20.1973 129.115 19.623 129.115 18.8613C129.115 18.0879 129.396 17.3262 129.959 16.5762C130.533 15.8145 131.248 15.1641 132.104 14.625C132.959 14.0859 133.879 13.6113 134.863 13.2012C136.809 12.3926 138.443 11.9883 139.768 11.9883C141.068 11.9883 141.871 12.2695 142.176 12.832C142.27 13.0312 142.316 13.2539 142.316 13.5V13.623C142.316 14.2441 142.182 14.7305 141.912 15.082C141.654 15.4336 141.238 15.75 140.664 16.0312C140.102 16.3125 139.65 16.4531 139.311 16.4531C138.982 16.4531 138.771 16.4297 138.678 16.3828C138.596 16.3359 138.525 16.2773 138.467 16.207C138.408 16.125 138.332 16.0664 138.238 16.0312C138.156 15.9961 138.115 15.9082 138.115 15.7676C138.115 15.627 138.174 15.4863 138.291 15.3457C138.408 15.1934 138.49 15.0352 138.537 14.8711C137.764 14.9062 136.955 15.0879 136.111 15.416C135.268 15.7324 134.541 16.0898 133.932 16.4883C133.334 16.8867 132.836 17.2676 132.438 17.6309C132.039 17.9941 131.84 18.2637 131.84 18.4395C131.84 18.6035 132.109 18.7383 132.648 18.8438C135.074 19.3242 136.668 19.7402 137.43 20.0918C138.191 20.4434 138.719 20.8418 139.012 21.2871C139.305 21.7324 139.451 22.1367 139.451 22.5C139.451 23.25 139.152 23.959 138.555 24.627C137.957 25.2949 137.219 25.8398 136.34 26.2617C134.453 27.1875 132.807 27.6504 131.4 27.6504C130.006 27.6504 129.039 27.4336 128.5 27C127.973 26.5781 127.709 26.0742 127.709 25.4883C127.709 24.9023 127.855 24.3633 128.148 23.8711C128.453 23.3672 128.84 23.1152 129.309 23.1152C129.777 23.1152 130.012 23.2383 130.012 23.4844ZM153.426 13.8516C153.426 14.625 153.109 15.3047 152.477 15.8906C151.855 16.4766 151.146 16.7695 150.35 16.7695C150.092 16.7695 149.922 16.7109 149.84 16.5938C149.758 16.4648 149.717 16.3008 149.717 16.1016C149.717 15.9023 149.74 15.709 149.787 15.5215C149.365 15.6621 148.896 15.8789 148.381 16.1719C147.865 16.4648 147.232 16.8984 146.482 17.4727C145.732 18.0469 145.357 18.4746 145.357 18.7559C145.357 18.8496 145.492 18.8965 145.762 18.8965C146.043 18.8965 146.471 18.8027 147.045 18.6152C147.619 18.416 148.018 18.3164 148.24 18.3164C148.475 18.3164 148.627 18.3281 148.697 18.3516C148.85 18.4336 149.014 18.6152 149.189 18.8965C149.365 19.166 149.453 19.3828 149.453 19.5469C149.453 19.6992 149.301 19.9043 148.996 20.1621C148.691 20.4199 148.346 20.6191 147.959 20.7598C147.572 20.8887 147.314 20.9883 147.186 21.0586C144.713 22.4414 143.477 23.3906 143.477 23.9062C143.477 24.8203 144.256 25.2773 145.814 25.2773C146.811 25.2773 147.812 24.9609 148.82 24.3281C149.676 23.7891 150.443 23.2441 151.123 22.6934C151.814 22.1309 152.248 21.7852 152.424 21.6562C152.611 21.5273 152.752 21.4629 152.846 21.4629C153.15 21.4629 153.303 21.8027 153.303 22.4824C153.303 23.1621 153.262 23.6133 153.18 23.8359C153.098 24.0469 152.863 24.3105 152.477 24.627C149.969 26.666 147.596 27.6855 145.357 27.6855C144.162 27.6855 143.207 27.5215 142.492 27.1934C141.18 26.5957 140.523 25.6816 140.523 24.4512C140.523 22.834 141.643 21.6094 143.881 20.7773C143.436 20.5781 143.148 20.3262 143.02 20.0215C142.891 19.7051 142.826 19.207 142.826 18.5273C142.826 17.8359 143.143 17.1094 143.775 16.3477C144.42 15.5742 145.205 14.9414 146.131 14.4492C148.193 13.3359 150.033 12.7793 151.65 12.7793C152.037 12.7793 152.43 12.873 152.828 13.0605C153.227 13.248 153.426 13.5117 153.426 13.8516ZM175.135 21.4805C175.357 21.4805 175.492 21.6504 175.539 21.9902C175.586 22.3301 175.609 22.6816 175.609 23.0449C175.609 23.4082 175.574 23.6602 175.504 23.8008C175.164 24.457 174.42 25.2598 173.271 26.209C172.123 27.1465 171.033 27.6152 170.002 27.6152C169.369 27.6152 168.783 27.4219 168.244 27.0352C167.705 26.6602 167.436 25.998 167.436 25.0488C167.436 24.0996 167.688 23.168 168.191 22.2539C165.285 25.8984 163.006 27.7207 161.354 27.7207C160.697 27.7207 160.164 27.4863 159.754 27.0176C159.355 26.5488 159.156 26.0684 159.156 25.5762C159.156 25.0723 159.227 24.5566 159.367 24.0293C159.508 23.4902 159.654 23.0098 159.807 22.5879C159.971 22.166 160.205 21.6445 160.51 21.0234C160.826 20.4023 161.061 19.9512 161.213 19.6699C161.365 19.3887 161.605 18.9668 161.934 18.4043C162.273 17.8301 162.713 17.0625 163.252 16.1016C163.803 15.1406 164.254 14.4316 164.605 13.9746C164.969 13.5059 165.32 13.2715 165.66 13.2715C166 13.2598 166.299 13.3945 166.557 13.6758C166.814 13.957 166.943 14.1855 166.943 14.3613C166.943 14.5371 166.551 15.3281 165.766 16.7344C163.445 20.9297 162.285 23.373 162.285 24.0645C162.285 24.2402 162.35 24.3281 162.479 24.3281C163.041 24.3281 164.441 23.1094 166.68 20.6719C168.918 18.2344 170.213 16.6758 170.564 15.9961C170.916 15.3047 171.256 14.7246 171.584 14.2559C171.924 13.7871 172.176 13.5 172.34 13.3945C172.844 13.0664 173.494 12.8906 174.291 12.8672C174.42 12.8672 174.52 12.873 174.59 12.8848C174.66 12.8965 174.742 12.9961 174.836 13.1836C174.93 13.3711 174.977 13.5176 174.977 13.623C174.871 13.9512 174.402 14.8242 173.57 16.2422C172.75 17.6602 172.293 18.4629 172.199 18.6504C170.816 21.5098 170.125 23.373 170.125 24.2402C170.125 24.7324 170.312 24.9785 170.688 24.9785C171.367 24.8848 172.188 24.3398 173.148 23.3438C173.5 22.9805 173.846 22.6113 174.186 22.2363C174.537 21.8613 174.754 21.6445 174.836 21.5859C174.918 21.5156 175.018 21.4805 175.135 21.4805ZM176.418 23.4844L176.4 23.7656C176.4 24.0586 176.512 24.3105 176.734 24.5215C176.957 24.7324 177.162 24.8379 177.35 24.8379C178.756 24.8379 179.998 24.627 181.076 24.2051C182.166 23.7832 182.711 23.3613 182.711 22.9395C182.711 22.7402 182.512 22.5703 182.113 22.4297C181.727 22.2773 181.064 22.0957 180.127 21.8848C179.201 21.6621 178.527 21.4922 178.105 21.375C177.684 21.2461 177.35 21.1289 177.104 21.0234C176.857 20.918 176.605 20.7715 176.348 20.584C175.797 20.1973 175.521 19.623 175.521 18.8613C175.521 18.0879 175.803 17.3262 176.365 16.5762C176.939 15.8145 177.654 15.1641 178.51 14.625C179.365 14.0859 180.285 13.6113 181.27 13.2012C183.215 12.3926 184.85 11.9883 186.174 11.9883C187.475 11.9883 188.277 12.2695 188.582 12.832C188.676 13.0312 188.723 13.2539 188.723 13.5V13.623C188.723 14.2441 188.588 14.7305 188.318 15.082C188.061 15.4336 187.645 15.75 187.07 16.0312C186.508 16.3125 186.057 16.4531 185.717 16.4531C185.389 16.4531 185.178 16.4297 185.084 16.3828C185.002 16.3359 184.932 16.2773 184.873 16.207C184.814 16.125 184.738 16.0664 184.645 16.0312C184.562 15.9961 184.521 15.9082 184.521 15.7676C184.521 15.627 184.58 15.4863 184.697 15.3457C184.814 15.1934 184.896 15.0352 184.943 14.8711C184.17 14.9062 183.361 15.0879 182.518 15.416C181.674 15.7324 180.947 16.0898 180.338 16.4883C179.74 16.8867 179.242 17.2676 178.844 17.6309C178.445 17.9941 178.246 18.2637 178.246 18.4395C178.246 18.6035 178.516 18.7383 179.055 18.8438C181.48 19.3242 183.074 19.7402 183.836 20.0918C184.598 20.4434 185.125 20.8418 185.418 21.2871C185.711 21.7324 185.857 22.1367 185.857 22.5C185.857 23.25 185.559 23.959 184.961 24.627C184.363 25.2949 183.625 25.8398 182.746 26.2617C180.859 27.1875 179.213 27.6504 177.807 27.6504C176.412 27.6504 175.445 27.4336 174.906 27C174.379 26.5781 174.115 26.0742 174.115 25.4883C174.115 24.9023 174.262 24.3633 174.555 23.8711C174.859 23.3672 175.246 23.1152 175.715 23.1152C176.184 23.1152 176.418 23.2383 176.418 23.4844ZM198.057 8.56055C198.232 8.56055 198.32 8.67188 198.32 8.89453C198.32 9.43359 198.08 9.84375 197.6 10.125C197.119 10.4062 196.545 10.5469 195.877 10.5469C195.209 10.5469 194.594 10.3184 194.031 9.86133C193.48 9.4043 193.205 8.91211 193.205 8.38477C193.205 7.42383 193.562 6.49219 194.277 5.58984C195.004 4.6875 195.918 3.93164 197.02 3.32227C199.457 1.97461 201.889 1.30078 204.314 1.30078C207.139 1.30078 209.219 2.10352 210.555 3.70898C211.234 4.5293 211.574 5.45508 211.574 6.48633C211.574 7.51758 211.398 8.4375 211.047 9.24609C210.695 10.0547 210.215 10.7637 209.605 11.373C208.996 11.9824 208.316 12.5449 207.566 13.0605C206.816 13.5762 206.002 14.0684 205.123 14.5371C204.256 14.9941 203.418 15.4336 202.609 15.8555C200.652 16.8867 199.199 17.877 198.25 18.8262C197.863 19.2363 197.729 19.7461 197.846 20.3555C197.881 20.543 197.816 20.707 197.652 20.8477C197.488 20.9883 197.254 21.0586 196.949 21.0586C196.656 21.0586 196.422 21.0469 196.246 21.0234C196.082 20.9883 195.871 20.9297 195.613 20.8477C195.039 20.6836 194.752 20.3027 194.752 19.7051C194.752 18.5918 195.232 17.5957 196.193 16.7168C196.967 15.9902 198.385 15.0176 200.447 13.7988C202.521 12.5801 204.068 11.625 205.088 10.9336C207.35 9.39844 208.48 7.92188 208.48 6.50391C208.48 4.96875 207.174 4.20117 204.561 4.20117C203.494 4.20117 202.34 4.42383 201.098 4.86914C199.855 5.31445 198.801 5.89453 197.934 6.60938C197.078 7.32422 196.65 8.02148 196.65 8.70117C196.65 8.74805 196.709 8.80664 196.826 8.87695C196.955 8.93555 197.078 8.96484 197.195 8.96484C197.312 8.96484 197.477 8.90039 197.688 8.77148C197.898 8.63086 198.021 8.56055 198.057 8.56055ZM195.279 24.9609C195.279 25.6172 194.969 26.2852 194.348 26.9648C193.738 27.6445 193.094 27.9844 192.414 27.9844C191.734 27.9844 191.395 27.6328 191.395 26.9297C191.395 26.2148 191.693 25.541 192.291 24.9082C192.9 24.2637 193.562 23.9414 194.277 23.9414C194.582 23.9414 194.822 24.0293 194.998 24.2051C195.186 24.3809 195.279 24.6328 195.279 24.9609Z" fill="#7EB693"/>
</svg>
