<svg width="60" height="61" viewBox="0 0 60 61" fill="none" xmlns="http://www.w3.org/2000/svg">
<circle cx="30" cy="30.7158" r="30" fill="#EFF6F1"/>
<path d="M33.6585 23.2631C34.7231 23.2661 35.7431 23.6747 36.4958 24.3996C37.2486 25.1244 37.6729 26.1067 37.6761 27.1318V34.8685C37.6729 35.8936 37.2486 36.8758 36.4958 37.6007C35.7431 38.3256 34.7231 38.7342 33.6585 38.7372H25.6243C24.5598 38.7342 23.5397 38.3256 22.787 37.6007C22.0342 36.8758 21.6099 35.8936 21.6068 34.8685V27.1318C21.6099 26.1067 22.0342 25.1244 22.787 24.3996C23.5397 23.6747 24.5598 23.2661 25.6243 23.2631H33.6585ZM33.6585 21.7158H25.6243C22.5309 21.7158 20 24.153 20 27.1318V34.8685C20 37.8473 22.5309 40.2845 25.6243 40.2845H33.6585C36.752 40.2845 39.2828 37.8473 39.2828 34.8685V27.1318C39.2828 24.153 36.752 21.7158 33.6585 21.7158Z" fill="#274C5B"/>
<path d="M34.8637 27.1326C34.6253 27.1326 34.3923 27.0645 34.1941 26.937C33.9959 26.8095 33.8415 26.6282 33.7502 26.4162C33.659 26.2041 33.6352 25.9708 33.6817 25.7457C33.7282 25.5205 33.8429 25.3137 34.0115 25.1514C34.18 24.9891 34.3948 24.8786 34.6286 24.8338C34.8623 24.789 35.1047 24.812 35.3249 24.8999C35.5451 24.9877 35.7333 25.1365 35.8657 25.3273C35.9982 25.5182 36.0688 25.7425 36.0688 25.9721C36.0692 26.1246 36.0382 26.2756 35.9778 26.4166C35.9174 26.5575 35.8286 26.6856 35.7166 26.7934C35.6046 26.9013 35.4716 26.9867 35.3253 27.0449C35.1789 27.1031 35.022 27.1329 34.8637 27.1326ZM29.6414 27.906C30.277 27.906 30.8984 28.0875 31.427 28.4276C31.9555 28.7677 32.3674 29.251 32.6107 29.8166C32.8539 30.3821 32.9176 31.0044 32.7936 31.6047C32.6696 32.2051 32.3635 32.7565 31.914 33.1894C31.4645 33.6222 30.8918 33.917 30.2684 34.0364C29.645 34.1558 28.9987 34.0945 28.4115 33.8603C27.8242 33.626 27.3222 33.2293 26.9691 32.7204C26.6159 32.2114 26.4274 31.6131 26.4274 31.0009C26.4284 30.1804 26.7673 29.3937 27.3698 28.8135C27.9723 28.2333 28.7893 27.9069 29.6414 27.906ZM29.6414 26.3588C28.6879 26.3588 27.7559 26.631 26.9631 27.1411C26.1704 27.6512 25.5525 28.3762 25.1876 29.2245C24.8228 30.0727 24.7273 31.0061 24.9133 31.9066C25.0993 32.8071 25.5584 33.6342 26.2326 34.2834C26.9068 34.9327 27.7658 35.3748 28.7009 35.5539C29.636 35.733 30.6053 35.6411 31.4862 35.2897C32.3671 34.9384 33.12 34.3434 33.6497 33.58C34.1794 32.8166 34.4621 31.9191 34.4621 31.0009C34.4621 29.7698 33.9542 28.589 33.0501 27.7184C32.1461 26.8479 30.9199 26.3588 29.6414 26.3588Z" fill="#274C5B"/>
</svg>
