<svg width="185" height="37" viewBox="0 0 185 37" fill="none" xmlns="http://www.w3.org/2000/svg">
<path d="M32.6816 2.67188C32.5527 2.67188 32.4883 2.58398 32.4883 2.4082C32.4883 2.23242 32.5352 2.12109 32.6289 2.07422C32.7344 2.01563 32.9043 1.92773 33.1387 1.81055C33.3848 1.68164 33.5547 1.59961 33.6484 1.56445C33.7422 1.51758 33.8887 1.44727 34.0879 1.35352C34.2871 1.25977 34.4453 1.19531 34.5625 1.16016C34.6914 1.125 34.8438 1.07812 35.0195 1.01953C35.3125 0.9375 35.6758 0.896484 36.1094 0.896484C36.5547 0.896484 37.0059 1.04883 37.4629 1.35352C37.9316 1.6582 38.166 2.05664 38.166 2.54883C38.166 3.56836 37.7207 4.92188 36.8301 6.60938C35.9395 8.28516 34.7969 10.0312 33.4023 11.8477C32.0078 13.6641 30.4434 15.5098 28.709 17.3848C26.9746 19.2598 25.2812 20.9355 23.6289 22.4121C21.9766 23.8887 20.418 25.0957 18.9531 26.0332C17.5 26.9707 16.3809 27.4395 15.5957 27.4395C13.9316 27.4395 13.0996 26.6836 13.0996 25.1719C13.0996 23.0508 14.3008 19.9863 16.7031 15.9785C12.0273 21.5098 8.11328 25.0781 4.96094 26.6836C4.14062 27.1055 3.51367 27.3164 3.08008 27.3164C2.64648 27.3164 2.11328 27.0527 1.48047 26.5254C0.859375 25.9863 0.548828 25.459 0.548828 24.9434C0.548828 22.0254 2.57617 17.9414 6.63086 12.6914C8.17773 10.6875 10.1055 8.44922 12.4141 5.97656C10.3984 7.72266 8.86328 8.5957 7.80859 8.5957C7.24609 8.5957 6.83008 8.32031 6.56055 7.76953C6.31445 7.37109 6.19141 6.99609 6.19141 6.64453C6.19141 6.28125 6.42578 5.88867 6.89453 5.4668C7.36328 5.04492 7.63867 4.83398 7.7207 4.83398C7.80273 4.83398 7.87891 4.86328 7.94922 4.92188C8.01953 4.98047 8.05469 5.0332 8.05469 5.08008C7.89062 5.25586 7.80859 5.37305 7.80859 5.43164C7.80859 5.47852 7.87891 5.50195 8.01953 5.50195C8.16016 5.50195 9.33203 4.83398 11.5352 3.49805C13.7383 2.15039 14.9453 1.47656 15.1562 1.47656C15.7656 1.47656 16.3516 1.64648 16.9141 1.98633C17.4766 2.31445 17.7578 2.5957 17.7578 2.83008C17.7578 3.05273 17.6406 3.35156 17.4062 3.72656C17.1719 4.10156 15.7773 5.94141 13.2227 9.24609C10.668 12.5391 8.81055 15.0352 7.65039 16.7344C6.49023 18.4219 5.64062 19.8105 5.10156 20.9004C4.5625 21.9785 4.29297 22.6348 4.29297 22.8691C4.29297 23.1035 4.32812 23.2207 4.39844 23.2207C4.89062 23.2207 6.64844 21.7383 9.67188 18.7734C12.707 15.7969 15.5957 12.8613 18.3379 9.9668C21.0801 7.06055 22.5684 5.44922 22.8027 5.13281C23.0488 4.81641 23.3125 4.59375 23.5938 4.46484C23.875 4.32422 24.2969 4.25391 24.8594 4.25391C26.4297 4.25391 27.2148 4.55273 27.2148 5.15039C27.2148 5.39648 26.8691 5.91797 26.1777 6.71484C25.498 7.51172 25.0176 8.0918 24.7363 8.45508C23.2715 10.3184 21.6367 12.9434 19.832 16.3301C18.0391 19.7168 17.1426 21.8848 17.1426 22.834C17.1426 23.0918 17.2246 23.2207 17.3887 23.2207C17.5645 23.2207 18.0684 22.8926 18.9004 22.2363C19.7441 21.5684 20.8516 20.5781 22.2227 19.2656C23.5938 17.9414 25.1523 16.3066 26.8984 14.3613C28.6445 12.416 30.3086 10.2598 31.8906 7.89258C33.4844 5.51367 34.2812 4.01953 34.2812 3.41016C34.2812 2.80078 34.0469 2.49609 33.5781 2.49609L32.6816 2.67188ZM46.832 21.8145C46.9141 22.3535 46.9551 22.7812 46.9551 23.0977C46.9551 23.4023 46.8965 23.6719 46.7793 23.9062C46.6738 24.1289 46.4277 24.4512 46.041 24.873C45.666 25.2832 45.2148 25.6992 44.6875 26.1211C43.3984 27.1406 42.0801 27.6504 40.7324 27.6504C38.7988 27.6504 37.832 26.7949 37.832 25.084C37.832 23.5957 39.127 20.6309 41.7168 16.1895C41.8105 16.0254 41.875 15.9082 41.9102 15.8379C41.0078 16.4707 39.2793 18.1992 36.7246 21.0234C34.1816 23.8359 32.4883 25.8281 31.6445 27C31.5742 27.1055 31.3984 27.2227 31.1172 27.3516C30.8359 27.4805 30.6133 27.5449 30.4492 27.5449C30.2969 27.5449 30.1328 27.4922 29.957 27.3867C29.7695 27.293 29.6523 27.2461 29.6055 27.2461C29.4531 27.2461 29.377 27.1934 29.377 27.0879C29.377 26.9941 29.5879 26.4609 30.0098 25.4883C30.4199 24.5039 30.9648 23.2852 31.6445 21.832C33.5078 17.8242 36.2793 12.6094 39.959 6.1875C41.248 3.9375 42.2559 2.34375 42.9824 1.40625C43.498 0.738281 44.3652 0.404297 45.584 0.404297C45.8418 0.404297 45.9883 0.480469 46.0234 0.632812C46.0586 0.785156 46.0762 0.949219 46.0762 1.125C46.0762 1.30078 46.041 1.47656 45.9707 1.65234L44.0898 4.58789C40.3633 10.4004 37.5566 15.2168 35.6699 19.0371C37.498 16.8105 39.2734 15.0938 40.9961 13.8867C42.0625 13.125 42.8594 12.7441 43.3867 12.7441C43.9258 12.7441 44.4121 12.832 44.8457 13.0078C45.2793 13.1719 45.4961 13.5762 45.4961 14.2207C45.4961 14.4551 45.1152 15.3223 44.3535 16.8223C42.0684 21.3223 40.9258 23.8242 40.9258 24.3281C40.9258 24.8203 41.1309 25.0664 41.541 25.0664C42.1387 25.0664 43.0586 24.4863 44.3008 23.3262C45.2383 22.4473 45.8301 21.8848 46.0762 21.6387C46.2168 21.5332 46.3457 21.4805 46.4629 21.4805C46.6855 21.4805 46.8086 21.5918 46.832 21.8145ZM58.9434 13.6406C59.834 13.6406 60.2793 13.9453 60.2793 14.5547C60.2793 14.8828 60.2031 15.123 60.0508 15.2754C59.8984 15.4277 59.5703 15.9375 59.0664 16.8047C58.5742 17.6602 58.0234 18.7617 57.4141 20.1094C56.8164 21.4453 56.4297 22.5879 56.2539 23.5371C56.2188 23.6543 56.2012 23.8184 56.2012 24.0293C56.2012 24.6738 56.377 24.9961 56.7285 24.9961C57.0801 24.9961 57.4961 24.832 57.9766 24.5039C58.457 24.1641 58.8848 23.8066 59.2598 23.4316C59.6348 23.0449 59.998 22.6523 60.3496 22.2539C60.7129 21.8555 60.9297 21.627 61 21.5684C61.0703 21.5098 61.1758 21.4805 61.3164 21.4805C61.5391 21.4805 61.6738 21.6504 61.7207 21.9902C61.7676 22.3301 61.791 22.6816 61.791 23.0449C61.791 23.4082 61.7559 23.6602 61.6855 23.8008C61.3457 24.4688 60.5957 25.2715 59.4355 26.209C58.2871 27.1465 57.2383 27.6152 56.2891 27.6152C55.3516 27.6152 54.6602 27.3281 54.2148 26.7539C53.7695 26.1797 53.5469 25.5469 53.5469 24.8555C53.5469 24.1523 53.6641 23.5371 53.8984 23.0098C52.9258 24.2754 51.8066 25.3477 50.541 26.2266C49.2871 27.1055 48.2617 27.5449 47.4648 27.5449C46.668 27.5449 46.0176 27.3047 45.5137 26.8242C44.8691 26.2266 44.5469 25.4004 44.5469 24.3457C44.5469 23.2793 44.7812 22.2129 45.25 21.1465C45.7305 20.0684 46.3574 19.0898 47.1309 18.2109C47.9043 17.3203 48.7539 16.5117 49.6797 15.7852C51.625 14.2617 53.418 13.5 55.0586 13.5C55.6914 13.5 56.207 13.6055 56.6055 13.8164C57.0039 14.0273 57.2559 14.291 57.3613 14.6074C57.6426 14.1855 57.877 13.9219 58.0645 13.8164C58.2637 13.6992 58.5566 13.6406 58.9434 13.6406ZM56.6055 15.5918C54.6016 15.5918 52.5273 16.7051 50.3828 18.9316C49.6211 19.7285 48.918 20.6836 48.2734 21.7969C47.6406 22.9102 47.3242 23.6719 47.3242 24.082C47.3242 24.4922 47.4414 24.6973 47.6758 24.6973C48.0039 24.6973 48.918 24.0527 50.418 22.7637C51.918 21.4629 52.9141 20.5078 53.4062 19.8984C53.9453 19.2188 55.0117 17.7832 56.6055 15.5918ZM72.2852 4.35938L73.0059 4.53516C73.1113 4.53516 73.2051 4.58789 73.2871 4.69336C73.3691 4.79883 73.4102 4.89844 73.4102 4.99219C73.4102 5.08594 73.2871 5.33789 73.041 5.74805C72.7949 6.1582 72.502 6.62695 72.1621 7.1543C71.834 7.66992 71.6582 7.95117 71.6348 7.99805C72.5488 7.92773 73.1934 7.89258 73.5684 7.89258C73.9551 7.89258 74.2188 7.92188 74.3594 7.98047C74.5 8.02734 74.6582 8.17383 74.834 8.41992C75.0215 8.6543 75.1914 8.83594 75.3438 8.96484C75.4961 9.08203 75.5723 9.26367 75.5723 9.50977C75.5723 9.75586 75.4199 9.9668 75.1152 10.1426C74.8223 10.3066 74.5059 10.4062 74.166 10.4414C71.4473 10.7109 69.9473 10.8516 69.666 10.8633C68.7168 12.3164 67.3867 14.584 65.6758 17.666C63.9766 20.7363 63.0742 22.6582 62.9688 23.4316C62.9219 23.7832 62.8984 24.0703 62.8984 24.293C62.8984 24.75 63.1387 24.9785 63.6191 24.9785C64.0996 24.9785 64.6328 24.7969 65.2188 24.4336C65.8047 24.0586 66.3438 23.6543 66.8359 23.2207C68.1484 22.0488 68.8516 21.4629 68.9453 21.4629C69.25 21.4629 69.4023 21.9902 69.4023 23.0449C69.4023 23.6191 69.1387 24.1348 68.6113 24.5918C67.4277 25.6113 66.4316 26.3789 65.623 26.8945C64.8145 27.4102 64.0059 27.668 63.1973 27.668C63.0215 27.668 62.8574 27.6504 62.7051 27.6152C61.7676 27.4395 61.0762 27.0996 60.6309 26.5957C60.1973 26.0801 59.9805 25.3887 59.9805 24.5215C59.9922 23.6543 60.25 22.6055 60.7539 21.375C61.2695 20.1328 61.9141 18.8145 62.6875 17.4199C63.9531 15.1465 65.2188 13.0137 66.4844 11.0215L65.8164 11.1094C64.457 11.2617 63.666 11.3379 63.4434 11.3379H63.2852C62.9453 11.3379 62.6172 11.2734 62.3008 11.1445C61.9844 11.0039 61.8262 10.834 61.8262 10.6348C61.8262 10.4355 61.9082 10.2422 62.0723 10.0547C62.248 9.86719 62.3535 9.7207 62.3887 9.61523C62.4707 9.35742 62.7754 9.07031 63.3027 8.75391C63.8418 8.4375 64.2461 8.27344 64.5156 8.26172C64.7852 8.23828 65.043 8.2207 65.2891 8.20898C65.5469 8.19727 65.8281 8.18555 66.1328 8.17383C66.4492 8.16211 66.6895 8.15039 66.8535 8.13867L68.4355 8.06836C69.4199 6.5918 70.0938 5.64258 70.457 5.2207C70.832 4.79883 71.0488 4.57031 71.1074 4.53516C71.166 4.48828 71.2832 4.46484 71.459 4.46484L72.2852 4.35938ZM93.6777 13.9395L93.4668 13.0957C93.4668 12.6152 93.6309 12.2402 93.959 11.9707C94.2988 11.6895 94.7207 11.5488 95.2246 11.5488C96.209 11.5488 96.7012 12.1758 96.7012 13.4297C96.7012 14.332 96.2559 15.5801 95.3652 17.1738C94.4746 18.7559 93.4199 20.291 92.2012 21.7793C90.9941 23.2559 89.7109 24.5449 88.3516 25.6465C86.9922 26.7363 85.9434 27.2812 85.2051 27.2812C84.4785 27.2812 83.9629 27.082 83.6582 26.6836C83.3535 26.2852 83.2012 25.9043 83.2012 25.541C83.2012 25.166 83.2188 24.8145 83.2539 24.4863C83.3828 23.3379 83.6992 22.2422 84.2031 21.1992C82.9492 22.8398 81.6016 24.3164 80.1602 25.6289C78.7188 26.9297 77.5117 27.5801 76.5391 27.5801C76.0703 27.5801 75.6953 27.4395 75.4141 27.1582C75.1328 26.877 74.9922 26.4023 74.9922 25.7344C74.9922 25.0547 75.3965 23.7891 76.2051 21.9375C77.0137 20.0742 77.7871 18.5801 78.5254 17.4551C78.2559 17.6191 78.0156 17.7012 77.8047 17.7012C77.6055 17.7012 77.3828 17.5898 77.1367 17.3672C76.9023 17.1328 76.7852 16.9512 76.7852 16.8223C76.7852 16.6934 76.873 16.5059 77.0488 16.2598C77.2246 16.0137 77.8984 15.4102 79.0703 14.4492C80.2422 13.4766 81.0449 12.9902 81.4785 12.9902C81.9121 12.9902 82.3223 13.0723 82.709 13.2363C83.1074 13.4004 83.3066 13.6289 83.3066 13.9219C83.3066 14.2031 82.4922 15.873 80.8633 18.9316C79.2344 21.9902 78.4199 23.6484 78.4199 23.9062C78.4199 23.9414 78.4316 23.959 78.4551 23.959C78.7012 23.959 79.9258 22.7051 82.1289 20.1973C84.3438 17.6895 86.084 15.627 87.3496 14.0098C87.5254 13.7168 87.7891 13.5703 88.1406 13.5703L88.2988 13.5879L89.2656 13.3945C89.418 13.3945 89.5645 13.4531 89.7051 13.5703C89.8574 13.6875 89.9336 13.793 89.9336 13.8867C89.9336 13.9805 89.7227 14.4023 89.3008 15.1523C88.8906 15.9023 88.2168 17.3203 87.2793 19.4062C86.3418 21.4922 85.873 22.957 85.873 23.8008C85.873 24.0117 85.9492 24.1172 86.1016 24.1172C86.5469 24.1172 87.4727 23.3145 88.8789 21.709C90.2969 20.0918 91.4512 18.5449 92.3418 17.0684C93.2324 15.5918 93.6777 14.5488 93.6777 13.9395ZM107.441 13.8516C107.441 14.625 107.125 15.3047 106.492 15.8906C105.871 16.4766 105.162 16.7695 104.365 16.7695C104.107 16.7695 103.938 16.7109 103.855 16.5938C103.773 16.4648 103.732 16.3008 103.732 16.1016C103.732 15.9023 103.756 15.709 103.803 15.5215C103.381 15.6621 102.912 15.8789 102.396 16.1719C101.881 16.4648 101.248 16.8984 100.498 17.4727C99.748 18.0469 99.373 18.4746 99.373 18.7559C99.373 18.8496 99.5078 18.8965 99.7773 18.8965C100.059 18.8965 100.486 18.8027 101.061 18.6152C101.635 18.416 102.033 18.3164 102.256 18.3164C102.49 18.3164 102.643 18.3281 102.713 18.3516C102.865 18.4336 103.029 18.6152 103.205 18.8965C103.381 19.166 103.469 19.3828 103.469 19.5469C103.469 19.6992 103.316 19.9043 103.012 20.1621C102.707 20.4199 102.361 20.6191 101.975 20.7598C101.588 20.8887 101.33 20.9883 101.201 21.0586C98.7285 22.4414 97.4922 23.3906 97.4922 23.9062C97.4922 24.8203 98.2715 25.2773 99.8301 25.2773C100.826 25.2773 101.828 24.9609 102.836 24.3281C103.691 23.7891 104.459 23.2441 105.139 22.6934C105.83 22.1309 106.264 21.7852 106.439 21.6562C106.627 21.5273 106.768 21.4629 106.861 21.4629C107.166 21.4629 107.318 21.8027 107.318 22.4824C107.318 23.1621 107.277 23.6133 107.195 23.8359C107.113 24.0469 106.879 24.3105 106.492 24.627C103.984 26.666 101.611 27.6855 99.373 27.6855C98.1777 27.6855 97.2227 27.5215 96.5078 27.1934C95.1953 26.5957 94.5391 25.6816 94.5391 24.4512C94.5391 22.834 95.6582 21.6094 97.8965 20.7773C97.4512 20.5781 97.1641 20.3262 97.0352 20.0215C96.9062 19.7051 96.8418 19.207 96.8418 18.5273C96.8418 17.8359 97.1582 17.1094 97.791 16.3477C98.4355 15.5742 99.2207 14.9414 100.146 14.4492C102.209 13.3359 104.049 12.7793 105.666 12.7793C106.053 12.7793 106.445 12.873 106.844 13.0605C107.242 13.248 107.441 13.5117 107.441 13.8516ZM143.143 5.15039C143.143 5.74805 142.762 6.46875 142 7.3125C141.238 8.15625 140.295 8.95898 139.17 9.7207C138.057 10.4824 136.949 11.0859 135.848 11.5312C136.094 11.4492 136.346 11.4082 136.604 11.4082C137.471 11.4082 138.045 11.5664 138.326 11.8828C138.396 11.9531 138.432 12.0352 138.432 12.1289C138.432 12.2227 138.273 12.4512 137.957 12.8145C134.664 16.623 131.641 20.4023 128.887 24.1523C130.012 23.2734 131.008 22.4355 131.875 21.6387C132.355 21.2051 132.941 20.9883 133.633 20.9883C134.137 20.9883 134.447 21.0527 134.564 21.1816C134.682 21.3105 134.74 21.4219 134.74 21.5156C134.74 21.5977 134.664 21.6973 134.512 21.8145C132.555 23.5254 129.361 26.0215 124.932 29.3027C124.17 30.1582 122.248 32.1973 119.166 35.4199C118.615 35.9824 118.006 36.2637 117.338 36.2637C116.037 36.2637 115.387 35.9004 115.387 35.1738C115.387 34.8574 115.639 34.3535 116.143 33.6621C116.869 32.5957 118.645 30.9844 121.469 28.8281C122.09 28.1367 123.162 26.9648 124.686 25.3125C127.568 22.1719 129.309 20.1562 129.906 19.2656C128.312 20.7773 127.105 21.8438 126.285 22.4648C125.465 23.0859 124.703 23.625 124 24.082C123.309 24.5391 122.67 24.9082 122.084 25.1895C119.248 26.5488 117.227 26.5547 116.02 25.207C115.41 24.5391 115.105 23.5605 115.105 22.2715C115.105 20.9707 115.463 19.541 116.178 17.9824C116.893 16.4238 117.848 14.8887 119.043 13.377C120.238 11.8535 121.656 10.3711 123.297 8.92969C124.938 7.48828 126.643 6.22266 128.412 5.13281C130.182 4.04297 132.045 3.16992 134.002 2.51367C135.959 1.8457 137.805 1.51172 139.539 1.51172C140.137 1.51172 140.699 1.61133 141.227 1.81055C141.754 2.00977 142.129 2.2207 142.352 2.44336C142.879 2.9707 143.143 3.87305 143.143 5.15039ZM132.982 8.82422L132.895 9.17578C132.895 9.375 133.029 9.47461 133.299 9.47461C134.014 9.47461 134.992 9.12891 136.234 8.4375C137.477 7.74609 138.479 7.03711 139.24 6.31055C140.002 5.58398 140.383 4.98047 140.383 4.5C140.383 4.08984 140.02 3.88477 139.293 3.88477C138.004 3.88477 136.551 4.20117 134.934 4.83398C133.328 5.4668 131.758 6.28711 130.223 7.29492C128.688 8.30273 127.176 9.46289 125.688 10.7754C124.199 12.0762 122.898 13.3828 121.785 14.6953C120.684 15.9961 119.793 17.2734 119.113 18.5273C118.434 19.7812 118.094 20.8535 118.094 21.7441C118.094 22.0957 118.193 22.4062 118.393 22.6758C118.604 22.9453 118.908 23.0801 119.307 23.0801C120.537 23.0801 122.518 22.1367 125.248 20.25C127.99 18.3633 131.137 15.791 134.688 12.5332C134.734 12.4863 134.816 12.3984 134.934 12.2695C135.191 11.9531 135.455 11.7246 135.725 11.584C134.764 11.9707 133.979 12.1641 133.369 12.1641C132.76 12.1641 132.256 12.0293 131.857 11.7598C131.459 11.4902 131.26 11.127 131.26 10.6699C131.26 10.2012 131.465 9.76172 131.875 9.35156C132.285 8.94141 132.572 8.73633 132.736 8.73633C132.9 8.73633 132.982 8.76562 132.982 8.82422ZM142.791 17.4199C145.557 14.2793 147.912 12.709 149.857 12.709C150.338 12.709 150.73 12.8555 151.035 13.1484C151.352 13.4297 151.51 13.7988 151.51 14.2559C151.51 14.7129 151.182 15.4805 150.525 16.5586C149.881 17.625 149.283 18.5273 148.732 19.2656C148.439 19.6406 148.105 19.8281 147.73 19.8281C147.367 19.8281 147.08 19.6934 146.869 19.4238C146.67 19.1543 146.57 18.8379 146.57 18.4746C146.57 17.666 147.004 16.752 147.871 15.7324L147.836 15.6973C147.449 15.7324 146.488 16.4941 144.953 17.9824C143.43 19.4707 142.129 20.8066 141.051 21.9902C139.984 23.1621 138.824 24.5918 137.57 26.2793C137.207 26.7832 136.896 27.0352 136.639 27.0352C136.393 27.0352 136.064 26.959 135.654 26.8066C135.232 26.6426 134.98 26.5254 134.898 26.4551C134.805 26.3848 134.758 26.2676 134.758 26.1035C134.758 25.9395 134.805 25.752 134.898 25.541C134.992 25.3184 135.168 25.0078 135.426 24.6094C135.672 24.2109 136.047 23.5664 136.551 22.6758C137.066 21.7852 137.863 20.4375 138.941 18.6328C140.02 16.8281 140.664 15.7383 140.875 15.3633C141.32 14.5898 141.684 14.0273 141.965 13.6758C142.492 13.0078 143.383 12.6738 144.637 12.6738C144.918 12.6738 145.059 12.8496 145.059 13.2012C145.059 13.752 144.549 14.7891 143.529 16.3125L142.791 17.4199ZM161.564 13.6055C161.916 13.6055 162.273 13.7637 162.637 14.0801C163.012 14.3965 163.199 14.8828 163.199 15.5391C163.199 16.1836 162.971 17.0273 162.514 18.0703C162.057 19.1016 161.43 20.1562 160.633 21.2344C159.836 22.3008 158.957 23.3086 157.996 24.2578C157.047 25.1953 156.016 25.9688 154.902 26.5781C153.801 27.1758 152.799 27.4746 151.896 27.4746C150.994 27.4746 150.268 27.1934 149.717 26.6309C149.178 26.0566 148.908 25.2656 148.908 24.2578C148.908 23.2383 149.154 22.1133 149.646 20.8828C150.15 19.6523 150.795 18.5684 151.58 17.6309C152.365 16.6816 153.215 15.832 154.129 15.082C156.039 13.5469 157.715 12.7793 159.156 12.7793C159.801 12.7793 160.287 12.9375 160.615 13.2539C160.732 13.3594 160.791 13.4531 160.791 13.5352V13.6406C160.955 13.6172 161.213 13.6055 161.564 13.6055ZM159.789 15.9434H159.666C159.256 15.9434 159.051 15.6445 159.051 15.0469C158.195 15.3281 157.299 15.8203 156.361 16.5234C155.424 17.2266 154.586 18.0586 153.848 19.0195C152.348 20.9414 151.586 22.5645 151.562 23.8887C151.562 24.5449 151.803 24.873 152.283 24.873C152.764 24.873 153.479 24.5566 154.428 23.9238C155.377 23.291 156.314 22.3887 157.24 21.2168C158.178 20.0449 158.875 19.0312 159.332 18.1758C159.801 17.3086 160.035 16.7227 160.035 16.418C160.035 16.1016 159.953 15.9434 159.789 15.9434ZM181.076 13.9395L180.865 13.0957C180.865 12.6152 181.029 12.2402 181.357 11.9707C181.697 11.6895 182.119 11.5488 182.623 11.5488C183.607 11.5488 184.1 12.1758 184.1 13.4297C184.1 14.332 183.654 15.5801 182.764 17.1738C181.873 18.7559 180.818 20.291 179.6 21.7793C178.393 23.2559 177.109 24.5449 175.75 25.6465C174.391 26.7363 173.342 27.2812 172.604 27.2812C171.877 27.2812 171.361 27.082 171.057 26.6836C170.752 26.2852 170.6 25.9043 170.6 25.541C170.6 25.166 170.617 24.8145 170.652 24.4863C170.781 23.3379 171.098 22.2422 171.602 21.1992C170.348 22.8398 169 24.3164 167.559 25.6289C166.117 26.9297 164.91 27.5801 163.938 27.5801C163.469 27.5801 163.094 27.4395 162.812 27.1582C162.531 26.877 162.391 26.4023 162.391 25.7344C162.391 25.0547 162.795 23.7891 163.604 21.9375C164.412 20.0742 165.186 18.5801 165.924 17.4551C165.654 17.6191 165.414 17.7012 165.203 17.7012C165.004 17.7012 164.781 17.5898 164.535 17.3672C164.301 17.1328 164.184 16.9512 164.184 16.8223C164.184 16.6934 164.271 16.5059 164.447 16.2598C164.623 16.0137 165.297 15.4102 166.469 14.4492C167.641 13.4766 168.443 12.9902 168.877 12.9902C169.311 12.9902 169.721 13.0723 170.107 13.2363C170.506 13.4004 170.705 13.6289 170.705 13.9219C170.705 14.2031 169.891 15.873 168.262 18.9316C166.633 21.9902 165.818 23.6484 165.818 23.9062C165.818 23.9414 165.83 23.959 165.854 23.959C166.1 23.959 167.324 22.7051 169.527 20.1973C171.742 17.6895 173.482 15.627 174.748 14.0098C174.924 13.7168 175.188 13.5703 175.539 13.5703L175.697 13.5879L176.664 13.3945C176.816 13.3945 176.963 13.4531 177.104 13.5703C177.256 13.6875 177.332 13.793 177.332 13.8867C177.332 13.9805 177.121 14.4023 176.699 15.1523C176.289 15.9023 175.615 17.3203 174.678 19.4062C173.74 21.4922 173.271 22.957 173.271 23.8008C173.271 24.0117 173.348 24.1172 173.5 24.1172C173.945 24.1172 174.871 23.3145 176.277 21.709C177.695 20.0918 178.85 18.5449 179.74 17.0684C180.631 15.5918 181.076 14.5488 181.076 13.9395Z" fill="#7EB693"/>
</svg>
