<svg width="102" height="114" viewBox="0 0 102 114" fill="none" xmlns="http://www.w3.org/2000/svg">
<path d="M72.7975 92.9013C70.8274 100.313 60.6293 102.776 54.0224 102.955C50.6072 103.049 46.6818 102.708 43.8021 100.708C42.7115 99.9573 41.848 98.9119 41.5261 97.6036C41.1609 96.0887 41.4695 93.8202 42.5038 92.6355C43.7412 91.2242 45.8903 92.5413 47.1591 93.2478C48.8545 94.1879 50.5189 95.3279 52.3792 95.9036C56.2141 97.0847 60.8055 94.5144 61.7816 90.5993C62.74 86.7356 59.8371 82.8979 56.1716 81.9189C52.1921 80.8505 47.7689 81.8604 43.8238 82.6524C40.0223 83.4173 35.2934 85.0591 31.484 83.6664C28.6899 82.6341 26.639 80.3166 25.4057 77.6591C25.1938 77.1932 24.1005 75.264 24.5256 74.7021C24.5546 74.6738 25.5492 74.845 25.8234 74.911C29.3233 75.8424 32.7251 78.2435 36.4626 78.0215C39.9652 77.8141 43.2895 74.8635 41.7815 71.2587C40.24 67.5848 36.5937 65.9707 33.0791 64.8332C30.9338 64.1399 28.28 63.338 27.2244 61.1345C26.6158 59.8516 26.305 56.2486 28.0726 55.5184C29.9093 54.7547 32.0146 57.3017 33.9362 57.094C37.3891 56.7258 35.6655 50.6234 34.3784 49.0869C32.786 47.2152 30.3289 46.2609 28.0823 45.4178C25.4708 44.439 22.7901 43.4937 20.4025 42.008C17.8159 40.4057 16.051 38.12 15.3661 35.1251C14.7953 32.6294 15.2056 30.0129 15.9801 27.5893C16.6956 25.3081 17.8794 22.6715 20.0487 21.4192C22.0216 20.2908 23.8991 20.8723 24.918 22.795C26.3346 25.4488 26.5726 30.3101 29.9333 31.3945C31.4852 31.8923 33.4913 31.3308 34.5772 30.1352C35.7735 28.815 36.095 26.8957 36.3564 25.2047C36.6933 22.965 36.779 20.6483 37.4645 18.4812C38.2093 16.1431 40.0195 14.7381 42.2027 13.7492C46.6152 11.7492 52.6056 12.3247 54.4271 17.4552C56.1599 22.3445 52.3584 26.3657 50.5765 30.5866C48.7594 34.8815 49.1206 44.6314 56.0717 42.0814C58.7187 41.1091 61.0606 39.3323 63.4107 37.8074C65.6282 36.3611 68.1827 34.5237 70.8904 34.2045C73.2481 33.9272 75.3242 36.0618 74.9796 38.4616C74.6035 41.0899 71.6523 43.0489 69.6758 44.4635C64.9827 47.8511 57.1178 51.5699 56.4816 58.1212C56.0684 62.3744 59.1273 66.0936 62.9643 67.5724C67.3258 69.2516 72.7287 67.7661 74.0374 62.8933C74.6495 60.6338 74.5076 58.2 75.4165 56.024C76.2664 53.9903 78.4553 52.0745 80.6601 51.6581C84.0939 50.9864 85.5798 54.9859 85.8041 57.7067C86.1289 61.5732 84.6296 65.1734 81.5645 67.5432C79.2397 69.3259 74.5981 71.7927 75.4646 75.3961C76.4288 79.4356 80.6878 78.733 83.7667 78.5037C85.8308 78.3548 87.3282 79.0924 87.6158 81.3275C87.8723 83.2933 86.5565 85.0127 85.1891 86.2738C82.5183 88.7223 78.8353 90.553 75.3132 91.424C74.3192 91.6648 74.6033 93.2475 75.6088 93.001C79.2745 92.103 83.0147 90.2729 85.892 87.8096C88.5897 85.5044 90.789 81.3511 87.9465 78.1951C85.3075 75.253 81.182 78.6068 78.2779 76.732C73.9301 73.9371 81.4801 69.7455 83.3207 68.1978C86.1508 65.8426 87.5027 62.1148 87.4385 58.4916C87.3892 55.5152 86.3642 51.7612 83.3961 50.4293C80.0121 48.9155 75.8063 51.8106 74.2694 54.7466C73.1607 56.8632 73.1542 59.2553 72.7191 61.5567C72.1496 64.5492 70.0966 66.5982 66.9331 66.712C62.1939 66.8657 57.0965 62.6146 58.1838 57.5791C58.8942 54.3193 61.9307 51.9492 64.4744 50.0602C67.3359 47.9457 70.4628 46.1432 73.1553 43.798C75.0662 42.1309 77.0131 39.8633 76.5195 37.1452C76.08 34.6853 74.0547 32.6256 71.4944 32.603C68.7337 32.5783 66.0894 34.2602 63.8381 35.6661C61.2864 37.2746 58.8342 39.1761 56.0639 40.3931C53.7948 41.381 52.1087 41.0762 51.5107 38.4657C51.0377 36.406 51.0138 34.1567 51.6915 32.1498C52.4527 29.8748 53.8349 27.8813 54.9037 25.7414C56.965 21.6265 57.2054 16.5188 53.4535 13.2497C50.0871 10.3053 44.9676 10.6437 41.1527 12.4958C39.2164 13.4358 37.3496 14.783 36.4085 16.7756C35.4734 18.7511 35.2623 21.0149 35.0012 23.1467C34.7719 25.0212 34.7524 28.0026 33.1437 29.3239C31.4595 30.7246 29.5971 29.8513 28.7186 28.1591C27.2636 25.3675 26.9983 20.3915 23.3729 19.4072C18.5315 18.089 15.4378 23.7147 14.3317 27.4795C12.9088 32.3225 13.2201 37.7454 17.0296 41.4557C18.9429 43.3139 21.3917 44.4855 23.8366 45.5025C26.4753 46.5961 29.4393 47.3327 31.8021 48.9726C32.9779 49.7811 33.9095 50.8787 34.1839 52.3239C34.3022 52.949 34.5556 54.7029 34.0673 55.2813C33.5441 55.905 32.4703 55.1893 31.8493 54.9077C29.6447 53.9162 27.0373 53.0633 25.7714 55.8535C24.8999 57.7839 24.8745 60.3131 25.9227 62.1789C26.9762 64.0848 28.9972 65.1086 30.9643 65.8456C33.0342 66.6182 35.3035 67.0095 37.1149 68.3057C38.5289 69.3113 40.1541 70.8401 40.5046 72.618C40.958 74.8721 38.3054 76.3021 36.3846 76.4526C34.4522 76.6087 32.4012 75.699 30.6453 75.0157C29.1401 74.4383 23.5068 71.3716 22.901 74.5239C22.5093 76.5626 24.2685 79.3061 25.3778 80.8578C26.8249 82.8996 28.8671 84.5246 31.2691 85.3065C35.1431 86.5682 39.6976 85.1249 43.5338 84.3431C47.5651 83.5235 52.6865 82.1036 56.6698 83.7957C58.6984 84.6594 60.3211 86.8577 60.3223 89.0896C60.3294 91.7736 58.0294 93.8714 55.5477 94.4506C51.4402 95.4068 48.4218 91.1843 44.598 90.4954C40.8944 89.8193 39.4191 94.2611 39.7775 97.2581C40.1362 100.226 42.5178 102.198 45.1514 103.252C52.1055 106.047 61.5522 104.589 67.899 100.882C70.7838 99.1971 73.3688 96.7476 74.2516 93.4324C74.5734 92.4231 73.0675 91.9028 72.7975 92.9013Z" fill="#7EB693"/>
</svg>
