<svg width="133" height="132" viewBox="0 0 133 132" fill="none" xmlns="http://www.w3.org/2000/svg">
<path d="M112.965 87.8194C116.437 77.0207 116.123 63.7067 112.269 53.0592C109.609 45.7303 103.524 36.1836 94.3001 38.228C86.2223 40.03 82.8604 49.7337 82.9875 57.0816C83.1429 65.3346 85.5169 74.0729 89.7958 81.1648C91.9027 84.6603 94.749 88.0911 98.5326 89.8857C102.504 91.7772 106.694 91.3966 110.611 89.5625C112.742 88.5679 110.812 85.4785 108.701 86.4519C94.6554 92.9953 87.7945 69.861 86.8122 60.1928C86.1851 53.973 87.0847 45.8717 93.2595 42.4829C100.284 38.6139 106.287 47.4837 108.353 52.9781C112.308 63.5194 112.872 76.2694 109.42 87.0468C108.706 89.2525 112.253 90.0662 112.965 87.8194Z" fill="#7EB693"/>
<path d="M110.189 87.0858C105.737 79.7523 103.68 71.2716 101.385 63.0868C100.758 60.8209 97.2495 61.88 97.8964 64.1247C100.283 72.5949 102.493 81.3796 107.097 88.976C108.292 90.9767 111.425 89.0852 110.189 87.0858Z" fill="#7EB693"/>
<path d="M85.4678 96.7476C79.8641 92.7252 74.1422 88.8712 68.1836 85.3543C61.3854 81.3288 53.7926 76.9167 45.8676 75.7071C43.0742 75.2813 39.9645 75.2775 37.5672 76.9808C34.9283 78.8565 34.2084 82.1744 34.2838 85.2404C34.3934 90.0558 35.7874 95.1186 38.7488 98.937C42.1397 103.318 46.9892 106.273 52.1331 108.107C63.1493 112.019 78.5112 111.344 85.3581 100.479C86.6142 98.5027 83.3694 96.8145 82.1333 98.7691C76.7977 107.259 64.5814 107.772 55.881 105.475C51.0843 104.207 46.3988 101.885 42.9501 98.2882C39.8422 95.0511 38.3916 90.8139 37.9856 86.3993C37.8583 84.9618 37.8106 83.4394 38.2406 82.0459C38.5016 81.1727 39.0332 80.3938 39.5366 80.0276C41.1264 78.8443 43.5193 78.974 45.6942 79.3783C52.7565 80.6565 59.4248 84.4803 65.5492 88.0331C69.1572 90.1422 72.6868 92.3773 76.1567 94.6762C77.5029 95.5806 78.8492 96.485 80.1968 97.4305C80.7658 97.8448 81.3335 98.218 81.9024 98.6323C82.4078 98.9869 82.7871 99.2631 82.9768 99.4012C84.8721 100.741 87.3844 98.1075 85.4678 96.7476Z" fill="#7EB693"/>
<path d="M82.6581 98.4237C74.8115 97.0881 67.3698 94.2157 59.8028 91.9445C57.5578 91.2747 56.7422 94.8222 58.9872 95.492C66.5542 97.7632 73.9959 100.636 81.8425 101.971C84.1408 102.372 84.9764 98.8029 82.6581 98.4237Z" fill="#7EB693"/>
<path d="M70.972 59.8938C69.4825 50.4683 67.5719 40.0883 61.4023 32.4594C57.6321 27.8019 52.0277 23.0999 45.9793 21.9747C43.3904 21.5012 40.6825 21.8346 38.6806 23.6695C36.3785 25.7816 35.7808 29.0545 35.6267 32.0248C35.2517 39.7799 40.1663 46.7898 45.7759 51.6564C51.9145 56.9798 59.9336 61.193 68.1684 61.7748C70.5002 61.927 70.3657 58.2863 68.0551 58.154C62.0498 57.7482 56.0881 54.7874 51.2443 51.3585C46 47.6335 41.1009 42.4354 39.6019 35.9962C38.6515 31.949 39.0831 24.6863 44.812 25.4716C49.8163 26.1358 54.5136 30.146 57.7777 33.7694C64.0303 40.7572 65.9171 51.035 67.33 59.9893C67.6902 62.2843 71.3321 62.1888 70.972 59.8938Z" fill="#7EB693"/>
<path d="M68.7793 57.122C63.8146 52.4614 59.3906 47.3099 54.4259 42.6493C52.7285 41.0559 50.2163 43.6896 51.9348 45.3029C56.8995 49.9635 61.3235 55.115 66.2882 59.7756C68.0068 61.3889 70.4978 58.7353 68.7793 57.122Z" fill="#7EB693"/>
</svg>
