<svg width="147" height="150" viewBox="0 0 147 150" fill="none" xmlns="http://www.w3.org/2000/svg">
<path d="M32.7978 94.7348C54.3185 114.085 88.9744 129.01 117.35 116.58C118.124 116.245 118.332 115.277 118.029 114.538C114.714 106.687 107.464 100.697 100.924 95.537C93.1165 89.3611 85.0898 84.359 75.6064 81.1495C66.8657 78.1876 58.5402 77.363 49.4029 78.7967C44.8261 79.5044 40.3133 80.6111 35.8472 81.8064C33.8578 82.3488 31.8504 82.9074 29.8591 83.4841C28.4618 83.8876 26.7007 84.0302 25.5979 85.0174C24.947 85.5999 24.9827 86.5129 25.4809 87.1423C27.6281 89.9778 30.3956 92.1602 32.7978 94.7348C34.1294 96.1497 36.4055 94.145 35.0578 92.712C32.6556 90.1374 29.888 87.9549 27.7389 85.1537C27.6993 85.8735 27.6597 86.5932 27.622 87.2787C28.3632 86.6152 31.0267 86.3166 32.1442 86.0006C34.0127 85.4687 35.8973 84.9548 37.7639 84.4571C41.7931 83.3923 45.869 82.4159 49.9946 81.7862C58.8016 80.4201 66.7445 81.3265 75.1624 84.2189C83.9517 87.235 91.3443 91.8924 98.6117 97.5742C104.941 102.499 112.098 108.312 115.307 115.899C115.534 115.207 115.76 114.549 115.987 113.857C102.319 119.834 86.8472 118.629 72.907 114.26C59.0173 109.912 45.8839 102.442 35.0416 92.6939C33.6158 91.4285 31.3397 93.4332 32.7978 94.7348Z" fill="#7EB693"/>
<path d="M29.9149 88.4203C45.543 90.8546 60.8311 95.0921 75.7579 100.272C82.1839 102.504 88.6793 104.412 95.1672 106.458C101.942 108.606 108.872 111.037 114.485 115.561C115.999 116.78 117.652 114.225 116.138 113.006C110.722 108.665 104.071 106.146 97.5526 104.03C90.6124 101.77 83.6229 99.7818 76.7246 97.3866C61.5274 92.1228 46.0156 87.89 30.1153 85.4061C28.155 85.1079 28.0051 88.142 29.9149 88.4203Z" fill="#7EB693"/>
<path d="M106.485 113.139C89.9283 111.34 72.9955 109.813 57.5729 103.024C55.7942 102.238 54.8617 105.125 56.6404 105.912C72.2812 112.799 89.5043 114.359 106.301 116.171C108.249 116.383 108.415 113.367 106.485 113.139Z" fill="#7EB693"/>
<path d="M87.2723 94.3641C78.5196 90.3702 69.2131 88.6316 59.7944 87.0586C57.8702 86.728 57.7204 89.7622 59.6283 90.0747C68.8253 91.6181 77.8395 93.3576 86.3579 97.2354C88.1166 98.0725 89.0329 95.1669 87.2723 94.3641Z" fill="#7EB693"/>
<path d="M54.7365 97.4174C50.9972 95.7137 47.4538 93.574 43.5585 92.2055C42.7835 91.9217 41.8965 92.4224 41.6475 93.1992C41.3803 93.9922 41.8491 94.8434 42.6423 95.111C46.5375 96.4796 50.0809 98.6193 53.8202 100.323C54.5753 100.657 55.5023 100.056 55.7313 99.3292C55.9841 98.4838 55.4735 97.7678 54.7365 97.4174Z" fill="#7EB693"/>
<path d="M16.0509 60.1971C44.0802 67.7911 81.5652 65.3574 101.341 41.4653C101.911 40.7923 101.448 39.8383 100.89 39.3603C94.2878 33.7671 84.8793 31.6962 76.6333 30.0511C67.52 28.2373 58.7671 27.3718 49.4896 28.5398C40.1779 29.7058 32.1522 32.4906 24.4305 37.8706C20.4621 40.6406 16.7652 43.7867 13.1493 47.0232C11.5402 48.4635 9.9293 49.938 8.33641 51.3963C7.21359 52.4339 5.70135 53.3639 5.14041 54.811C4.92078 55.366 5.18017 56.2743 5.76579 56.5647C9.06142 58.2093 12.6136 58.9399 16.0509 60.1971C17.8876 60.8666 18.8201 57.9791 16.9834 57.3096C13.8165 56.1363 10.4481 55.5018 7.40097 54.0258C7.6088 54.6218 7.81853 55.1835 8.02636 55.7795C8.38575 54.8713 10.8125 53.2531 11.6984 52.4602C13.2009 51.0828 14.7034 49.7053 16.2382 48.3641C19.5088 45.4693 22.8602 42.6649 26.4527 40.1663C33.8347 35.0251 41.6882 32.5574 50.5649 31.4874C59.4235 30.4336 67.8281 31.3829 76.514 33.1557C84.282 34.7399 93.0431 36.706 99.2346 41.9496C99.0848 41.2365 98.9331 40.5577 98.7832 39.8446C89.2644 51.3299 74.8648 57.1804 60.4501 59.5579C46.0878 61.921 31.0223 61.1338 16.9996 57.3277C15.103 56.8095 14.1705 59.697 16.0509 60.1971Z" fill="#7EB693"/>
<path d="M10.2529 55.9385C25.7582 50.9231 41.7299 47.7385 57.8669 45.6117C64.5151 44.7442 71.0831 43.4597 77.6903 42.4009C84.3317 41.344 91.2903 40.4594 97.933 41.8778C99.8191 42.275 100.768 39.4057 98.8654 38.9904C85.818 36.2012 72.3869 40.6961 59.4731 42.3492C42.5965 44.4864 25.8489 47.7137 9.6431 52.9652C7.80512 53.5676 8.41494 56.5409 10.2529 55.9385Z" fill="#7EB693"/>
<path d="M89.9603 43.4103C74.5144 49.2197 58.8023 55.4957 42.1487 56.3905C40.2182 56.4893 40.034 59.5215 41.9827 59.4065C59.2046 58.4918 75.3337 52.136 91.323 46.1333C93.1486 45.4443 91.7678 42.7374 89.9603 43.4103Z" fill="#7EB693"/>
<path d="M64.7261 35.2671C55.097 35.642 46.0344 38.2143 36.8883 41.0569C35.0341 41.6413 35.6439 44.6146 37.4981 44.0303C46.3644 41.2751 55.2051 38.6733 64.5601 38.2831C66.5068 38.2024 66.6728 35.1864 64.7261 35.2671Z" fill="#7EB693"/>
<path d="M37.0736 52.6523C32.8355 52.8289 28.5895 52.5237 24.3648 53.0792C23.5852 53.1905 23.0021 54.1035 23.1663 54.8689C23.3771 55.723 24.1265 56.16 24.9566 56.0687C25.9961 55.9203 26.79 55.8614 27.7553 55.812C28.7891 55.7664 29.8211 55.7551 30.853 55.7438C32.8645 55.7355 34.8561 55.7776 36.8714 55.7008C37.6634 55.6761 38.4657 55.1535 38.4624 54.2767C38.522 53.5065 37.9342 52.6315 37.0736 52.6523Z" fill="#7EB693"/>
</svg>
