<svg width="123" height="121" viewBox="0 0 123 121" fill="none" xmlns="http://www.w3.org/2000/svg">
<path d="M103.795 69.6598C98.6171 67.8775 92.1987 64.7035 92.1407 58.3548C92.1075 54.0466 94.5796 50.0731 95.7669 46.031C98.0496 38.2547 95.1004 29.738 90.1319 23.6632C85.0329 17.4205 77.5591 13.0131 69.5875 11.6874C65.6722 11.0302 61.6246 11.1435 57.7854 12.1653C53.9305 13.1876 50.2442 15.096 46.8359 17.1442C39.2523 21.7187 32.515 27.846 27.0794 34.8311C21.7416 41.6959 17.4239 49.6699 15.8169 58.2928C15.0813 62.2735 14.9145 66.4395 15.6264 70.4446C16.4888 75.2582 18.8566 79.6953 21.9609 83.4285C28.3157 91.0624 37.8054 96.1641 47.4154 98.3604C57.0012 100.534 66.8555 98.0458 73.8059 90.9811C77.4365 87.2912 79.8597 82.7561 82.2119 78.1998C83.4066 75.8937 84.8233 73.4319 87.4401 72.5821C90.0181 71.7413 92.6715 72.5639 95.0577 73.5906C97.1113 74.4871 99.0624 75.6059 101.116 76.4867C101.48 76.6472 101.829 76.5344 102.053 76.1988C103.045 74.6577 104.229 73.267 104.847 71.5111C105.133 70.673 103.786 70.3639 103.5 71.2021C102.94 72.8154 101.746 74.136 100.836 75.5571C101.154 75.461 101.456 75.3653 101.773 75.2692C97.9448 73.6315 94.1586 70.8507 89.8263 70.8637C84.4386 70.8868 82.2188 75.173 80.06 79.4103C77.7532 83.9182 74.9875 88.253 71.1274 91.6061C67.4423 94.8049 62.8782 96.9056 58.0414 97.5369C48.1342 98.8381 37.5292 94.5853 29.6667 88.7513C25.6473 85.7667 22.0907 82.0792 19.6771 77.6748C17.4209 73.5548 16.466 69.0335 16.5617 64.3458C16.7301 55.7375 20.2013 47.4542 24.8347 40.3225C29.6922 32.8552 36.0715 26.2857 43.3079 21.1123C49.7872 16.4871 57.2781 12.4474 65.4418 12.6642C73.5743 12.8821 81.4982 16.6807 87.1687 22.4437C92.6701 28.048 96.5159 36.4813 94.724 44.4453C93.8114 48.5177 91.5412 52.1955 90.8891 56.3457C90.1862 60.8728 92.3391 64.9414 96.0408 67.5216C98.2954 69.0921 100.862 70.1209 103.446 71.0004C104.332 71.3007 104.633 69.9459 103.795 69.6598Z" fill="#7EB693"/>
<path d="M99.021 70.1402C96.0857 68.8104 93.0252 67.727 90.2147 66.1351C88.8454 65.3654 87.5499 64.4525 86.4355 63.3306C85.1913 62.0563 84.3601 60.4874 83.5213 58.9265C80.903 53.9812 79.5106 48.4728 76.569 43.6942C71.0738 34.7894 60.773 29.2599 50.4899 28.2973C44.7484 27.7608 38.9435 28.6966 33.7691 31.286C32.9683 31.6869 33.701 32.8601 34.4943 32.4673C43.8502 27.7972 55.2278 28.9987 64.1899 33.9843C68.9576 36.64 73.0877 40.4109 75.8327 45.1567C78.5692 49.8793 79.9336 55.2399 82.547 60.029C84.1566 62.9809 86.0416 65.2358 88.9437 67.0046C91.9093 68.8027 95.2217 69.9406 98.3711 71.3653C99.1803 71.7306 99.8382 70.513 99.021 70.1402Z" fill="#7EB693"/>
<path d="M83.3575 66.1422C67.4513 63.6773 50.488 63.4203 35.8644 55.9562C31.6204 53.7921 27.756 51.0138 24.4427 47.6C23.8284 46.9627 22.8823 47.9704 23.4966 48.6078C35.472 60.9114 53.1552 63.6794 69.4307 65.7024C73.9767 66.2692 78.5287 66.7811 83.0553 67.4814C83.9201 67.6259 84.2298 66.2787 83.3575 66.1422Z" fill="#7EB693"/>
<path d="M75.4326 57.5967C65.5454 45.2969 49.4933 38.9185 34.0642 37.7053C33.1782 37.6319 33.2293 39.0146 34.1073 39.0804C48.9875 40.2485 64.7132 46.4418 74.2504 58.307C74.7961 59.0013 75.9783 58.291 75.4326 57.5967Z" fill="#7EB693"/>
<path d="M61.8748 54.5722C55.4652 53.6816 49.4733 50.8928 44.0925 47.3886C43.35 46.9039 42.7001 48.129 43.4426 48.6137C48.9111 52.1699 55.0456 55.0167 61.565 55.9194C62.4369 56.0402 62.7623 54.6925 61.8748 54.5722Z" fill="#7EB693"/>
<path d="M78.222 71.7729C71.3565 73.8062 64.2918 75.4704 57.0907 75.2776C49.3806 75.0619 42.2761 72.4572 35.4729 68.9827C30.7281 66.5608 25.8981 63.6647 23.0699 59.0076C22.6079 58.2403 21.4262 58.9662 21.8882 59.7335C24.3451 63.7689 28.2417 66.5775 32.294 68.865C36.0673 70.9815 40.0297 72.8964 44.1323 74.2907C51.0732 76.666 58.3627 77.1844 65.6108 76.1322C70.0247 75.4832 74.3464 74.3834 78.6158 73.1133C79.4679 72.8516 79.0745 71.5267 78.222 71.7729Z" fill="#7EB693"/>
<path d="M75.9941 77.2484C71.022 82.8033 64.4904 86.7576 57.1261 88.0951C48.7505 89.6056 40.2517 87.6788 33.4293 82.5938C29.3132 79.5184 25.8077 75.712 22.0766 72.1942C21.432 71.5891 20.4779 72.5893 21.1306 73.202C28.069 79.7458 34.6291 87.1933 44.3985 89.2359C51.9006 90.8034 59.7535 89.8336 66.5891 86.3466C70.5457 84.3279 74.0469 81.5024 77.0093 78.2015C77.5982 77.5258 76.591 76.5803 75.9941 77.2484Z" fill="#7EB693"/>
<path d="M54.1955 81.3843C49.2961 81.517 44.3671 80.4541 40.4763 77.3325C39.7863 76.7757 38.8403 77.7835 39.5303 78.3402C43.7101 81.7029 48.949 82.9202 54.231 82.7675C55.1297 82.7467 55.0862 81.3559 54.1955 81.3843Z" fill="#7EB693"/>
<path d="M66.5991 69.7816C60.6294 69.6982 54.7533 68.6107 48.9622 67.2389C48.0954 67.0319 47.7857 68.3792 48.6524 68.5862C54.5539 69.9857 60.5555 71.0848 66.6346 71.1648C67.5343 71.1752 67.4913 69.8001 66.5991 69.7816Z" fill="#7EB693"/>
<path d="M36.2282 62.7565C33.1655 61.3526 30.1426 59.9708 27.8723 57.3997C27.2807 56.7382 26.3346 57.7459 26.9263 58.4075C29.2776 61.0698 32.428 62.5257 35.594 63.9812C36.3875 64.3469 37.0454 63.1293 36.2282 62.7565Z" fill="#7EB693"/>
<path d="M34.4229 46.9146C31.554 45.7078 28.8326 44.2147 25.9562 43.016C25.14 42.6744 24.4901 43.8995 25.3063 44.2411C28.1752 45.4479 30.8966 46.941 33.773 48.1397C34.5968 48.4732 35.2472 47.2637 34.4229 46.9146Z" fill="#7EB693"/>
<path d="M88.8926 52.6395C87.3121 46.1204 86.1891 39.2269 81.9906 33.7689C77.5721 28.0285 71.0054 23.866 63.9989 22.1419C59.9241 21.1378 55.6939 20.9128 51.5207 21.257C50.6315 21.3323 50.6745 22.7074 51.5637 22.6321C60.9945 21.8544 69.8718 24.3792 77.0661 30.602C80.3296 33.423 82.8068 36.8556 84.3332 40.8972C85.8088 44.8153 86.5725 48.9751 87.5676 53.0336C87.7826 53.9027 89.0995 53.501 88.8926 52.6395Z" fill="#7EB693"/>
<path d="M89.2975 34.2087C87.5002 31.0047 85.7089 27.7458 83.2755 24.961C80.7933 22.1151 77.6646 20.1032 74.0557 18.9904C73.2107 18.728 72.9009 20.0752 73.746 20.3376C77.2445 21.4227 80.1937 23.4481 82.557 26.243C84.7899 28.87 86.4347 31.9459 88.1159 34.9346C88.5547 35.7105 89.7287 34.9927 89.2975 34.2087Z" fill="#7EB693"/>
</svg>
