<svg width="247" height="28" viewBox="0 0 247 28" fill="none" xmlns="http://www.w3.org/2000/svg">
<path d="M9.40234 16.5234C5.75781 22.5352 3.75977 26.0508 3.4082 27.0703C3.4082 27.1172 3.23242 27.1875 2.88086 27.2812C2.5293 27.3867 2.30664 27.4395 2.21289 27.4395C2.13086 27.4395 2.06055 27.3867 2.00195 27.2812C1.73242 26.7891 1.5332 26.4668 1.4043 26.3145C1.27539 26.1621 1.14648 26.0508 1.01758 25.9805C0.900391 25.9102 0.841797 25.8633 0.841797 25.8398C0.841797 25.5586 2.05469 23.4023 4.48047 19.3711C6.90625 15.3281 8.8457 12.2812 10.2988 10.2305C9.87695 10.5234 9.49023 10.8105 9.13867 11.0918C8.79883 11.373 8.58789 11.5137 8.50586 11.5137C8.43555 11.5137 8.37695 11.4668 8.33008 11.373C8.2832 11.2676 8.24219 11.1445 8.20703 11.0039C8.17188 10.8633 8.11328 10.7344 8.03125 10.6172C7.94922 10.4883 7.91406 10.3828 7.92578 10.3008C7.9375 10.207 7.98438 10.0547 8.06641 9.84375C8.14844 9.63281 8.58789 9.1582 9.38477 8.41992C10.1934 7.68164 11.0547 6.98438 11.9688 6.32812C12.8945 5.66016 13.5156 5.32617 13.832 5.32617C14.1484 5.32617 14.4824 5.51367 14.834 5.88867C15.1855 6.25195 15.3613 6.59766 15.3613 6.92578C15.3496 7.06641 14.5527 8.37305 12.9707 10.8457C11.4004 13.3066 10.2109 15.1992 9.40234 16.5234ZM28.8438 8.12109C28.8555 8.33203 28.791 8.82422 28.6504 9.59766C28.5098 10.3594 28.0586 11.3262 27.2969 12.498C27.3086 12.5449 27.3203 12.6562 27.332 12.832C27.3438 12.9961 27.3145 13.248 27.2441 13.5879C27.1855 13.916 26.9277 14.5312 26.4707 15.4336C26.0254 16.3242 25.457 17.2969 24.7656 18.3516C24.0742 19.4062 23.2598 20.4727 22.3223 21.5508C21.3965 22.6289 20.4414 23.6074 19.457 24.4863C18.4844 25.3652 17.4414 26.0859 16.3281 26.6484C15.2148 27.1992 14.207 27.4746 13.3047 27.4746C12.4023 27.4746 11.6758 27.2051 11.125 26.666C10.5859 26.1152 10.2988 25.3418 10.2637 24.3457C10.2285 23.3496 10.4746 22.1484 11.002 20.7422C11.541 19.3359 12.2559 17.9355 13.1465 16.541C14.0371 15.1465 15.0684 13.7695 16.2402 12.4102C17.4238 11.0391 18.6191 9.83203 19.8262 8.78906C21.0332 7.74609 22.2402 6.90234 23.4473 6.25781C24.6543 5.61328 25.6387 5.29102 26.4004 5.29102C27.1621 5.29102 27.7539 5.56055 28.1758 6.09961C28.5977 6.63867 28.8203 7.3125 28.8438 8.12109ZM13.4805 23.0098C13.5039 23.9473 13.8496 24.416 14.5176 24.416C15.1973 24.416 16.0352 24.0293 17.0312 23.2559C18.7305 21.9434 20.7227 19.7637 23.0078 16.7168C22.375 17.0801 21.8652 17.2617 21.4785 17.2617C21.1035 17.2617 20.8164 17.127 20.6172 16.8574C20.418 16.5762 20.3125 16.1836 20.3008 15.6797C20.2891 15.1758 20.459 14.8535 20.8105 14.7129C22.2754 14.1387 23.4766 13.248 24.4141 12.041C25.3516 10.834 25.8027 9.69141 25.7676 8.61328C25.7441 8.23828 25.4805 8.05078 24.9766 8.05078C24.4727 8.05078 23.623 8.57227 22.4277 9.61523C21.2441 10.6465 20.0547 11.8887 18.8594 13.3418C17.6641 14.7949 16.5508 16.3652 15.5195 18.0527C14.5 19.7402 13.8379 21.1758 13.5332 22.3594C13.4746 22.5586 13.457 22.7754 13.4805 23.0098ZM44.2422 8.12109C44.2539 8.33203 44.1895 8.82422 44.0488 9.59766C43.9082 10.3594 43.457 11.3262 42.6953 12.498C42.707 12.5449 42.7188 12.6562 42.7305 12.832C42.7422 12.9961 42.7129 13.248 42.6426 13.5879C42.584 13.916 42.3262 14.5312 41.8691 15.4336C41.4238 16.3242 40.8555 17.2969 40.1641 18.3516C39.4727 19.4062 38.6582 20.4727 37.7207 21.5508C36.7949 22.6289 35.8398 23.6074 34.8555 24.4863C33.8828 25.3652 32.8398 26.0859 31.7266 26.6484C30.6133 27.1992 29.6055 27.4746 28.7031 27.4746C27.8008 27.4746 27.0742 27.2051 26.5234 26.666C25.9844 26.1152 25.6973 25.3418 25.6621 24.3457C25.627 23.3496 25.873 22.1484 26.4004 20.7422C26.9395 19.3359 27.6543 17.9355 28.5449 16.541C29.4355 15.1465 30.4668 13.7695 31.6387 12.4102C32.8223 11.0391 34.0176 9.83203 35.2246 8.78906C36.4316 7.74609 37.6387 6.90234 38.8457 6.25781C40.0527 5.61328 41.0371 5.29102 41.7988 5.29102C42.5605 5.29102 43.1523 5.56055 43.5742 6.09961C43.9961 6.63867 44.2188 7.3125 44.2422 8.12109ZM28.8789 23.0098C28.9023 23.9473 29.248 24.416 29.916 24.416C30.5957 24.416 31.4336 24.0293 32.4297 23.2559C34.1289 21.9434 36.1211 19.7637 38.4062 16.7168C37.7734 17.0801 37.2637 17.2617 36.877 17.2617C36.502 17.2617 36.2148 17.127 36.0156 16.8574C35.8164 16.5762 35.7109 16.1836 35.6992 15.6797C35.6875 15.1758 35.8574 14.8535 36.209 14.7129C37.6738 14.1387 38.875 13.248 39.8125 12.041C40.75 10.834 41.2012 9.69141 41.166 8.61328C41.1426 8.23828 40.8789 8.05078 40.375 8.05078C39.8711 8.05078 39.0215 8.57227 37.8262 9.61523C36.6426 10.6465 35.4531 11.8887 34.2578 13.3418C33.0625 14.7949 31.9492 16.3652 30.918 18.0527C29.8984 19.7402 29.2363 21.1758 28.9316 22.3594C28.873 22.5586 28.8555 22.7754 28.8789 23.0098ZM55.1406 7.96289C55.0469 8.80664 54.7246 9.84375 54.1738 11.0742C53.6348 12.293 53.1016 13.2949 52.5742 14.0801C52.0469 14.8652 51.4844 15.5859 50.8867 16.2422C49.5742 17.707 48.1387 18.4629 46.5801 18.5098C45.9238 18.5332 45.373 18.3047 44.9277 17.8242C44.4941 17.332 44.2773 16.6289 44.2773 15.7148C44.2773 14.8008 44.5703 13.7109 45.1562 12.4453C45.7422 11.168 46.4688 9.99023 47.3359 8.91211C48.2031 7.82227 49.1699 6.90234 50.2363 6.15234C51.3145 5.39063 52.2988 5.00977 53.1895 5.00977C53.6699 5.00977 54.1152 5.33203 54.5254 5.97656C54.9355 6.62109 55.1406 7.2832 55.1406 7.96289ZM46.7383 15.3984C46.7383 15.832 46.8555 16.0488 47.0898 16.0488C47.6992 16.0488 48.3555 15.7266 49.0586 15.082C49.7734 14.4375 50.4004 13.6699 50.9395 12.7793C51.4785 11.8887 51.9297 10.9688 52.293 10.0195C52.6562 9.07031 52.8379 8.37891 52.8379 7.94531C52.8379 7.51172 52.7617 7.29492 52.6094 7.29492C52.1523 7.29492 51.4492 7.76953 50.5 8.71875C49.5625 9.66797 48.7012 10.8047 47.916 12.1289C47.1309 13.4414 46.7383 14.5312 46.7383 15.3984ZM64.0352 16.3477C64.0352 16.5469 63.9531 16.8809 63.7891 17.3496C63.625 17.8184 63.5898 18.1758 63.6836 18.4219C63.7891 18.668 63.7539 19.043 63.5781 19.5469C63.4141 20.0508 63.1621 20.6367 62.8223 21.3047C62.4941 21.9609 62.0664 22.6523 61.5391 23.3789C61.0234 24.1055 60.4727 24.7734 59.8867 25.3828C59.3008 25.9805 58.6387 26.4785 57.9004 26.877C57.1621 27.2754 56.4473 27.4746 55.7559 27.4746C55.0645 27.4746 54.502 27.2344 54.0684 26.7539C53.6348 26.2734 53.418 25.582 53.418 24.6797C53.418 23.7656 53.6992 22.6758 54.2617 21.4102C54.8359 20.1328 55.5449 18.9551 56.3887 17.877C57.2324 16.7871 58.1816 15.8672 59.2363 15.1172C60.291 14.3555 61.2637 13.9746 62.1543 13.9746C62.6582 13.9746 63.0977 14.209 63.4727 14.6777C63.8477 15.1465 64.0352 15.7031 64.0352 16.3477ZM55.8789 24.3633C55.8789 24.7969 55.9961 25.0137 56.2305 25.0137C56.9336 25.0137 57.7363 24.4805 58.6387 23.4141C59.541 22.3477 60.291 21.1523 60.8887 19.8281C61.498 18.4922 61.8027 17.4258 61.8027 16.6289C61.8027 16.3828 61.7266 16.2598 61.5742 16.2598C61.1172 16.2598 60.4316 16.7344 59.5176 17.6836C58.6035 18.6328 57.7656 19.7695 57.0039 21.0938C56.2539 22.4062 55.8789 23.4961 55.8789 24.3633ZM63.1914 5.04492C63.4023 5.04492 63.5078 5.23828 63.5078 5.625C63.5078 6 63.4961 6.25195 63.4727 6.38086C63.4609 6.49805 63.4492 6.61523 63.4375 6.73242C63.4258 6.84961 63.4141 6.93164 63.4023 6.97852C63.3906 7.02539 63.3672 7.11328 63.332 7.24219C63.2969 7.37109 63.2617 7.47656 63.2266 7.55859C63.0391 7.96875 61.7676 9.48633 59.4121 12.1113C54.9121 17.1504 50.8926 21.9844 47.3535 26.6133C47.3066 26.6719 47.2363 26.7891 47.1426 26.9648C46.9668 27.3047 46.7617 27.4746 46.5273 27.4746C46.0586 27.4746 45.8242 26.9414 45.8242 25.875C45.8242 25.4531 45.8711 25.043 45.9648 24.6445C46.0703 24.2461 46.1523 23.9941 46.2109 23.8887C46.2812 23.7832 46.3398 23.707 46.3867 23.6602C46.4336 23.5898 47.2598 22.6172 48.8652 20.7422C50.4707 18.8555 52.8672 16.1602 56.0547 12.6562C59.2422 9.14062 61.123 7.06055 61.6973 6.41602C62.2715 5.75977 62.5879 5.40234 62.6465 5.34375C62.7168 5.28516 62.7812 5.23828 62.8398 5.20312C62.9922 5.09766 63.1094 5.04492 63.1914 5.04492ZM88.7148 2.02148L89.998 1.74023C90.3262 1.74023 90.5898 1.81055 90.7891 1.95117C90.9883 2.0918 91.0879 2.22656 91.0879 2.35547C91.0879 2.47266 91.0586 2.64844 91 2.88281C90.9414 3.11719 90.4668 5.40234 89.5762 9.73828C88.6855 14.0742 88.0352 17.3086 87.625 19.4414C89.6172 16.7344 91.9434 13.4004 94.6035 9.43945C97.2637 5.47852 98.8164 2.84766 99.2617 1.54688C99.4023 1.13672 99.584 0.820313 99.8066 0.597656C100.029 0.375 100.229 0.246094 100.404 0.210938C100.58 0.164062 100.85 0.140625 101.213 0.140625C101.576 0.140625 102.004 0.222656 102.496 0.386719C103 0.539063 103.252 0.796875 103.252 1.16016C103.252 1.85156 102.227 3.84375 100.176 7.13672C98.125 10.4297 95.7812 13.9277 93.1445 17.6309C90.5195 21.334 88.3223 24.2637 86.5527 26.4199C86.2363 26.8066 85.8496 27 85.3926 27C84.9473 27 84.4727 26.9238 83.9688 26.7715C83.4766 26.6074 83.2305 26.3262 83.2305 25.9277C83.2305 24.6387 84.3613 18.4453 86.623 7.34766C84.6895 9.85547 82.3398 13.3477 79.5742 17.8242C76.6914 22.4531 75.0625 25.3242 74.6875 26.4375C74.4766 27.1055 74.2363 27.4922 73.9668 27.5977C73.7793 27.6797 73.5801 27.7207 73.3691 27.7207L71.9805 27.8789C71.7109 27.8789 71.4648 27.8027 71.2422 27.6504C71.0078 27.498 70.8906 27.3398 70.8906 27.1758C70.8906 26.707 71.5352 25.3066 72.8242 22.9746C74.125 20.6426 75.6367 18.1113 77.3594 15.3809C79.0938 12.6387 80.9043 9.97266 82.791 7.38281C84.6777 4.79297 86.1367 3.05273 87.168 2.16211C87.3789 1.97461 87.6191 1.88086 87.8887 1.88086L88.7148 2.02148ZM109.334 13.6406C110.225 13.6406 110.67 13.9453 110.67 14.5547C110.67 14.8828 110.594 15.123 110.441 15.2754C110.289 15.4277 109.961 15.9375 109.457 16.8047C108.965 17.6602 108.414 18.7617 107.805 20.1094C107.207 21.4453 106.82 22.5879 106.645 23.5371C106.609 23.6543 106.592 23.8184 106.592 24.0293C106.592 24.6738 106.768 24.9961 107.119 24.9961C107.471 24.9961 107.887 24.832 108.367 24.5039C108.848 24.1641 109.275 23.8066 109.65 23.4316C110.025 23.0449 110.389 22.6523 110.74 22.2539C111.104 21.8555 111.32 21.627 111.391 21.5684C111.461 21.5098 111.566 21.4805 111.707 21.4805C111.93 21.4805 112.064 21.6504 112.111 21.9902C112.158 22.3301 112.182 22.6816 112.182 23.0449C112.182 23.4082 112.146 23.6602 112.076 23.8008C111.736 24.4688 110.986 25.2715 109.826 26.209C108.678 27.1465 107.629 27.6152 106.68 27.6152C105.742 27.6152 105.051 27.3281 104.605 26.7539C104.16 26.1797 103.938 25.5469 103.938 24.8555C103.938 24.1523 104.055 23.5371 104.289 23.0098C103.316 24.2754 102.197 25.3477 100.932 26.2266C99.6777 27.1055 98.6523 27.5449 97.8555 27.5449C97.0586 27.5449 96.4082 27.3047 95.9043 26.8242C95.2598 26.2266 94.9375 25.4004 94.9375 24.3457C94.9375 23.2793 95.1719 22.2129 95.6406 21.1465C96.1211 20.0684 96.748 19.0898 97.5215 18.2109C98.2949 17.3203 99.1445 16.5117 100.07 15.7852C102.016 14.2617 103.809 13.5 105.449 13.5C106.082 13.5 106.598 13.6055 106.996 13.8164C107.395 14.0273 107.646 14.291 107.752 14.6074C108.033 14.1855 108.268 13.9219 108.455 13.8164C108.654 13.6992 108.947 13.6406 109.334 13.6406ZM106.996 15.5918C104.992 15.5918 102.918 16.7051 100.773 18.9316C100.012 19.7285 99.3086 20.6836 98.6641 21.7969C98.0312 22.9102 97.7148 23.6719 97.7148 24.082C97.7148 24.4922 97.832 24.6973 98.0664 24.6973C98.3945 24.6973 99.3086 24.0527 100.809 22.7637C102.309 21.4629 103.305 20.5078 103.797 19.8984C104.336 19.2188 105.402 17.7832 106.996 15.5918ZM122.676 4.35938L123.396 4.53516C123.502 4.53516 123.596 4.58789 123.678 4.69336C123.76 4.79883 123.801 4.89844 123.801 4.99219C123.801 5.08594 123.678 5.33789 123.432 5.74805C123.186 6.1582 122.893 6.62695 122.553 7.1543C122.225 7.66992 122.049 7.95117 122.025 7.99805C122.939 7.92773 123.584 7.89258 123.959 7.89258C124.346 7.89258 124.609 7.92188 124.75 7.98047C124.891 8.02734 125.049 8.17383 125.225 8.41992C125.412 8.6543 125.582 8.83594 125.734 8.96484C125.887 9.08203 125.963 9.26367 125.963 9.50977C125.963 9.75586 125.811 9.9668 125.506 10.1426C125.213 10.3066 124.896 10.4062 124.557 10.4414C121.838 10.7109 120.338 10.8516 120.057 10.8633C119.107 12.3164 117.777 14.584 116.066 17.666C114.367 20.7363 113.465 22.6582 113.359 23.4316C113.312 23.7832 113.289 24.0703 113.289 24.293C113.289 24.75 113.529 24.9785 114.01 24.9785C114.49 24.9785 115.023 24.7969 115.609 24.4336C116.195 24.0586 116.734 23.6543 117.227 23.2207C118.539 22.0488 119.242 21.4629 119.336 21.4629C119.641 21.4629 119.793 21.9902 119.793 23.0449C119.793 23.6191 119.529 24.1348 119.002 24.5918C117.818 25.6113 116.822 26.3789 116.014 26.8945C115.205 27.4102 114.396 27.668 113.588 27.668C113.412 27.668 113.248 27.6504 113.096 27.6152C112.158 27.4395 111.467 27.0996 111.021 26.5957C110.588 26.0801 110.371 25.3887 110.371 24.5215C110.383 23.6543 110.641 22.6055 111.145 21.375C111.66 20.1328 112.305 18.8145 113.078 17.4199C114.344 15.1465 115.609 13.0137 116.875 11.0215L116.207 11.1094C114.848 11.2617 114.057 11.3379 113.834 11.3379H113.676C113.336 11.3379 113.008 11.2734 112.691 11.1445C112.375 11.0039 112.217 10.834 112.217 10.6348C112.217 10.4355 112.299 10.2422 112.463 10.0547C112.639 9.86719 112.744 9.7207 112.779 9.61523C112.861 9.35742 113.166 9.07031 113.693 8.75391C114.232 8.4375 114.637 8.27344 114.906 8.26172C115.176 8.23828 115.434 8.2207 115.68 8.20898C115.938 8.19727 116.219 8.18555 116.523 8.17383C116.84 8.16211 117.08 8.15039 117.244 8.13867L118.826 8.06836C119.811 6.5918 120.484 5.64258 120.848 5.2207C121.223 4.79883 121.439 4.57031 121.498 4.53516C121.557 4.48828 121.674 4.46484 121.85 4.46484L122.676 4.35938ZM133.205 21.4805C133.428 21.4805 133.562 21.6504 133.609 21.9902C133.656 22.3301 133.68 22.6816 133.68 23.0449C133.68 23.4082 133.645 23.6602 133.574 23.8008C133.234 24.457 132.49 25.2598 131.342 26.209C130.193 27.1465 129.104 27.6152 128.072 27.6152C127.439 27.6152 126.854 27.4219 126.314 27.0352C125.775 26.6602 125.506 25.998 125.506 25.0488C125.506 24.0996 125.758 23.168 126.262 22.2539C123.355 25.8984 121.076 27.7207 119.424 27.7207C118.768 27.7207 118.234 27.4863 117.824 27.0176C117.426 26.5488 117.227 26.0684 117.227 25.5762C117.227 25.0723 117.297 24.5566 117.438 24.0293C117.578 23.4902 117.725 23.0098 117.877 22.5879C118.041 22.166 118.275 21.6445 118.58 21.0234C118.896 20.4023 119.131 19.9512 119.283 19.6699C119.436 19.3887 119.676 18.9668 120.004 18.4043C120.344 17.8301 120.783 17.0625 121.322 16.1016C121.873 15.1406 122.324 14.4316 122.676 13.9746C123.039 13.5059 123.391 13.2715 123.73 13.2715C124.07 13.2598 124.369 13.3945 124.627 13.6758C124.885 13.957 125.014 14.1855 125.014 14.3613C125.014 14.5371 124.621 15.3281 123.836 16.7344C121.516 20.9297 120.355 23.373 120.355 24.0645C120.355 24.2402 120.42 24.3281 120.549 24.3281C121.111 24.3281 122.512 23.1094 124.75 20.6719C126.988 18.2344 128.283 16.6758 128.635 15.9961C128.986 15.3047 129.326 14.7246 129.654 14.2559C129.994 13.7871 130.246 13.5 130.41 13.3945C130.914 13.0664 131.564 12.8906 132.361 12.8672C132.49 12.8672 132.59 12.873 132.66 12.8848C132.73 12.8965 132.812 12.9961 132.906 13.1836C133 13.3711 133.047 13.5176 133.047 13.623C132.941 13.9512 132.473 14.8242 131.641 16.2422C130.82 17.6602 130.363 18.4629 130.27 18.6504C128.887 21.5098 128.195 23.373 128.195 24.2402C128.195 24.7324 128.383 24.9785 128.758 24.9785C129.438 24.8848 130.258 24.3398 131.219 23.3438C131.57 22.9805 131.916 22.6113 132.256 22.2363C132.607 21.8613 132.824 21.6445 132.906 21.5859C132.988 21.5156 133.088 21.4805 133.205 21.4805ZM138.303 17.4199C141.068 14.2793 143.424 12.709 145.369 12.709C145.85 12.709 146.242 12.8555 146.547 13.1484C146.863 13.4297 147.021 13.7988 147.021 14.2559C147.021 14.7129 146.693 15.4805 146.037 16.5586C145.393 17.625 144.795 18.5273 144.244 19.2656C143.951 19.6406 143.617 19.8281 143.242 19.8281C142.879 19.8281 142.592 19.6934 142.381 19.4238C142.182 19.1543 142.082 18.8379 142.082 18.4746C142.082 17.666 142.516 16.752 143.383 15.7324L143.348 15.6973C142.961 15.7324 142 16.4941 140.465 17.9824C138.941 19.4707 137.641 20.8066 136.562 21.9902C135.496 23.1621 134.336 24.5918 133.082 26.2793C132.719 26.7832 132.408 27.0352 132.15 27.0352C131.904 27.0352 131.576 26.959 131.166 26.8066C130.744 26.6426 130.492 26.5254 130.41 26.4551C130.316 26.3848 130.27 26.2676 130.27 26.1035C130.27 25.9395 130.316 25.752 130.41 25.541C130.504 25.3184 130.68 25.0078 130.938 24.6094C131.184 24.2109 131.559 23.5664 132.062 22.6758C132.578 21.7852 133.375 20.4375 134.453 18.6328C135.531 16.8281 136.176 15.7383 136.387 15.3633C136.832 14.5898 137.195 14.0273 137.477 13.6758C138.004 13.0078 138.895 12.6738 140.148 12.6738C140.43 12.6738 140.57 12.8496 140.57 13.2012C140.57 13.752 140.061 14.7891 139.041 16.3125L138.303 17.4199ZM158.553 13.6406C159.443 13.6406 159.889 13.9453 159.889 14.5547C159.889 14.8828 159.812 15.123 159.66 15.2754C159.508 15.4277 159.18 15.9375 158.676 16.8047C158.184 17.6602 157.633 18.7617 157.023 20.1094C156.426 21.4453 156.039 22.5879 155.863 23.5371C155.828 23.6543 155.811 23.8184 155.811 24.0293C155.811 24.6738 155.986 24.9961 156.338 24.9961C156.689 24.9961 157.105 24.832 157.586 24.5039C158.066 24.1641 158.494 23.8066 158.869 23.4316C159.244 23.0449 159.607 22.6523 159.959 22.2539C160.322 21.8555 160.539 21.627 160.609 21.5684C160.68 21.5098 160.785 21.4805 160.926 21.4805C161.148 21.4805 161.283 21.6504 161.33 21.9902C161.377 22.3301 161.4 22.6816 161.4 23.0449C161.4 23.4082 161.365 23.6602 161.295 23.8008C160.955 24.4688 160.205 25.2715 159.045 26.209C157.896 27.1465 156.848 27.6152 155.898 27.6152C154.961 27.6152 154.27 27.3281 153.824 26.7539C153.379 26.1797 153.156 25.5469 153.156 24.8555C153.156 24.1523 153.273 23.5371 153.508 23.0098C152.535 24.2754 151.416 25.3477 150.15 26.2266C148.896 27.1055 147.871 27.5449 147.074 27.5449C146.277 27.5449 145.627 27.3047 145.123 26.8242C144.479 26.2266 144.156 25.4004 144.156 24.3457C144.156 23.2793 144.391 22.2129 144.859 21.1465C145.34 20.0684 145.967 19.0898 146.74 18.2109C147.514 17.3203 148.363 16.5117 149.289 15.7852C151.234 14.2617 153.027 13.5 154.668 13.5C155.301 13.5 155.816 13.6055 156.215 13.8164C156.613 14.0273 156.865 14.291 156.971 14.6074C157.252 14.1855 157.486 13.9219 157.674 13.8164C157.873 13.6992 158.166 13.6406 158.553 13.6406ZM156.215 15.5918C154.211 15.5918 152.137 16.7051 149.992 18.9316C149.23 19.7285 148.527 20.6836 147.883 21.7969C147.25 22.9102 146.934 23.6719 146.934 24.082C146.934 24.4922 147.051 24.6973 147.285 24.6973C147.613 24.6973 148.527 24.0527 150.027 22.7637C151.527 21.4629 152.523 20.5078 153.016 19.8984C153.555 19.2188 154.621 17.7832 156.215 15.5918ZM174.373 0.615234C174.936 0.615234 175.428 0.785156 175.85 1.125C176.283 1.45313 176.5 1.94531 176.5 2.60156C176.5 3.25781 176.137 4.28906 175.41 5.69531C174.684 7.08984 173.811 8.51953 172.791 9.98438C171.771 11.4375 170.617 12.9844 169.328 14.625C167.289 17.2266 165.332 19.5645 163.457 21.6387C163.445 21.7793 163.393 22.043 163.299 22.4297C163.217 22.8047 163.176 23.1855 163.176 23.5723C163.176 23.959 163.352 24.3105 163.703 24.627C164.066 24.9316 164.512 25.084 165.039 25.084C165.566 25.084 166.129 24.8965 166.727 24.5215C167.336 24.1465 167.863 23.7305 168.309 23.2734C169.48 22.0664 170.207 21.4629 170.488 21.4629C170.77 21.4629 170.91 21.8906 170.91 22.7461V23.0977C170.91 23.5547 170.828 23.8887 170.664 24.0996C169.68 25.3066 168.572 26.209 167.342 26.8066C166.111 27.3926 164.945 27.6855 163.844 27.6855C162.742 27.6855 161.904 27.3516 161.33 26.6836C160.756 26.0039 160.469 25.0781 160.469 23.9062C160.469 21.6211 161.078 18.9375 162.297 15.8555C163.527 12.7617 164.91 10.1309 166.445 7.96289C169.902 3.06445 172.545 0.615234 174.373 0.615234ZM173.582 3.5332C173.582 3.35742 173.523 3.26953 173.406 3.26953C172.996 3.26953 171.918 4.44141 170.172 6.78516C168.426 9.12891 167.16 10.998 166.375 12.3926C165.602 13.7871 164.869 15.5391 164.178 17.6484C165.561 16.0078 167.471 13.4531 169.908 9.98438C172.357 6.50391 173.582 4.35352 173.582 3.5332ZM182.301 17.3848C181.973 17.3848 181.809 17.1797 181.809 16.7695C181.809 16.4648 181.943 16.1309 182.213 15.7676C182.494 15.4043 182.664 15.1641 182.723 15.0469C182.781 14.9297 182.934 14.748 183.18 14.502C183.438 14.2559 183.66 14.1094 183.848 14.0625C184.047 14.0156 184.445 13.9629 185.043 13.9043C186.871 13.7285 188.863 13.6289 191.02 13.6055C193.363 10.0547 195.273 7.41797 196.75 5.69531C194.559 6.09375 191.869 6.29297 188.682 6.29297C184.357 6.29297 182.195 5.32617 182.195 3.39258C182.195 2.8418 182.471 2.36133 183.021 1.95117C183.584 1.54102 184.287 1.33594 185.131 1.33594C185.986 1.33594 186.414 1.43555 186.414 1.63477C186.414 1.74023 186.279 1.79297 186.01 1.79297C185.752 1.79297 185.506 1.89258 185.271 2.0918C185.049 2.2793 184.938 2.46094 184.938 2.63672C184.938 2.90625 185.512 3.10547 186.66 3.23438C187.809 3.36328 189.578 3.42773 191.969 3.42773C194.371 3.42773 196.973 3.21094 199.773 2.77734C200.699 2.01563 201.566 1.44141 202.375 1.05469C203.195 0.667969 204.027 0.474609 204.871 0.474609C205.715 0.474609 206.266 0.662109 206.523 1.03711C206.781 1.41211 206.91 1.69336 206.91 1.88086C206.922 2.06836 206.787 2.31445 206.506 2.61914C206.225 2.92383 205.832 3.23438 205.328 3.55078C204.145 4.27734 202.592 4.71094 200.67 4.85156C198.619 7.44141 196.504 10.3711 194.324 13.6406C195.227 13.6758 196.07 13.7461 196.855 13.8516C197.641 13.9453 198.033 14.25 198.033 14.7656C198.033 14.9766 197.699 15.3809 197.031 15.9785C196.961 16.0605 196.873 16.1836 196.768 16.3477C196.58 16.6289 196.393 16.7695 196.205 16.7695C196.029 16.7695 195.824 16.7461 195.59 16.6992C194.676 16.6641 193.99 16.6465 193.533 16.6465L192.391 16.6641C188.266 23.0859 186.133 26.4258 185.992 26.6836C185.863 26.9297 185.717 27.1172 185.553 27.2461C185.4 27.375 185.207 27.4395 184.973 27.4395C184.738 27.4395 184.41 27.3984 183.988 27.3164C183.566 27.2461 183.25 27.1523 183.039 27.0352C182.828 26.9297 182.723 26.7949 182.723 26.6309C182.723 26.4551 182.775 26.209 182.881 25.8926C183.162 25.1074 185.131 22.0781 188.787 16.8047C186.408 16.9219 184.521 17.0449 183.127 17.1738L182.301 17.3848ZM204.625 1.51172C204.438 1.57031 204.209 1.66406 203.939 1.79297L204.625 1.51172ZM209.424 13.6055C209.775 13.6055 210.133 13.7637 210.496 14.0801C210.871 14.3965 211.059 14.8828 211.059 15.5391C211.059 16.1836 210.83 17.0273 210.373 18.0703C209.916 19.1016 209.289 20.1562 208.492 21.2344C207.695 22.3008 206.816 23.3086 205.855 24.2578C204.906 25.1953 203.875 25.9688 202.762 26.5781C201.66 27.1758 200.658 27.4746 199.756 27.4746C198.854 27.4746 198.127 27.1934 197.576 26.6309C197.037 26.0566 196.768 25.2656 196.768 24.2578C196.768 23.2383 197.014 22.1133 197.506 20.8828C198.01 19.6523 198.654 18.5684 199.439 17.6309C200.225 16.6816 201.074 15.832 201.988 15.082C203.898 13.5469 205.574 12.7793 207.016 12.7793C207.66 12.7793 208.146 12.9375 208.475 13.2539C208.592 13.3594 208.65 13.4531 208.65 13.5352V13.6406C208.814 13.6172 209.072 13.6055 209.424 13.6055ZM207.648 15.9434H207.525C207.115 15.9434 206.91 15.6445 206.91 15.0469C206.055 15.3281 205.158 15.8203 204.221 16.5234C203.283 17.2266 202.445 18.0586 201.707 19.0195C200.207 20.9414 199.445 22.5645 199.422 23.8887C199.422 24.5449 199.662 24.873 200.143 24.873C200.623 24.873 201.338 24.5566 202.287 23.9238C203.236 23.291 204.174 22.3887 205.1 21.2168C206.037 20.0449 206.734 19.0312 207.191 18.1758C207.66 17.3086 207.895 16.7227 207.895 16.418C207.895 16.1016 207.812 15.9434 207.648 15.9434ZM222.607 13.6055C222.959 13.6055 223.316 13.7637 223.68 14.0801C224.055 14.3965 224.242 14.8828 224.242 15.5391C224.242 16.1836 224.014 17.0273 223.557 18.0703C223.1 19.1016 222.473 20.1562 221.676 21.2344C220.879 22.3008 220 23.3086 219.039 24.2578C218.09 25.1953 217.059 25.9688 215.945 26.5781C214.844 27.1758 213.842 27.4746 212.939 27.4746C212.037 27.4746 211.311 27.1934 210.76 26.6309C210.221 26.0566 209.951 25.2656 209.951 24.2578C209.951 23.2383 210.197 22.1133 210.689 20.8828C211.193 19.6523 211.838 18.5684 212.623 17.6309C213.408 16.6816 214.258 15.832 215.172 15.082C217.082 13.5469 218.758 12.7793 220.199 12.7793C220.844 12.7793 221.33 12.9375 221.658 13.2539C221.775 13.3594 221.834 13.4531 221.834 13.5352V13.6406C221.998 13.6172 222.256 13.6055 222.607 13.6055ZM220.832 15.9434H220.709C220.299 15.9434 220.094 15.6445 220.094 15.0469C219.238 15.3281 218.342 15.8203 217.404 16.5234C216.467 17.2266 215.629 18.0586 214.891 19.0195C213.391 20.9414 212.629 22.5645 212.605 23.8887C212.605 24.5449 212.846 24.873 213.326 24.873C213.807 24.873 214.521 24.5566 215.471 23.9238C216.42 23.291 217.357 22.3887 218.283 21.2168C219.221 20.0449 219.918 19.0312 220.375 18.1758C220.844 17.3086 221.078 16.7227 221.078 16.418C221.078 16.1016 220.996 15.9434 220.832 15.9434ZM245.934 0.650391C246.156 0.650391 246.332 0.720703 246.461 0.861328C246.59 1.00195 246.654 1.14844 246.654 1.30078C246.654 1.44141 246.537 1.71094 246.303 2.10938C246.08 2.49609 245.559 3.35156 244.738 4.67578C243.918 5.98828 243.279 7.01953 242.822 7.76953C240.162 12.0938 238.076 15.75 236.564 18.7383C235.053 21.7266 234.297 23.5312 234.297 24.1523V24.293C234.297 24.7734 234.473 25.0137 234.824 25.0137C235.176 25.0137 235.598 24.8496 236.09 24.5215C236.594 24.1934 237.033 23.8418 237.408 23.4668C237.783 23.0918 238.158 22.7051 238.533 22.3066C238.92 21.8965 239.154 21.6562 239.236 21.5859C239.318 21.5156 239.424 21.4805 239.553 21.4805C239.752 21.4805 239.881 21.6094 239.939 21.8672C239.998 22.1133 240.027 22.4648 240.027 22.9219C240.027 23.3672 239.992 23.6602 239.922 23.8008C239.582 24.457 238.832 25.2598 237.672 26.209C236.523 27.1465 235.434 27.6152 234.402 27.6152C232.645 27.6152 231.766 26.8711 231.766 25.3828C231.766 24.457 232.117 23.2441 232.82 21.7441C231.871 22.9746 230.904 24.0234 229.92 24.8906C228.092 26.4844 226.504 27.2812 225.156 27.2812C224.406 27.2812 223.85 27.0176 223.486 26.4902C223.135 25.9629 222.959 25.207 222.959 24.2227C222.959 23.2266 223.346 22.0371 224.119 20.6543C224.893 19.2715 225.854 18.0293 227.002 16.9277C228.162 15.8145 229.445 14.8887 230.852 14.1504C232.258 13.4004 233.553 13.0254 234.736 13.0254C235.111 13.0254 235.551 13.2539 236.055 13.7109C236.395 13.1719 237.021 12.0938 237.936 10.4766C240.807 5.63672 242.705 2.68359 243.631 1.61719C244.123 0.972656 244.891 0.650391 245.934 0.650391ZM234.982 15.3633C233.295 15.7383 231.725 16.5234 230.271 17.7188C228.818 18.9141 227.729 20.168 227.002 21.4805C226.275 22.7812 225.912 23.625 225.912 24.0117C225.912 24.3984 225.994 24.5918 226.158 24.5918C226.861 24.5918 228.602 23.0215 231.379 19.8809C232.762 18.334 233.963 16.8281 234.982 15.3633Z" fill="#68A47F"/>
</svg>
